ISO-10303-21;
HEADER;
/* Generated by software containing ST-Developer
 * from STEP Tools, Inc. (www.steptools.com) 
 */
/* OPTION: using custom renumber hook */

FILE_DESCRIPTION(
/* description */ ('STEP AP242 Edition 2',
'CAx-IF Rec.Pracs.---Representation and Presentation of Product Manufa
cturing Information (PMI)---4.0---2014-10-13',
'CAx-IF Rec.Pracs.---3D Tessellated Geometry---0.4---2014-09-14','2;1',
'CAx-IF Rec.Pracs.---User Defined Attributes---1.5---2016-08-15'),
/* implementation_level */ '2;1');

FILE_NAME(
/* name */ 'Part Studio 1 - Part 1',
/* time_stamp */ '2026-09-17T20:25:39Z',
/* author */ (''),
/* organization */ (''),
/* preprocessor_version */ 'ST-DEVELOPER v20',
/* originating_system */ 'ONSHAPE BY PTC INC, 1.220',
/* authorisation */ '  ');

FILE_SCHEMA (('AP242_MANAGED_MODEL_BASED_3D_ENGINEERING_MIM_LF { 1 0 10303 442 3 1 4 }'));
ENDSEC;

DATA;
#10=SHAPE_REPRESENTATION_RELATIONSHIP('','',#874,#11);
#11=ADVANCED_BREP_SHAPE_REPRESENTATION('',(#872),#1419);
#12=OVER_RIDING_STYLED_ITEM('',(#854),#849,#852);
#13=OVER_RIDING_STYLED_ITEM('',(#855),#850,#852);
#14=DRAUGHTING_PRE_DEFINED_COLOUR('red');
#15=CYLINDRICAL_SURFACE('',#913,0.00160676834195571);
#16=CYLINDRICAL_SURFACE('',#914,0.00160676834195572);
#17=CYLINDRICAL_SURFACE('',#915,0.00160074814401647);
#18=CYLINDRICAL_SURFACE('',#916,0.00160074814401646);
#19=CYLINDRICAL_SURFACE('',#926,0.100733522053189);
#20=CYLINDRICAL_SURFACE('',#928,0.062005645402845);
#21=CYLINDRICAL_SURFACE('',#930,0.10987282536394);
#22=CYLINDRICAL_SURFACE('',#932,0.0627240449310607);
#23=CYLINDRICAL_SURFACE('',#934,0.10987282536394);
#24=CYLINDRICAL_SURFACE('',#940,0.00521557500689105);
#25=CYLINDRICAL_SURFACE('',#941,0.00433580574647977);
#26=CYLINDRICAL_SURFACE('',#943,0.10987282536396);
#27=CYLINDRICAL_SURFACE('',#946,0.00314388381783043);
#28=ELLIPSE('',#890,0.00314388393752445,0.00314388381783043);
#29=CIRCLE('',#877,0.00160676834195571);
#30=CIRCLE('',#878,0.00160676834195572);
#31=CIRCLE('',#879,0.100733522053189);
#32=CIRCLE('',#880,0.062005645402845);
#33=CIRCLE('',#882,0.00521557500689105);
#34=CIRCLE('',#883,0.10987282536394);
#35=CIRCLE('',#884,0.0627240449310607);
#36=CIRCLE('',#885,0.10987282536394);
#37=CIRCLE('',#887,0.00160074814401646);
#38=CIRCLE('',#888,0.00160074814401647);
#39=CIRCLE('',#891,0.00160074814401647);
#40=CIRCLE('',#892,0.00160074814401646);
#41=CIRCLE('',#903,0.00160676834195572);
#42=CIRCLE('',#904,0.00160676834195571);
#43=CIRCLE('',#927,0.100733522053189);
#44=CIRCLE('',#929,0.062005645402845);
#45=CIRCLE('',#931,0.10987282536394);
#46=CIRCLE('',#933,0.0627240449310607);
#47=CIRCLE('',#935,0.10987282536394);
#48=CIRCLE('',#937,0.00521557500689105);
#49=CIRCLE('',#938,0.00433580574647977);
#50=CIRCLE('',#939,0.10987282536396);
#51=CIRCLE('',#942,0.00433580574647977);
#52=CIRCLE('',#944,0.10987282536396);
#53=CIRCLE('',#947,0.00314388381783043);
#54=ORIENTED_EDGE('',*,*,#276,.F.);
#55=ORIENTED_EDGE('',*,*,#277,.T.);
#56=ORIENTED_EDGE('',*,*,#278,.T.);
#57=ORIENTED_EDGE('',*,*,#279,.F.);
#58=ORIENTED_EDGE('',*,*,#280,.F.);
#59=ORIENTED_EDGE('',*,*,#281,.F.);
#60=ORIENTED_EDGE('',*,*,#282,.T.);
#61=ORIENTED_EDGE('',*,*,#283,.T.);
#62=ORIENTED_EDGE('',*,*,#284,.F.);
#63=ORIENTED_EDGE('',*,*,#285,.F.);
#64=ORIENTED_EDGE('',*,*,#286,.F.);
#65=ORIENTED_EDGE('',*,*,#287,.F.);
#66=ORIENTED_EDGE('',*,*,#288,.F.);
#67=ORIENTED_EDGE('',*,*,#289,.T.);
#68=ORIENTED_EDGE('',*,*,#290,.T.);
#69=ORIENTED_EDGE('',*,*,#291,.T.);
#70=ORIENTED_EDGE('',*,*,#292,.F.);
#71=ORIENTED_EDGE('',*,*,#293,.F.);
#72=ORIENTED_EDGE('',*,*,#294,.T.);
#73=ORIENTED_EDGE('',*,*,#295,.T.);
#74=ORIENTED_EDGE('',*,*,#296,.F.);
#75=ORIENTED_EDGE('',*,*,#297,.F.);
#76=ORIENTED_EDGE('',*,*,#298,.T.);
#77=ORIENTED_EDGE('',*,*,#299,.T.);
#78=ORIENTED_EDGE('',*,*,#300,.F.);
#79=ORIENTED_EDGE('',*,*,#301,.F.);
#80=ORIENTED_EDGE('',*,*,#302,.F.);
#81=ORIENTED_EDGE('',*,*,#303,.F.);
#82=ORIENTED_EDGE('',*,*,#304,.F.);
#83=ORIENTED_EDGE('',*,*,#305,.T.);
#84=ORIENTED_EDGE('',*,*,#306,.T.);
#85=ORIENTED_EDGE('',*,*,#307,.F.);
#86=ORIENTED_EDGE('',*,*,#308,.F.);
#87=ORIENTED_EDGE('',*,*,#309,.T.);
#88=ORIENTED_EDGE('',*,*,#310,.T.);
#89=ORIENTED_EDGE('',*,*,#311,.F.);
#90=ORIENTED_EDGE('',*,*,#312,.F.);
#91=ORIENTED_EDGE('',*,*,#313,.F.);
#92=ORIENTED_EDGE('',*,*,#314,.T.);
#93=ORIENTED_EDGE('',*,*,#315,.T.);
#94=ORIENTED_EDGE('',*,*,#316,.F.);
#95=ORIENTED_EDGE('',*,*,#317,.F.);
#96=ORIENTED_EDGE('',*,*,#318,.T.);
#97=ORIENTED_EDGE('',*,*,#319,.F.);
#98=ORIENTED_EDGE('',*,*,#320,.F.);
#99=ORIENTED_EDGE('',*,*,#321,.T.);
#100=ORIENTED_EDGE('',*,*,#322,.T.);
#101=ORIENTED_EDGE('',*,*,#323,.F.);
#102=ORIENTED_EDGE('',*,*,#314,.F.);
#103=ORIENTED_EDGE('',*,*,#324,.F.);
#104=ORIENTED_EDGE('',*,*,#325,.T.);
#105=ORIENTED_EDGE('',*,*,#320,.T.);
#106=ORIENTED_EDGE('',*,*,#325,.F.);
#107=ORIENTED_EDGE('',*,*,#326,.F.);
#108=ORIENTED_EDGE('',*,*,#327,.F.);
#109=ORIENTED_EDGE('',*,*,#328,.F.);
#110=ORIENTED_EDGE('',*,*,#317,.T.);
#111=ORIENTED_EDGE('',*,*,#329,.T.);
#112=ORIENTED_EDGE('',*,*,#321,.F.);
#113=ORIENTED_EDGE('',*,*,#315,.F.);
#114=ORIENTED_EDGE('',*,*,#323,.T.);
#115=ORIENTED_EDGE('',*,*,#319,.T.);
#116=ORIENTED_EDGE('',*,*,#330,.F.);
#117=ORIENTED_EDGE('',*,*,#331,.F.);
#118=ORIENTED_EDGE('',*,*,#332,.F.);
#119=ORIENTED_EDGE('',*,*,#326,.T.);
#120=ORIENTED_EDGE('',*,*,#324,.T.);
#121=ORIENTED_EDGE('',*,*,#333,.F.);
#122=ORIENTED_EDGE('',*,*,#334,.F.);
#123=ORIENTED_EDGE('',*,*,#327,.T.);
#124=ORIENTED_EDGE('',*,*,#332,.T.);
#125=ORIENTED_EDGE('',*,*,#335,.F.);
#126=ORIENTED_EDGE('',*,*,#318,.F.);
#127=ORIENTED_EDGE('',*,*,#328,.T.);
#128=ORIENTED_EDGE('',*,*,#334,.T.);
#129=ORIENTED_EDGE('',*,*,#313,.T.);
#130=ORIENTED_EDGE('',*,*,#335,.T.);
#131=ORIENTED_EDGE('',*,*,#333,.T.);
#132=ORIENTED_EDGE('',*,*,#331,.T.);
#133=ORIENTED_EDGE('',*,*,#336,.F.);
#134=ORIENTED_EDGE('',*,*,#337,.F.);
#135=ORIENTED_EDGE('',*,*,#295,.F.);
#136=ORIENTED_EDGE('',*,*,#338,.F.);
#137=ORIENTED_EDGE('',*,*,#339,.F.);
#138=ORIENTED_EDGE('',*,*,#340,.T.);
#139=ORIENTED_EDGE('',*,*,#341,.T.);
#140=ORIENTED_EDGE('',*,*,#342,.F.);
#141=ORIENTED_EDGE('',*,*,#329,.F.);
#142=ORIENTED_EDGE('',*,*,#316,.T.);
#143=ORIENTED_EDGE('',*,*,#330,.T.);
#144=ORIENTED_EDGE('',*,*,#322,.F.);
#145=ORIENTED_EDGE('',*,*,#343,.F.);
#146=ORIENTED_EDGE('',*,*,#341,.F.);
#147=ORIENTED_EDGE('',*,*,#344,.T.);
#148=ORIENTED_EDGE('',*,*,#281,.T.);
#149=ORIENTED_EDGE('',*,*,#345,.F.);
#150=ORIENTED_EDGE('',*,*,#346,.F.);
#151=ORIENTED_EDGE('',*,*,#283,.F.);
#152=ORIENTED_EDGE('',*,*,#347,.T.);
#153=ORIENTED_EDGE('',*,*,#339,.T.);
#154=ORIENTED_EDGE('',*,*,#303,.T.);
#155=ORIENTED_EDGE('',*,*,#344,.F.);
#156=ORIENTED_EDGE('',*,*,#340,.F.);
#157=ORIENTED_EDGE('',*,*,#347,.F.);
#158=ORIENTED_EDGE('',*,*,#282,.F.);
#159=ORIENTED_EDGE('',*,*,#345,.T.);
#160=ORIENTED_EDGE('',*,*,#306,.F.);
#161=ORIENTED_EDGE('',*,*,#348,.F.);
#162=ORIENTED_EDGE('',*,*,#349,.F.);
#163=ORIENTED_EDGE('',*,*,#350,.F.);
#164=ORIENTED_EDGE('',*,*,#296,.T.);
#165=ORIENTED_EDGE('',*,*,#342,.T.);
#166=ORIENTED_EDGE('',*,*,#343,.T.);
#167=ORIENTED_EDGE('',*,*,#280,.T.);
#168=ORIENTED_EDGE('',*,*,#346,.T.);
#169=ORIENTED_EDGE('',*,*,#350,.T.);
#170=ORIENTED_EDGE('',*,*,#351,.F.);
#171=ORIENTED_EDGE('',*,*,#352,.F.);
#172=ORIENTED_EDGE('',*,*,#297,.T.);
#173=ORIENTED_EDGE('',*,*,#349,.T.);
#174=ORIENTED_EDGE('',*,*,#353,.F.);
#175=ORIENTED_EDGE('',*,*,#354,.F.);
#176=ORIENTED_EDGE('',*,*,#351,.T.);
#177=ORIENTED_EDGE('',*,*,#348,.T.);
#178=ORIENTED_EDGE('',*,*,#305,.F.);
#179=ORIENTED_EDGE('',*,*,#355,.F.);
#180=ORIENTED_EDGE('',*,*,#353,.T.);
#181=ORIENTED_EDGE('',*,*,#304,.T.);
#182=ORIENTED_EDGE('',*,*,#338,.T.);
#183=ORIENTED_EDGE('',*,*,#294,.F.);
#184=ORIENTED_EDGE('',*,*,#352,.T.);
#185=ORIENTED_EDGE('',*,*,#354,.T.);
#186=ORIENTED_EDGE('',*,*,#355,.T.);
#187=ORIENTED_EDGE('',*,*,#337,.T.);
#188=ORIENTED_EDGE('',*,*,#284,.T.);
#189=ORIENTED_EDGE('',*,*,#336,.T.);
#190=ORIENTED_EDGE('',*,*,#285,.T.);
#191=ORIENTED_EDGE('',*,*,#293,.T.);
#192=ORIENTED_EDGE('',*,*,#307,.T.);
#193=ORIENTED_EDGE('',*,*,#292,.T.);
#194=ORIENTED_EDGE('',*,*,#308,.T.);
#195=ORIENTED_EDGE('',*,*,#277,.F.);
#196=ORIENTED_EDGE('',*,*,#356,.F.);
#197=ORIENTED_EDGE('',*,*,#357,.T.);
#198=ORIENTED_EDGE('',*,*,#358,.T.);
#199=ORIENTED_EDGE('',*,*,#276,.T.);
#200=ORIENTED_EDGE('',*,*,#359,.F.);
#201=ORIENTED_EDGE('',*,*,#360,.F.);
#202=ORIENTED_EDGE('',*,*,#356,.T.);
#203=ORIENTED_EDGE('',*,*,#279,.T.);
#204=ORIENTED_EDGE('',*,*,#361,.F.);
#205=ORIENTED_EDGE('',*,*,#362,.F.);
#206=ORIENTED_EDGE('',*,*,#359,.T.);
#207=ORIENTED_EDGE('',*,*,#278,.F.);
#208=ORIENTED_EDGE('',*,*,#358,.F.);
#209=ORIENTED_EDGE('',*,*,#363,.T.);
#210=ORIENTED_EDGE('',*,*,#361,.T.);
#211=ORIENTED_EDGE('',*,*,#357,.F.);
#212=ORIENTED_EDGE('',*,*,#360,.T.);
#213=ORIENTED_EDGE('',*,*,#362,.T.);
#214=ORIENTED_EDGE('',*,*,#363,.F.);
#215=ORIENTED_EDGE('',*,*,#364,.T.);
#216=ORIENTED_EDGE('',*,*,#309,.F.);
#217=ORIENTED_EDGE('',*,*,#365,.F.);
#218=ORIENTED_EDGE('',*,*,#299,.F.);
#219=ORIENTED_EDGE('',*,*,#300,.T.);
#220=ORIENTED_EDGE('',*,*,#365,.T.);
#221=ORIENTED_EDGE('',*,*,#312,.T.);
#222=ORIENTED_EDGE('',*,*,#366,.F.);
#223=ORIENTED_EDGE('',*,*,#301,.T.);
#224=ORIENTED_EDGE('',*,*,#366,.T.);
#225=ORIENTED_EDGE('',*,*,#311,.T.);
#226=ORIENTED_EDGE('',*,*,#367,.F.);
#227=ORIENTED_EDGE('',*,*,#367,.T.);
#228=ORIENTED_EDGE('',*,*,#310,.F.);
#229=ORIENTED_EDGE('',*,*,#364,.F.);
#230=ORIENTED_EDGE('',*,*,#298,.F.);
#231=ORIENTED_EDGE('',*,*,#286,.T.);
#232=ORIENTED_EDGE('',*,*,#368,.F.);
#233=ORIENTED_EDGE('',*,*,#369,.F.);
#234=ORIENTED_EDGE('',*,*,#370,.T.);
#235=ORIENTED_EDGE('',*,*,#287,.T.);
#236=ORIENTED_EDGE('',*,*,#370,.F.);
#237=ORIENTED_EDGE('',*,*,#371,.F.);
#238=ORIENTED_EDGE('',*,*,#368,.T.);
#239=ORIENTED_EDGE('',*,*,#291,.F.);
#240=ORIENTED_EDGE('',*,*,#372,.F.);
#241=ORIENTED_EDGE('',*,*,#373,.T.);
#242=ORIENTED_EDGE('',*,*,#374,.T.);
#243=ORIENTED_EDGE('',*,*,#290,.F.);
#244=ORIENTED_EDGE('',*,*,#375,.F.);
#245=ORIENTED_EDGE('',*,*,#376,.T.);
#246=ORIENTED_EDGE('',*,*,#372,.T.);
#247=ORIENTED_EDGE('',*,*,#289,.F.);
#248=ORIENTED_EDGE('',*,*,#377,.F.);
#249=ORIENTED_EDGE('',*,*,#378,.T.);
#250=ORIENTED_EDGE('',*,*,#375,.T.);
#251=ORIENTED_EDGE('',*,*,#371,.T.);
#252=ORIENTED_EDGE('',*,*,#369,.T.);
#253=ORIENTED_EDGE('',*,*,#379,.T.);
#254=ORIENTED_EDGE('',*,*,#373,.F.);
#255=ORIENTED_EDGE('',*,*,#376,.F.);
#256=ORIENTED_EDGE('',*,*,#378,.F.);
#257=ORIENTED_EDGE('',*,*,#380,.F.);
#258=ORIENTED_EDGE('',*,*,#381,.F.);
#259=ORIENTED_EDGE('',*,*,#374,.F.);
#260=ORIENTED_EDGE('',*,*,#379,.F.);
#261=ORIENTED_EDGE('',*,*,#377,.T.);
#262=ORIENTED_EDGE('',*,*,#288,.T.);
#263=ORIENTED_EDGE('',*,*,#382,.F.);
#264=ORIENTED_EDGE('',*,*,#383,.F.);
#265=ORIENTED_EDGE('',*,*,#380,.T.);
#266=ORIENTED_EDGE('',*,*,#384,.T.);
#267=ORIENTED_EDGE('',*,*,#385,.F.);
#268=ORIENTED_EDGE('',*,*,#384,.F.);
#269=ORIENTED_EDGE('',*,*,#381,.T.);
#270=ORIENTED_EDGE('',*,*,#383,.T.);
#271=ORIENTED_EDGE('',*,*,#382,.T.);
#272=ORIENTED_EDGE('',*,*,#385,.T.);
#273=ORIENTED_EDGE('',*,*,#386,.F.);
#274=ORIENTED_EDGE('',*,*,#302,.T.);
#275=ORIENTED_EDGE('',*,*,#386,.T.);
#276=EDGE_CURVE('',#387,#388,#464,.T.);
#277=EDGE_CURVE('',#387,#389,#465,.T.);
#278=EDGE_CURVE('',#389,#390,#466,.T.);
#279=EDGE_CURVE('',#388,#390,#467,.T.);
#280=EDGE_CURVE('',#391,#392,#468,.T.);
#281=EDGE_CURVE('',#393,#391,#469,.T.);
#282=EDGE_CURVE('',#393,#394,#470,.T.);
#283=EDGE_CURVE('',#394,#392,#471,.T.);
#284=EDGE_CURVE('',#395,#395,#29,.T.);
#285=EDGE_CURVE('',#396,#396,#30,.T.);
#286=EDGE_CURVE('',#397,#398,#31,.T.);
#287=EDGE_CURVE('',#398,#397,#32,.T.);
#288=EDGE_CURVE('',#399,#400,#33,.T.);
#289=EDGE_CURVE('',#399,#401,#34,.T.);
#290=EDGE_CURVE('',#401,#402,#35,.T.);
#291=EDGE_CURVE('',#402,#400,#36,.T.);
#292=EDGE_CURVE('',#403,#403,#37,.T.);
#293=EDGE_CURVE('',#404,#404,#38,.T.);
#294=EDGE_CURVE('',#405,#406,#472,.T.);
#295=EDGE_CURVE('',#406,#407,#473,.T.);
#296=EDGE_CURVE('',#408,#407,#474,.T.);
#297=EDGE_CURVE('',#405,#408,#475,.T.);
#298=EDGE_CURVE('',#409,#410,#476,.T.);
#299=EDGE_CURVE('',#410,#411,#477,.T.);
#300=EDGE_CURVE('',#412,#411,#478,.T.);
#301=EDGE_CURVE('',#409,#412,#479,.T.);
#302=EDGE_CURVE('',#413,#413,#28,.F.);
#303=EDGE_CURVE('',#414,#415,#480,.T.);
#304=EDGE_CURVE('',#416,#414,#481,.T.);
#305=EDGE_CURVE('',#416,#417,#482,.T.);
#306=EDGE_CURVE('',#417,#415,#483,.T.);
#307=EDGE_CURVE('',#418,#418,#39,.T.);
#308=EDGE_CURVE('',#419,#419,#40,.T.);
#309=EDGE_CURVE('',#420,#421,#484,.T.);
#310=EDGE_CURVE('',#421,#422,#485,.T.);
#311=EDGE_CURVE('',#423,#422,#486,.T.);
#312=EDGE_CURVE('',#420,#423,#487,.T.);
#313=EDGE_CURVE('',#424,#425,#488,.T.);
#314=EDGE_CURVE('',#424,#426,#489,.T.);
#315=EDGE_CURVE('',#426,#427,#490,.T.);
#316=EDGE_CURVE('',#428,#427,#491,.T.);
#317=EDGE_CURVE('',#429,#428,#492,.T.);
#318=EDGE_CURVE('',#429,#425,#493,.T.);
#319=EDGE_CURVE('',#430,#431,#494,.T.);
#320=EDGE_CURVE('',#432,#430,#495,.T.);
#321=EDGE_CURVE('',#432,#433,#496,.T.);
#322=EDGE_CURVE('',#433,#431,#497,.T.);
#323=EDGE_CURVE('',#426,#430,#498,.T.);
#324=EDGE_CURVE('',#434,#424,#499,.T.);
#325=EDGE_CURVE('',#434,#432,#500,.T.);
#326=EDGE_CURVE('',#435,#434,#501,.T.);
#327=EDGE_CURVE('',#436,#435,#502,.T.);
#328=EDGE_CURVE('',#429,#436,#503,.T.);
#329=EDGE_CURVE('',#428,#433,#504,.T.);
#330=EDGE_CURVE('',#427,#431,#505,.T.);
#331=EDGE_CURVE('',#437,#424,#506,.T.);
#332=EDGE_CURVE('',#435,#437,#507,.T.);
#333=EDGE_CURVE('',#438,#437,#508,.T.);
#334=EDGE_CURVE('',#436,#438,#509,.T.);
#335=EDGE_CURVE('',#425,#438,#510,.T.);
#336=EDGE_CURVE('',#439,#439,#41,.T.);
#337=EDGE_CURVE('',#440,#440,#42,.T.);
#338=EDGE_CURVE('',#414,#406,#511,.T.);
#339=EDGE_CURVE('',#441,#414,#512,.T.);
#340=EDGE_CURVE('',#441,#442,#513,.T.);
#341=EDGE_CURVE('',#442,#443,#514,.T.);
#342=EDGE_CURVE('',#407,#443,#515,.T.);
#343=EDGE_CURVE('',#443,#391,#516,.T.);
#344=EDGE_CURVE('',#442,#393,#517,.T.);
#345=EDGE_CURVE('',#444,#415,#518,.T.);
#346=EDGE_CURVE('',#392,#444,#519,.T.);
#347=EDGE_CURVE('',#394,#441,#520,.T.);
#348=EDGE_CURVE('',#445,#417,#521,.T.);
#349=EDGE_CURVE('',#446,#445,#522,.T.);
#350=EDGE_CURVE('',#408,#446,#523,.T.);
#351=EDGE_CURVE('',#447,#446,#524,.T.);
#352=EDGE_CURVE('',#405,#447,#525,.T.);
#353=EDGE_CURVE('',#448,#445,#526,.T.);
#354=EDGE_CURVE('',#447,#448,#527,.T.);
#355=EDGE_CURVE('',#448,#416,#528,.T.);
#356=EDGE_CURVE('',#449,#387,#529,.T.);
#357=EDGE_CURVE('',#449,#450,#530,.T.);
#358=EDGE_CURVE('',#450,#389,#531,.T.);
#359=EDGE_CURVE('',#451,#388,#532,.T.);
#360=EDGE_CURVE('',#449,#451,#533,.T.);
#361=EDGE_CURVE('',#452,#390,#534,.T.);
#362=EDGE_CURVE('',#451,#452,#535,.T.);
#363=EDGE_CURVE('',#450,#452,#536,.T.);
#364=EDGE_CURVE('',#410,#421,#537,.T.);
#365=EDGE_CURVE('',#411,#420,#538,.T.);
#366=EDGE_CURVE('',#412,#423,#539,.T.);
#367=EDGE_CURVE('',#409,#422,#540,.T.);
#368=EDGE_CURVE('',#453,#398,#541,.T.);
#369=EDGE_CURVE('',#454,#453,#43,.T.);
#370=EDGE_CURVE('',#454,#397,#542,.T.);
#371=EDGE_CURVE('',#453,#454,#44,.T.);
#372=EDGE_CURVE('',#455,#402,#543,.T.);
#373=EDGE_CURVE('',#455,#456,#45,.T.);
#374=EDGE_CURVE('',#456,#400,#544,.T.);
#375=EDGE_CURVE('',#457,#401,#545,.T.);
#376=EDGE_CURVE('',#457,#455,#46,.T.);
#377=EDGE_CURVE('',#458,#399,#546,.T.);
#378=EDGE_CURVE('',#458,#457,#47,.T.);
#379=EDGE_CURVE('',#458,#456,#48,.T.);
#380=EDGE_CURVE('',#459,#460,#49,.T.);
#381=EDGE_CURVE('',#460,#459,#50,.T.);
#382=EDGE_CURVE('',#461,#462,#51,.T.);
#383=EDGE_CURVE('',#459,#461,#547,.T.);
#384=EDGE_CURVE('',#460,#462,#548,.T.);
#385=EDGE_CURVE('',#462,#461,#52,.T.);
#386=EDGE_CURVE('',#463,#463,#53,.T.);
#387=VERTEX_POINT('',#1185);
#388=VERTEX_POINT('',#1186);
#389=VERTEX_POINT('',#1188);
#390=VERTEX_POINT('',#1190);
#391=VERTEX_POINT('',#1193);
#392=VERTEX_POINT('',#1194);
#393=VERTEX_POINT('',#1196);
#394=VERTEX_POINT('',#1198);
#395=VERTEX_POINT('',#1201);
#396=VERTEX_POINT('',#1203);
#397=VERTEX_POINT('',#1205);
#398=VERTEX_POINT('',#1206);
#399=VERTEX_POINT('',#1210);
#400=VERTEX_POINT('',#1211);
#401=VERTEX_POINT('',#1213);
#402=VERTEX_POINT('',#1215);
#403=VERTEX_POINT('',#1219);
#404=VERTEX_POINT('',#1221);
#405=VERTEX_POINT('',#1223);
#406=VERTEX_POINT('',#1224);
#407=VERTEX_POINT('',#1226);
#408=VERTEX_POINT('',#1228);
#409=VERTEX_POINT('',#1231);
#410=VERTEX_POINT('',#1232);
#411=VERTEX_POINT('',#1234);
#412=VERTEX_POINT('',#1236);
#413=VERTEX_POINT('',#1240);
#414=VERTEX_POINT('',#1242);
#415=VERTEX_POINT('',#1243);
#416=VERTEX_POINT('',#1245);
#417=VERTEX_POINT('',#1247);
#418=VERTEX_POINT('',#1250);
#419=VERTEX_POINT('',#1252);
#420=VERTEX_POINT('',#1254);
#421=VERTEX_POINT('',#1255);
#422=VERTEX_POINT('',#1257);
#423=VERTEX_POINT('',#1259);
#424=VERTEX_POINT('',#1263);
#425=VERTEX_POINT('',#1264);
#426=VERTEX_POINT('',#1266);
#427=VERTEX_POINT('',#1268);
#428=VERTEX_POINT('',#1270);
#429=VERTEX_POINT('',#1272);
#430=VERTEX_POINT('',#1276);
#431=VERTEX_POINT('',#1277);
#432=VERTEX_POINT('',#1279);
#433=VERTEX_POINT('',#1281);
#434=VERTEX_POINT('',#1286);
#435=VERTEX_POINT('',#1290);
#436=VERTEX_POINT('',#1292);
#437=VERTEX_POINT('',#1299);
#438=VERTEX_POINT('',#1303);
#439=VERTEX_POINT('',#1310);
#440=VERTEX_POINT('',#1312);
#441=VERTEX_POINT('',#1315);
#442=VERTEX_POINT('',#1317);
#443=VERTEX_POINT('',#1319);
#444=VERTEX_POINT('',#1326);
#445=VERTEX_POINT('',#1332);
#446=VERTEX_POINT('',#1334);
#447=VERTEX_POINT('',#1338);
#448=VERTEX_POINT('',#1342);
#449=VERTEX_POINT('',#1353);
#450=VERTEX_POINT('',#1355);
#451=VERTEX_POINT('',#1359);
#452=VERTEX_POINT('',#1363);
#453=VERTEX_POINT('',#1378);
#454=VERTEX_POINT('',#1380);
#455=VERTEX_POINT('',#1386);
#456=VERTEX_POINT('',#1388);
#457=VERTEX_POINT('',#1392);
#458=VERTEX_POINT('',#1396);
#459=VERTEX_POINT('',#1401);
#460=VERTEX_POINT('',#1402);
#461=VERTEX_POINT('',#1407);
#462=VERTEX_POINT('',#1408);
#463=VERTEX_POINT('',#1416);
#464=LINE('',#1184,#549);
#465=LINE('',#1187,#550);
#466=LINE('',#1189,#551);
#467=LINE('',#1191,#552);
#468=LINE('',#1192,#553);
#469=LINE('',#1195,#554);
#470=LINE('',#1197,#555);
#471=LINE('',#1199,#556);
#472=LINE('',#1222,#557);
#473=LINE('',#1225,#558);
#474=LINE('',#1227,#559);
#475=LINE('',#1229,#560);
#476=LINE('',#1230,#561);
#477=LINE('',#1233,#562);
#478=LINE('',#1235,#563);
#479=LINE('',#1237,#564);
#480=LINE('',#1241,#565);
#481=LINE('',#1244,#566);
#482=LINE('',#1246,#567);
#483=LINE('',#1248,#568);
#484=LINE('',#1253,#569);
#485=LINE('',#1256,#570);
#486=LINE('',#1258,#571);
#487=LINE('',#1260,#572);
#488=LINE('',#1262,#573);
#489=LINE('',#1265,#574);
#490=LINE('',#1267,#575);
#491=LINE('',#1269,#576);
#492=LINE('',#1271,#577);
#493=LINE('',#1273,#578);
#494=LINE('',#1275,#579);
#495=LINE('',#1278,#580);
#496=LINE('',#1280,#581);
#497=LINE('',#1282,#582);
#498=LINE('',#1284,#583);
#499=LINE('',#1285,#584);
#500=LINE('',#1287,#585);
#501=LINE('',#1289,#586);
#502=LINE('',#1291,#587);
#503=LINE('',#1293,#588);
#504=LINE('',#1294,#589);
#505=LINE('',#1296,#590);
#506=LINE('',#1298,#591);
#507=LINE('',#1300,#592);
#508=LINE('',#1302,#593);
#509=LINE('',#1304,#594);
#510=LINE('',#1306,#595);
#511=LINE('',#1313,#596);
#512=LINE('',#1314,#597);
#513=LINE('',#1316,#598);
#514=LINE('',#1318,#599);
#515=LINE('',#1320,#600);
#516=LINE('',#1322,#601);
#517=LINE('',#1323,#602);
#518=LINE('',#1325,#603);
#519=LINE('',#1327,#604);
#520=LINE('',#1328,#605);
#521=LINE('',#1331,#606);
#522=LINE('',#1333,#607);
#523=LINE('',#1335,#608);
#524=LINE('',#1337,#609);
#525=LINE('',#1339,#610);
#526=LINE('',#1341,#611);
#527=LINE('',#1343,#612);
#528=LINE('',#1345,#613);
#529=LINE('',#1352,#614);
#530=LINE('',#1354,#615);
#531=LINE('',#1356,#616);
#532=LINE('',#1358,#617);
#533=LINE('',#1360,#618);
#534=LINE('',#1362,#619);
#535=LINE('',#1364,#620);
#536=LINE('',#1366,#621);
#537=LINE('',#1369,#622);
#538=LINE('',#1370,#623);
#539=LINE('',#1372,#624);
#540=LINE('',#1374,#625);
#541=LINE('',#1377,#626);
#542=LINE('',#1381,#627);
#543=LINE('',#1385,#628);
#544=LINE('',#1389,#629);
#545=LINE('',#1391,#630);
#546=LINE('',#1395,#631);
#547=LINE('',#1409,#632);
#548=LINE('',#1410,#633);
#549=VECTOR('',#953,1.);
#550=VECTOR('',#954,1.);
#551=VECTOR('',#955,1.);
#552=VECTOR('',#956,1.);
#553=VECTOR('',#957,1.);
#554=VECTOR('',#958,1.);
#555=VECTOR('',#959,1.);
#556=VECTOR('',#960,1.);
#557=VECTOR('',#985,1.);
#558=VECTOR('',#986,1.);
#559=VECTOR('',#987,1.);
#560=VECTOR('',#988,1.);
#561=VECTOR('',#989,1.);
#562=VECTOR('',#990,1.);
#563=VECTOR('',#991,1.);
#564=VECTOR('',#992,1.);
#565=VECTOR('',#997,1.);
#566=VECTOR('',#998,1.);
#567=VECTOR('',#999,1.);
#568=VECTOR('',#1000,1.);
#569=VECTOR('',#1005,1.);
#570=VECTOR('',#1006,1.);
#571=VECTOR('',#1007,1.);
#572=VECTOR('',#1008,1.);
#573=VECTOR('',#1011,1.);
#574=VECTOR('',#1012,1.);
#575=VECTOR('',#1013,1.);
#576=VECTOR('',#1014,1.);
#577=VECTOR('',#1015,1.);
#578=VECTOR('',#1016,1.);
#579=VECTOR('',#1019,1.);
#580=VECTOR('',#1020,1.);
#581=VECTOR('',#1021,1.);
#582=VECTOR('',#1022,1.);
#583=VECTOR('',#1025,1.);
#584=VECTOR('',#1026,1.);
#585=VECTOR('',#1027,1.);
#586=VECTOR('',#1030,1.);
#587=VECTOR('',#1031,1.);
#588=VECTOR('',#1032,1.);
#589=VECTOR('',#1033,1.);
#590=VECTOR('',#1036,1.);
#591=VECTOR('',#1039,1.);
#592=VECTOR('',#1040,1.);
#593=VECTOR('',#1043,1.);
#594=VECTOR('',#1044,1.);
#595=VECTOR('',#1047,1.);
#596=VECTOR('',#1056,1.);
#597=VECTOR('',#1057,1.);
#598=VECTOR('',#1058,1.);
#599=VECTOR('',#1059,1.);
#600=VECTOR('',#1060,1.);
#601=VECTOR('',#1063,1.);
#602=VECTOR('',#1064,1.);
#603=VECTOR('',#1067,1.);
#604=VECTOR('',#1068,1.);
#605=VECTOR('',#1069,1.);
#606=VECTOR('',#1074,1.);
#607=VECTOR('',#1075,1.);
#608=VECTOR('',#1076,1.);
#609=VECTOR('',#1079,1.);
#610=VECTOR('',#1080,1.);
#611=VECTOR('',#1083,1.);
#612=VECTOR('',#1084,1.);
#613=VECTOR('',#1087,1.);
#614=VECTOR('',#1100,1.);
#615=VECTOR('',#1101,1.);
#616=VECTOR('',#1102,1.);
#617=VECTOR('',#1105,1.);
#618=VECTOR('',#1106,1.);
#619=VECTOR('',#1109,1.);
#620=VECTOR('',#1110,1.);
#621=VECTOR('',#1113,1.);
#622=VECTOR('',#1118,1.);
#623=VECTOR('',#1119,1.);
#624=VECTOR('',#1122,1.);
#625=VECTOR('',#1125,1.);
#626=VECTOR('',#1130,1.);
#627=VECTOR('',#1133,1.);
#628=VECTOR('',#1140,1.);
#629=VECTOR('',#1143,1.);
#630=VECTOR('',#1146,1.);
#631=VECTOR('',#1151,1.);
#632=VECTOR('',#1168,1.);
#633=VECTOR('',#1169,1.);
#634=EDGE_LOOP('',(#54,#55,#56,#57));
#635=EDGE_LOOP('',(#58,#59,#60,#61));
#636=EDGE_LOOP('',(#62));
#637=EDGE_LOOP('',(#63));
#638=EDGE_LOOP('',(#64,#65));
#639=EDGE_LOOP('',(#66,#67,#68,#69));
#640=EDGE_LOOP('',(#70));
#641=EDGE_LOOP('',(#71));
#642=EDGE_LOOP('',(#72,#73,#74,#75));
#643=EDGE_LOOP('',(#76,#77,#78,#79));
#644=EDGE_LOOP('',(#80));
#645=EDGE_LOOP('',(#81,#82,#83,#84));
#646=EDGE_LOOP('',(#85));
#647=EDGE_LOOP('',(#86));
#648=EDGE_LOOP('',(#87,#88,#89,#90));
#649=EDGE_LOOP('',(#91,#92,#93,#94,#95,#96));
#650=EDGE_LOOP('',(#97,#98,#99,#100));
#651=EDGE_LOOP('',(#101,#102,#103,#104,#105));
#652=EDGE_LOOP('',(#106,#107,#108,#109,#110,#111,#112));
#653=EDGE_LOOP('',(#113,#114,#115,#116));
#654=EDGE_LOOP('',(#117,#118,#119,#120));
#655=EDGE_LOOP('',(#121,#122,#123,#124));
#656=EDGE_LOOP('',(#125,#126,#127,#128));
#657=EDGE_LOOP('',(#129,#130,#131,#132));
#658=EDGE_LOOP('',(#133));
#659=EDGE_LOOP('',(#134));
#660=EDGE_LOOP('',(#135,#136,#137,#138,#139,#140));
#661=EDGE_LOOP('',(#141,#142,#143,#144));
#662=EDGE_LOOP('',(#145,#146,#147,#148));
#663=EDGE_LOOP('',(#149,#150,#151,#152,#153,#154));
#664=EDGE_LOOP('',(#155,#156,#157,#158));
#665=EDGE_LOOP('',(#159,#160,#161,#162,#163,#164,#165,#166,#167,#168));
#666=EDGE_LOOP('',(#169,#170,#171,#172));
#667=EDGE_LOOP('',(#173,#174,#175,#176));
#668=EDGE_LOOP('',(#177,#178,#179,#180));
#669=EDGE_LOOP('',(#181,#182,#183,#184,#185,#186));
#670=EDGE_LOOP('',(#187));
#671=EDGE_LOOP('',(#188));
#672=EDGE_LOOP('',(#189));
#673=EDGE_LOOP('',(#190));
#674=EDGE_LOOP('',(#191));
#675=EDGE_LOOP('',(#192));
#676=EDGE_LOOP('',(#193));
#677=EDGE_LOOP('',(#194));
#678=EDGE_LOOP('',(#195,#196,#197,#198));
#679=EDGE_LOOP('',(#199,#200,#201,#202));
#680=EDGE_LOOP('',(#203,#204,#205,#206));
#681=EDGE_LOOP('',(#207,#208,#209,#210));
#682=EDGE_LOOP('',(#211,#212,#213,#214));
#683=EDGE_LOOP('',(#215,#216,#217,#218));
#684=EDGE_LOOP('',(#219,#220,#221,#222));
#685=EDGE_LOOP('',(#223,#224,#225,#226));
#686=EDGE_LOOP('',(#227,#228,#229,#230));
#687=EDGE_LOOP('',(#231,#232,#233,#234));
#688=EDGE_LOOP('',(#235,#236,#237,#238));
#689=EDGE_LOOP('',(#239,#240,#241,#242));
#690=EDGE_LOOP('',(#243,#244,#245,#246));
#691=EDGE_LOOP('',(#247,#248,#249,#250));
#692=EDGE_LOOP('',(#251,#252));
#693=EDGE_LOOP('',(#253,#254,#255,#256));
#694=EDGE_LOOP('',(#257,#258));
#695=EDGE_LOOP('',(#259,#260,#261,#262));
#696=EDGE_LOOP('',(#263,#264,#265,#266));
#697=EDGE_LOOP('',(#267,#268,#269,#270));
#698=EDGE_LOOP('',(#271,#272));
#699=EDGE_LOOP('',(#273));
#700=EDGE_LOOP('',(#274));
#701=EDGE_LOOP('',(#275));
#702=FACE_BOUND('',#634,.T.);
#703=FACE_BOUND('',#635,.T.);
#704=FACE_BOUND('',#636,.T.);
#705=FACE_BOUND('',#637,.T.);
#706=FACE_BOUND('',#638,.T.);
#707=FACE_BOUND('',#639,.T.);
#708=FACE_BOUND('',#640,.T.);
#709=FACE_BOUND('',#641,.T.);
#710=FACE_BOUND('',#642,.T.);
#711=FACE_BOUND('',#643,.T.);
#712=FACE_BOUND('',#644,.T.);
#713=FACE_BOUND('',#645,.T.);
#714=FACE_BOUND('',#646,.T.);
#715=FACE_BOUND('',#647,.T.);
#716=FACE_BOUND('',#648,.T.);
#717=FACE_BOUND('',#649,.T.);
#718=FACE_BOUND('',#650,.T.);
#719=FACE_BOUND('',#651,.T.);
#720=FACE_BOUND('',#652,.T.);
#721=FACE_BOUND('',#653,.T.);
#722=FACE_BOUND('',#654,.T.);
#723=FACE_BOUND('',#655,.T.);
#724=FACE_BOUND('',#656,.T.);
#725=FACE_BOUND('',#657,.T.);
#726=FACE_BOUND('',#658,.T.);
#727=FACE_BOUND('',#659,.T.);
#728=FACE_BOUND('',#660,.T.);
#729=FACE_BOUND('',#661,.T.);
#730=FACE_BOUND('',#662,.T.);
#731=FACE_BOUND('',#663,.T.);
#732=FACE_BOUND('',#664,.T.);
#733=FACE_BOUND('',#665,.T.);
#734=FACE_BOUND('',#666,.T.);
#735=FACE_BOUND('',#667,.T.);
#736=FACE_BOUND('',#668,.T.);
#737=FACE_BOUND('',#669,.T.);
#738=FACE_BOUND('',#670,.T.);
#739=FACE_BOUND('',#671,.T.);
#740=FACE_BOUND('',#672,.T.);
#741=FACE_BOUND('',#673,.T.);
#742=FACE_BOUND('',#674,.T.);
#743=FACE_BOUND('',#675,.T.);
#744=FACE_BOUND('',#676,.T.);
#745=FACE_BOUND('',#677,.T.);
#746=FACE_BOUND('',#678,.T.);
#747=FACE_BOUND('',#679,.T.);
#748=FACE_BOUND('',#680,.T.);
#749=FACE_BOUND('',#681,.T.);
#750=FACE_BOUND('',#682,.T.);
#751=FACE_BOUND('',#683,.T.);
#752=FACE_BOUND('',#684,.T.);
#753=FACE_BOUND('',#685,.T.);
#754=FACE_BOUND('',#686,.T.);
#755=FACE_BOUND('',#687,.T.);
#756=FACE_BOUND('',#688,.T.);
#757=FACE_BOUND('',#689,.T.);
#758=FACE_BOUND('',#690,.T.);
#759=FACE_BOUND('',#691,.T.);
#760=FACE_BOUND('',#692,.T.);
#761=FACE_BOUND('',#693,.T.);
#762=FACE_BOUND('',#694,.T.);
#763=FACE_BOUND('',#695,.T.);
#764=FACE_BOUND('',#696,.T.);
#765=FACE_BOUND('',#697,.T.);
#766=FACE_BOUND('',#698,.T.);
#767=FACE_BOUND('',#699,.T.);
#768=FACE_BOUND('',#700,.T.);
#769=FACE_BOUND('',#701,.T.);
#770=PLANE('',#876);
#771=PLANE('',#881);
#772=PLANE('',#886);
#773=PLANE('',#889);
#774=PLANE('',#893);
#775=PLANE('',#894);
#776=PLANE('',#895);
#777=PLANE('',#896);
#778=PLANE('',#897);
#779=PLANE('',#898);
#780=PLANE('',#899);
#781=PLANE('',#900);
#782=PLANE('',#901);
#783=PLANE('',#902);
#784=PLANE('',#905);
#785=PLANE('',#906);
#786=PLANE('',#907);
#787=PLANE('',#908);
#788=PLANE('',#909);
#789=PLANE('',#910);
#790=PLANE('',#911);
#791=PLANE('',#912);
#792=PLANE('',#917);
#793=PLANE('',#918);
#794=PLANE('',#919);
#795=PLANE('',#920);
#796=PLANE('',#921);
#797=PLANE('',#922);
#798=PLANE('',#923);
#799=PLANE('',#924);
#800=PLANE('',#925);
#801=PLANE('',#936);
#802=PLANE('',#945);
#803=PLANE('',#948);
#804=ADVANCED_FACE('',(#702,#703,#704,#705,#706),#770,.T.);
#805=ADVANCED_FACE('',(#707),#771,.T.);
#806=ADVANCED_FACE('',(#708,#709,#710,#711),#772,.T.);
#807=ADVANCED_FACE('',(#712,#713,#714,#715,#716),#773,.F.);
#808=ADVANCED_FACE('',(#717),#774,.F.);
#809=ADVANCED_FACE('',(#718),#775,.T.);
#810=ADVANCED_FACE('',(#719),#776,.T.);
#811=ADVANCED_FACE('',(#720),#777,.T.);
#812=ADVANCED_FACE('',(#721),#778,.F.);
#813=ADVANCED_FACE('',(#722),#779,.T.);
#814=ADVANCED_FACE('',(#723),#780,.T.);
#815=ADVANCED_FACE('',(#724),#781,.T.);
#816=ADVANCED_FACE('',(#725),#782,.F.);
#817=ADVANCED_FACE('',(#726,#727,#728,#729),#783,.T.);
#818=ADVANCED_FACE('',(#730),#784,.T.);
#819=ADVANCED_FACE('',(#731),#785,.T.);
#820=ADVANCED_FACE('',(#732),#786,.T.);
#821=ADVANCED_FACE('',(#733),#787,.F.);
#822=ADVANCED_FACE('',(#734),#788,.F.);
#823=ADVANCED_FACE('',(#735),#789,.F.);
#824=ADVANCED_FACE('',(#736),#790,.F.);
#825=ADVANCED_FACE('',(#737),#791,.T.);
#826=ADVANCED_FACE('',(#738,#739),#15,.F.);
#827=ADVANCED_FACE('',(#740,#741),#16,.F.);
#828=ADVANCED_FACE('',(#742,#743),#17,.F.);
#829=ADVANCED_FACE('',(#744,#745),#18,.F.);
#830=ADVANCED_FACE('',(#746),#792,.T.);
#831=ADVANCED_FACE('',(#747),#793,.F.);
#832=ADVANCED_FACE('',(#748),#794,.F.);
#833=ADVANCED_FACE('',(#749),#795,.T.);
#834=ADVANCED_FACE('',(#750),#796,.T.);
#835=ADVANCED_FACE('',(#751),#797,.T.);
#836=ADVANCED_FACE('',(#752),#798,.F.);
#837=ADVANCED_FACE('',(#753),#799,.F.);
#838=ADVANCED_FACE('',(#754),#800,.T.);
#839=ADVANCED_FACE('',(#755),#19,.T.);
#840=ADVANCED_FACE('',(#756),#20,.T.);
#841=ADVANCED_FACE('',(#757),#21,.F.);
#842=ADVANCED_FACE('',(#758),#22,.F.);
#843=ADVANCED_FACE('',(#759),#23,.F.);
#844=ADVANCED_FACE('',(#760,#761,#762),#801,.T.);
#845=ADVANCED_FACE('',(#763),#24,.T.);
#846=ADVANCED_FACE('',(#764),#25,.F.);
#847=ADVANCED_FACE('',(#765),#26,.F.);
#848=ADVANCED_FACE('',(#766),#802,.T.);
#849=ADVANCED_FACE('Face appearance 1',(#767,#768),#27,.T.);
#850=ADVANCED_FACE('Face appearance 1',(#769),#803,.T.);
#851=CLOSED_SHELL('',(#804,#805,#806,#807,#808,#809,#810,#811,#812,#813,
#814,#815,#816,#817,#818,#819,#820,#821,#822,#823,#824,#825,#826,#827,#828,
#829,#830,#831,#832,#833,#834,#835,#836,#837,#838,#839,#840,#841,#842,#843,
#844,#845,#846,#847,#848,#849,#850));
#852=STYLED_ITEM('',(#853),#872);
#853=PRESENTATION_STYLE_ASSIGNMENT((#856));
#854=PRESENTATION_STYLE_ASSIGNMENT((#857));
#855=PRESENTATION_STYLE_ASSIGNMENT((#858));
#856=SURFACE_STYLE_USAGE(.BOTH.,#859);
#857=SURFACE_STYLE_USAGE(.BOTH.,#860);
#858=SURFACE_STYLE_USAGE(.BOTH.,#861);
#859=SURFACE_SIDE_STYLE('',(#862));
#860=SURFACE_SIDE_STYLE('',(#863));
#861=SURFACE_SIDE_STYLE('',(#864));
#862=SURFACE_STYLE_FILL_AREA(#865);
#863=SURFACE_STYLE_FILL_AREA(#866);
#864=SURFACE_STYLE_FILL_AREA(#867);
#865=FILL_AREA_STYLE('',(#868));
#866=FILL_AREA_STYLE('',(#869));
#867=FILL_AREA_STYLE('',(#870));
#868=FILL_AREA_STYLE_COLOUR('',#871);
#869=FILL_AREA_STYLE_COLOUR('',#14);
#870=FILL_AREA_STYLE_COLOUR('',#14);
#871=COLOUR_RGB('',0.0235294117647059,0.,0.);
#872=MANIFOLD_SOLID_BREP('Part 1',#851);
#873=SHAPE_DEFINITION_REPRESENTATION(#1424,#874);
#874=SHAPE_REPRESENTATION('Part 1',(#875),#1419);
#875=AXIS2_PLACEMENT_3D('',#1182,#949,#950);
#876=AXIS2_PLACEMENT_3D('',#1183,#951,#952);
#877=AXIS2_PLACEMENT_3D('',#1200,#961,#962);
#878=AXIS2_PLACEMENT_3D('',#1202,#963,#964);
#879=AXIS2_PLACEMENT_3D('',#1204,#965,#966);
#880=AXIS2_PLACEMENT_3D('',#1207,#967,#968);
#881=AXIS2_PLACEMENT_3D('',#1208,#969,#970);
#882=AXIS2_PLACEMENT_3D('',#1209,#971,#972);
#883=AXIS2_PLACEMENT_3D('',#1212,#973,#974);
#884=AXIS2_PLACEMENT_3D('',#1214,#975,#976);
#885=AXIS2_PLACEMENT_3D('',#1216,#977,#978);
#886=AXIS2_PLACEMENT_3D('',#1217,#979,#980);
#887=AXIS2_PLACEMENT_3D('',#1218,#981,#982);
#888=AXIS2_PLACEMENT_3D('',#1220,#983,#984);
#889=AXIS2_PLACEMENT_3D('',#1238,#993,#994);
#890=AXIS2_PLACEMENT_3D('',#1239,#995,#996);
#891=AXIS2_PLACEMENT_3D('',#1249,#1001,#1002);
#892=AXIS2_PLACEMENT_3D('',#1251,#1003,#1004);
#893=AXIS2_PLACEMENT_3D('',#1261,#1009,#1010);
#894=AXIS2_PLACEMENT_3D('',#1274,#1017,#1018);
#895=AXIS2_PLACEMENT_3D('',#1283,#1023,#1024);
#896=AXIS2_PLACEMENT_3D('',#1288,#1028,#1029);
#897=AXIS2_PLACEMENT_3D('',#1295,#1034,#1035);
#898=AXIS2_PLACEMENT_3D('',#1297,#1037,#1038);
#899=AXIS2_PLACEMENT_3D('',#1301,#1041,#1042);
#900=AXIS2_PLACEMENT_3D('',#1305,#1045,#1046);
#901=AXIS2_PLACEMENT_3D('',#1307,#1048,#1049);
#902=AXIS2_PLACEMENT_3D('',#1308,#1050,#1051);
#903=AXIS2_PLACEMENT_3D('',#1309,#1052,#1053);
#904=AXIS2_PLACEMENT_3D('',#1311,#1054,#1055);
#905=AXIS2_PLACEMENT_3D('',#1321,#1061,#1062);
#906=AXIS2_PLACEMENT_3D('',#1324,#1065,#1066);
#907=AXIS2_PLACEMENT_3D('',#1329,#1070,#1071);
#908=AXIS2_PLACEMENT_3D('',#1330,#1072,#1073);
#909=AXIS2_PLACEMENT_3D('',#1336,#1077,#1078);
#910=AXIS2_PLACEMENT_3D('',#1340,#1081,#1082);
#911=AXIS2_PLACEMENT_3D('',#1344,#1085,#1086);
#912=AXIS2_PLACEMENT_3D('',#1346,#1088,#1089);
#913=AXIS2_PLACEMENT_3D('',#1347,#1090,#1091);
#914=AXIS2_PLACEMENT_3D('',#1348,#1092,#1093);
#915=AXIS2_PLACEMENT_3D('',#1349,#1094,#1095);
#916=AXIS2_PLACEMENT_3D('',#1350,#1096,#1097);
#917=AXIS2_PLACEMENT_3D('',#1351,#1098,#1099);
#918=AXIS2_PLACEMENT_3D('',#1357,#1103,#1104);
#919=AXIS2_PLACEMENT_3D('',#1361,#1107,#1108);
#920=AXIS2_PLACEMENT_3D('',#1365,#1111,#1112);
#921=AXIS2_PLACEMENT_3D('',#1367,#1114,#1115);
#922=AXIS2_PLACEMENT_3D('',#1368,#1116,#1117);
#923=AXIS2_PLACEMENT_3D('',#1371,#1120,#1121);
#924=AXIS2_PLACEMENT_3D('',#1373,#1123,#1124);
#925=AXIS2_PLACEMENT_3D('',#1375,#1126,#1127);
#926=AXIS2_PLACEMENT_3D('',#1376,#1128,#1129);
#927=AXIS2_PLACEMENT_3D('',#1379,#1131,#1132);
#928=AXIS2_PLACEMENT_3D('',#1382,#1134,#1135);
#929=AXIS2_PLACEMENT_3D('',#1383,#1136,#1137);
#930=AXIS2_PLACEMENT_3D('',#1384,#1138,#1139);
#931=AXIS2_PLACEMENT_3D('',#1387,#1141,#1142);
#932=AXIS2_PLACEMENT_3D('',#1390,#1144,#1145);
#933=AXIS2_PLACEMENT_3D('',#1393,#1147,#1148);
#934=AXIS2_PLACEMENT_3D('',#1394,#1149,#1150);
#935=AXIS2_PLACEMENT_3D('',#1397,#1152,#1153);
#936=AXIS2_PLACEMENT_3D('',#1398,#1154,#1155);
#937=AXIS2_PLACEMENT_3D('',#1399,#1156,#1157);
#938=AXIS2_PLACEMENT_3D('',#1400,#1158,#1159);
#939=AXIS2_PLACEMENT_3D('',#1403,#1160,#1161);
#940=AXIS2_PLACEMENT_3D('',#1404,#1162,#1163);
#941=AXIS2_PLACEMENT_3D('',#1405,#1164,#1165);
#942=AXIS2_PLACEMENT_3D('',#1406,#1166,#1167);
#943=AXIS2_PLACEMENT_3D('',#1411,#1170,#1171);
#944=AXIS2_PLACEMENT_3D('',#1412,#1172,#1173);
#945=AXIS2_PLACEMENT_3D('',#1413,#1174,#1175);
#946=AXIS2_PLACEMENT_3D('',#1414,#1176,#1177);
#947=AXIS2_PLACEMENT_3D('',#1415,#1178,#1179);
#948=AXIS2_PLACEMENT_3D('',#1417,#1180,#1181);
#949=DIRECTION('',(0.,0.,1.));
#950=DIRECTION('',(1.,0.,0.));
#951=DIRECTION('',(0.,-0.862820235102811,0.505510872184892));
#952=DIRECTION('',(0.,-0.505510872184892,-0.862820235102811));
#953=DIRECTION('',(0.,-0.505510872184892,-0.862820235102811));
#954=DIRECTION('',(1.,0.,0.));
#955=DIRECTION('',(0.,-0.505510872184892,-0.862820235102811));
#956=DIRECTION('',(1.,0.,0.));
#957=DIRECTION('',(0.,0.505510872184892,0.862820235102811));
#958=DIRECTION('',(-1.,0.,0.));
#959=DIRECTION('',(0.,0.505510872184892,0.862820235102811));
#960=DIRECTION('',(-1.,0.,0.));
#961=DIRECTION('',(0.,-0.862820235102811,0.505510872184892));
#962=DIRECTION('',(0.,-0.505510872184892,-0.862820235102811));
#963=DIRECTION('',(0.,-0.862820235102811,0.505510872184892));
#964=DIRECTION('',(0.,-0.505510872184892,-0.862820235102811));
#965=DIRECTION('',(0.,-0.862820235102811,0.505510872184892));
#966=DIRECTION('',(0.,-0.505510872184892,-0.862820235102811));
#967=DIRECTION('',(0.,-0.862820235102811,0.505510872184892));
#968=DIRECTION('',(0.,-0.505510872184892,-0.862820235102811));
#969=DIRECTION('',(0.,-0.862820235102811,0.505510872184892));
#970=DIRECTION('',(0.,-0.505510872184892,-0.862820235102811));
#971=DIRECTION('',(0.,-0.862820235102811,0.505510872184892));
#972=DIRECTION('',(0.,-0.505510872184892,-0.862820235102811));
#973=DIRECTION('',(0.,-0.862820235102811,0.505510872184892));
#974=DIRECTION('',(0.,-0.505510872184892,-0.862820235102811));
#975=DIRECTION('',(0.,-0.862820235102811,0.505510872184892));
#976=DIRECTION('',(0.,-0.505510872184892,-0.862820235102811));
#977=DIRECTION('',(0.,-0.862820235102811,0.505510872184892));
#978=DIRECTION('',(0.,-0.505510872184892,-0.862820235102811));
#979=DIRECTION('',(0.,0.000275942103839374,-0.999999961927977));
#980=DIRECTION('',(0.,0.999999961927977,0.000275942103839374));
#981=DIRECTION('',(0.,0.000275942103839374,-0.999999961927977));
#982=DIRECTION('',(0.,0.999999961927977,0.000275942103839374));
#983=DIRECTION('',(0.,0.000275942103839374,-0.999999961927977));
#984=DIRECTION('',(0.,0.999999961927977,0.000275942103839374));
#985=DIRECTION('',(0.,-0.999999961927977,-0.000275942103839374));
#986=DIRECTION('',(-1.,0.,0.));
#987=DIRECTION('',(0.,-0.999999961927977,-0.000275942103839374));
#988=DIRECTION('',(-1.,0.,0.));
#989=DIRECTION('',(0.,0.999999961927977,0.000275942103839374));
#990=DIRECTION('',(-1.,0.,0.));
#991=DIRECTION('',(0.,0.999999961927977,0.000275942103839374));
#992=DIRECTION('',(-1.,0.,0.));
#993=DIRECTION('',(0.,0.000275942103838522,-0.999999961927977));
#994=DIRECTION('',(0.,0.999999961927977,0.000275942103838522));
#995=DIRECTION('',(0.,0.000275942103838522,-0.999999961927977));
#996=DIRECTION('',(0.,-0.999999961927977,-0.000275942103838522));
#997=DIRECTION('',(-1.,0.,0.));
#998=DIRECTION('',(0.,-0.999999961927977,-0.000275942103838522));
#999=DIRECTION('',(-1.,0.,0.));
#1000=DIRECTION('',(0.,-0.999999961927977,-0.000275942103838522));
#1001=DIRECTION('',(0.,-0.000275942103838522,0.999999961927977));
#1002=DIRECTION('',(0.,-0.999999961927977,-0.000275942103838522));
#1003=DIRECTION('',(0.,-0.000275942103838522,0.999999961927977));
#1004=DIRECTION('',(0.,-0.999999961927977,-0.000275942103838522));
#1005=DIRECTION('',(1.,0.,0.));
#1006=DIRECTION('',(0.,-0.999999961927977,-0.000275942103838522));
#1007=DIRECTION('',(1.,0.,0.));
#1008=DIRECTION('',(0.,-0.999999961927977,-0.000275942103838522));
#1009=DIRECTION('',(0.,-0.435659018726462,-0.900111781615093));
#1010=DIRECTION('',(0.,0.900111781615093,-0.435659018726462));
#1011=DIRECTION('',(0.,-0.900111781615093,0.435659018726462));
#1012=DIRECTION('',(-1.,0.,0.));
#1013=DIRECTION('',(0.,-0.900111781615093,0.435659018726462));
#1014=DIRECTION('',(-1.,0.,0.));
#1015=DIRECTION('',(0.,-0.900111781615093,0.435659018726462));
#1016=DIRECTION('',(-1.,0.,0.));
#1017=DIRECTION('',(0.,-0.435659018726463,-0.900111781615092));
#1018=DIRECTION('',(0.,0.900111781615093,-0.435659018726463));
#1019=DIRECTION('',(0.,-0.900111781615092,0.435659018726463));
#1020=DIRECTION('',(-1.,0.,0.));
#1021=DIRECTION('',(0.,-0.900111781615092,0.435659018726463));
#1022=DIRECTION('',(-1.,0.,0.));
#1023=DIRECTION('',(0.,0.900111781615092,-0.435659018726462));
#1024=DIRECTION('',(0.,0.435659018726463,0.900111781615093));
#1025=DIRECTION('',(0.,-0.435659018726462,-0.900111781615093));
#1026=DIRECTION('',(-1.,0.,0.));
#1027=DIRECTION('',(0.,-0.435659018726462,-0.900111781615093));
#1028=DIRECTION('',(1.,0.,0.));
#1029=DIRECTION('',(0.,1.,0.));
#1030=DIRECTION('',(0.,-0.496070225104787,-0.868282403233238));
#1031=DIRECTION('',(0.,0.900111781615092,-0.435659018726463));
#1032=DIRECTION('',(0.,0.501192579808392,0.865335771793244));
#1033=DIRECTION('',(0.,-0.505510872184892,-0.862820235102811));
#1034=DIRECTION('',(1.,0.,0.));
#1035=DIRECTION('',(0.,1.,0.));
#1036=DIRECTION('',(0.,-0.505510872184892,-0.862820235102811));
#1037=DIRECTION('',(0.,0.868282403233238,-0.496070225104787));
#1038=DIRECTION('',(0.,0.496070225104787,0.868282403233238));
#1039=DIRECTION('',(0.,-0.496070225104787,-0.868282403233238));
#1040=DIRECTION('',(-1.,0.,0.));
#1041=DIRECTION('',(0.,0.435659018726463,0.900111781615092));
#1042=DIRECTION('',(0.,-0.900111781615092,0.435659018726463));
#1043=DIRECTION('',(0.,0.900111781615092,-0.435659018726463));
#1044=DIRECTION('',(-1.,0.,0.));
#1045=DIRECTION('',(0.,-0.865335771793244,0.501192579808391));
#1046=DIRECTION('',(0.,-0.501192579808392,-0.865335771793244));
#1047=DIRECTION('',(0.,0.501192579808392,0.865335771793244));
#1048=DIRECTION('',(1.,0.,0.));
#1049=DIRECTION('',(0.,1.,0.));
#1050=DIRECTION('',(0.,0.862820235102811,-0.505510872184892));
#1051=DIRECTION('',(0.,0.505510872184892,0.862820235102811));
#1052=DIRECTION('',(0.,0.862820235102811,-0.505510872184892));
#1053=DIRECTION('',(0.,0.505510872184892,0.862820235102811));
#1054=DIRECTION('',(0.,0.862820235102811,-0.505510872184892));
#1055=DIRECTION('',(0.,0.505510872184892,0.862820235102811));
#1056=DIRECTION('',(0.,-0.505510872184892,-0.862820235102811));
#1057=DIRECTION('',(-1.,0.,0.));
#1058=DIRECTION('',(0.,-0.505510872184892,-0.862820235102811));
#1059=DIRECTION('',(-1.,0.,0.));
#1060=DIRECTION('',(0.,-0.505510872184892,-0.862820235102811));
#1061=DIRECTION('',(0.,0.,-1.));
#1062=DIRECTION('',(-1.,0.,0.));
#1063=DIRECTION('',(0.,-1.,0.));
#1064=DIRECTION('',(0.,-1.,0.));
#1065=DIRECTION('',(0.,0.,1.));
#1066=DIRECTION('',(1.,0.,0.));
#1067=DIRECTION('',(0.,1.,0.));
#1068=DIRECTION('',(0.,1.,0.));
#1069=DIRECTION('',(0.,1.,0.));
#1070=DIRECTION('',(1.,0.,0.));
#1071=DIRECTION('',(0.,1.,0.));
#1072=DIRECTION('',(1.,0.,0.));
#1073=DIRECTION('',(0.,1.,0.));
#1074=DIRECTION('',(0.,-1.,-9.0030637087848E-14));
#1075=DIRECTION('',(0.,1.85884262505178E-12,1.));
#1076=DIRECTION('',(0.,1.,0.));
#1077=DIRECTION('',(0.,0.,1.));
#1078=DIRECTION('',(1.,0.,0.));
#1079=DIRECTION('',(-1.,0.,0.));
#1080=DIRECTION('',(0.,1.,0.));
#1081=DIRECTION('',(0.,-1.,1.85884262505178E-12));
#1082=DIRECTION('',(0.,-1.85884262505178E-12,-1.));
#1083=DIRECTION('',(-1.,0.,0.));
#1084=DIRECTION('',(0.,1.85884262505178E-12,1.));
#1085=DIRECTION('',(0.,9.0030637087848E-14,-1.));
#1086=DIRECTION('',(0.,1.,9.00306370878481E-14));
#1087=DIRECTION('',(0.,-1.,-9.0030637087848E-14));
#1088=DIRECTION('',(1.,0.,0.));
#1089=DIRECTION('',(0.,1.,0.));
#1090=DIRECTION('',(0.,-0.862820235102811,0.505510872184892));
#1091=DIRECTION('',(0.,-0.505510872184892,-0.862820235102811));
#1092=DIRECTION('',(0.,-0.862820235102811,0.505510872184892));
#1093=DIRECTION('',(0.,-0.505510872184892,-0.862820235102811));
#1094=DIRECTION('',(0.,-0.000275942103838522,0.999999961927977));
#1095=DIRECTION('',(0.,-0.999999961927977,-0.000275942103838522));
#1096=DIRECTION('',(0.,-0.000275942103838522,0.999999961927977));
#1097=DIRECTION('',(0.,-0.999999961927977,-0.000275942103838522));
#1098=DIRECTION('',(0.,-0.505510872184892,-0.862820235102811));
#1099=DIRECTION('',(0.,0.862820235102811,-0.505510872184892));
#1100=DIRECTION('',(0.,-0.862820235102811,0.505510872184892));
#1101=DIRECTION('',(1.,0.,0.));
#1102=DIRECTION('',(0.,-0.862820235102811,0.505510872184892));
#1103=DIRECTION('',(-1.,0.,0.));
#1104=DIRECTION('',(0.,0.,1.));
#1105=DIRECTION('',(0.,-0.862820235102811,0.505510872184892));
#1106=DIRECTION('',(0.,-0.505510872184892,-0.862820235102811));
#1107=DIRECTION('',(0.,-0.505510872184892,-0.862820235102811));
#1108=DIRECTION('',(0.,0.862820235102811,-0.505510872184892));
#1109=DIRECTION('',(0.,-0.862820235102811,0.505510872184892));
#1110=DIRECTION('',(1.,0.,0.));
#1111=DIRECTION('',(-1.,0.,0.));
#1112=DIRECTION('',(0.,0.,1.));
#1113=DIRECTION('',(0.,-0.505510872184892,-0.862820235102811));
#1114=DIRECTION('',(0.,-0.862820235102811,0.505510872184892));
#1115=DIRECTION('',(1.,0.,0.));
#1116=DIRECTION('',(0.,-0.999999961927977,-0.000275942103838522));
#1117=DIRECTION('',(0.,0.000275942103838522,-0.999999961927977));
#1118=DIRECTION('',(0.,-0.000275942103838522,0.999999961927977));
#1119=DIRECTION('',(0.,-0.000275942103838522,0.999999961927977));
#1120=DIRECTION('',(-1.,0.,0.));
#1121=DIRECTION('',(0.,0.,1.));
#1122=DIRECTION('',(0.,-0.000275942103838522,0.999999961927977));
#1123=DIRECTION('',(0.,-0.999999961927977,-0.000275942103838522));
#1124=DIRECTION('',(0.,0.000275942103838522,-0.999999961927977));
#1125=DIRECTION('',(0.,-0.000275942103838522,0.999999961927977));
#1126=DIRECTION('',(-1.,0.,0.));
#1127=DIRECTION('',(0.,0.,1.));
#1128=DIRECTION('',(0.,0.862820235102811,-0.505510872184892));
#1129=DIRECTION('',(0.,0.505510872184892,0.862820235102811));
#1130=DIRECTION('',(0.,0.862820235102811,-0.505510872184892));
#1131=DIRECTION('',(0.,-0.862820235102811,0.505510872184892));
#1132=DIRECTION('',(0.,-0.505510872184892,-0.862820235102811));
#1133=DIRECTION('',(0.,0.862820235102811,-0.505510872184892));
#1134=DIRECTION('',(0.,0.862820235102811,-0.505510872184892));
#1135=DIRECTION('',(0.,0.505510872184892,0.862820235102811));
#1136=DIRECTION('',(0.,-0.862820235102811,0.505510872184892));
#1137=DIRECTION('',(0.,-0.505510872184892,-0.862820235102811));
#1138=DIRECTION('',(0.,0.862820235102811,-0.505510872184892));
#1139=DIRECTION('',(0.,0.505510872184892,0.862820235102811));
#1140=DIRECTION('',(0.,0.862820235102811,-0.505510872184892));
#1141=DIRECTION('',(0.,-0.862820235102811,0.505510872184892));
#1142=DIRECTION('',(0.,-0.505510872184892,-0.862820235102811));
#1143=DIRECTION('',(0.,0.862820235102811,-0.505510872184892));
#1144=DIRECTION('',(0.,0.862820235102811,-0.505510872184892));
#1145=DIRECTION('',(0.,0.505510872184892,0.862820235102811));
#1146=DIRECTION('',(0.,0.862820235102811,-0.505510872184892));
#1147=DIRECTION('',(0.,-0.862820235102811,0.505510872184892));
#1148=DIRECTION('',(0.,-0.505510872184892,-0.862820235102811));
#1149=DIRECTION('',(0.,0.862820235102811,-0.505510872184892));
#1150=DIRECTION('',(0.,0.505510872184892,0.862820235102811));
#1151=DIRECTION('',(0.,0.862820235102811,-0.505510872184892));
#1152=DIRECTION('',(0.,-0.862820235102811,0.505510872184892));
#1153=DIRECTION('',(0.,-0.505510872184892,-0.862820235102811));
#1154=DIRECTION('',(0.,-0.862820235102811,0.505510872184892));
#1155=DIRECTION('',(1.,0.,0.));
#1156=DIRECTION('',(0.,-0.862820235102811,0.505510872184892));
#1157=DIRECTION('',(0.,-0.505510872184892,-0.862820235102811));
#1158=DIRECTION('',(0.,-0.862820235102811,0.505510872184892));
#1159=DIRECTION('',(0.,-0.505510872184892,-0.862820235102811));
#1160=DIRECTION('',(0.,-0.862820235102811,0.505510872184892));
#1161=DIRECTION('',(0.,-0.505510872184892,-0.862820235102811));
#1162=DIRECTION('',(0.,0.862820235102811,-0.505510872184892));
#1163=DIRECTION('',(0.,0.505510872184892,0.862820235102811));
#1164=DIRECTION('',(0.,0.862820235102811,-0.505510872184892));
#1165=DIRECTION('',(0.,0.505510872184892,0.862820235102811));
#1166=DIRECTION('',(0.,-0.862820235102811,0.505510872184892));
#1167=DIRECTION('',(0.,-0.505510872184892,-0.862820235102811));
#1168=DIRECTION('',(0.,0.862820235102811,-0.505510872184892));
#1169=DIRECTION('',(0.,0.862820235102811,-0.505510872184892));
#1170=DIRECTION('',(0.,0.862820235102811,-0.505510872184892));
#1171=DIRECTION('',(0.,0.505510872184892,0.862820235102811));
#1172=DIRECTION('',(0.,-0.862820235102811,0.505510872184892));
#1173=DIRECTION('',(0.,-0.505510872184892,-0.862820235102811));
#1174=DIRECTION('',(0.,-0.862820235102811,0.505510872184892));
#1175=DIRECTION('',(0.,-0.505510872184892,-0.862820235102811));
#1176=DIRECTION('',(0.,0.,-1.));
#1177=DIRECTION('',(-1.,0.,0.));
#1178=DIRECTION('',(0.,0.,1.));
#1179=DIRECTION('',(1.,0.,0.));
#1180=DIRECTION('',(0.,0.,1.));
#1181=DIRECTION('',(1.,0.,0.));
#1182=CARTESIAN_POINT('',(0.,0.,0.));
#1183=CARTESIAN_POINT('',(0.09765,-0.0538404671764002,0.0383514389395714));
#1184=CARTESIAN_POINT('',(0.0213222242891788,-0.0437551013928588,0.0555654261261225));
#1185=CARTESIAN_POINT('',(0.0213222242891788,-0.0390831096352955,0.0635397136211395));
#1186=CARTESIAN_POINT('',(0.0213222242891788,-0.0484270931504221,0.0475911386311054));
#1187=CARTESIAN_POINT('',(0.0528152789920568,-0.0390831096352955,0.0635397136211395));
#1188=CARTESIAN_POINT('',(0.0843083336949348,-0.0390831096352955,0.0635397136211395));
#1189=CARTESIAN_POINT('',(0.0843083336949348,-0.0437551013928588,0.0555654261261225));
#1190=CARTESIAN_POINT('',(0.0843083336949348,-0.0484270931504221,0.0475911386311054));
#1191=CARTESIAN_POINT('',(0.0528152789920568,-0.0484270931504221,0.0475911386311054));
#1192=CARTESIAN_POINT('',(0.011,-0.0538404671764002,0.0383514389395714));
#1193=CARTESIAN_POINT('',(0.011,-0.0763098861343112,-2.77555756156289E-17));
#1194=CARTESIAN_POINT('',(0.011,-0.0313710482184891,0.0767028778791428));
#1195=CARTESIAN_POINT('',(0.09765,-0.0763098861343112,-2.77555756156289E-17));
#1196=CARTESIAN_POINT('',(0.09765,-0.0763098861343112,-2.77555756156289E-17));
#1197=CARTESIAN_POINT('',(0.09765,-0.0538404671764002,0.0383514389395714));
#1198=CARTESIAN_POINT('',(0.09765,-0.0313710482184891,0.0767028778791428));
#1199=CARTESIAN_POINT('',(0.09765,-0.0313710482184891,0.0767028778791428));
#1200=CARTESIAN_POINT('',(0.0946921812887836,-0.0685958881951222,0.013166469569104));
#1201=CARTESIAN_POINT('',(0.0946921812887836,-0.0694081270610633,0.011780117330542));
#1202=CARTESIAN_POINT('',(0.0139163937419653,-0.0685958881951222,0.013166469569104));
#1203=CARTESIAN_POINT('',(0.0139163937419653,-0.0694081270610633,0.011780117330542));
#1204=CARTESIAN_POINT('',(0.0530204521492123,-0.0084692260169639,0.115792354888404));
#1205=CARTESIAN_POINT('',(0.0213538054376841,-0.0568095630625207,0.0332837022172476));
#1206=CARTESIAN_POINT('',(0.0846870988607407,-0.0568095630625207,0.0332837022172476));
#1207=CARTESIAN_POINT('',(0.0530204521492124,-0.0837581933208391,-0.0127129810878676));
#1208=CARTESIAN_POINT('',(0.09765,-0.0538404671764002,0.0383514389395714));
#1209=CARTESIAN_POINT('',(0.0521909780800343,-0.0568095630625207,0.0332837022172476));
#1210=CARTESIAN_POINT('',(0.0554041606604033,-0.058886325783429,0.0297390249457932));
#1211=CARTESIAN_POINT('',(0.0489151939569829,-0.0588611813525282,0.0297819421706742));
#1212=CARTESIAN_POINT('',(0.053001506254077,-0.00335769943175643,0.124516852842168));
#1213=CARTESIAN_POINT('',(0.0828586369752884,-0.0568095630625207,0.0332837022172476));
#1214=CARTESIAN_POINT('',(0.053001506254077,-0.084694605633544,-0.0143112760727194));
#1215=CARTESIAN_POINT('',(0.0231443755328656,-0.0568095630625207,0.0332837022172476));
#1216=CARTESIAN_POINT('',(0.053001506254077,-0.00335769943175635,0.124516852842169));
#1217=CARTESIAN_POINT('',(0.0976,-0.018006641184776,0.075902435928605));
#1218=CARTESIAN_POINT('',(0.0946189738229234,-0.00932946295263563,0.0759048303275129));
#1219=CARTESIAN_POINT('',(0.0946189738229234,-0.00772871486956289,0.0759052720413235));
#1220=CARTESIAN_POINT('',(0.0136721309411349,-0.00910133951159831,0.0759048932763776));
#1221=CARTESIAN_POINT('',(0.0136721309411349,-0.00750059142852556,0.0759053349901882));
#1222=CARTESIAN_POINT('',(0.0976,-0.018006641184776,0.075902435928605));
#1223=CARTESIAN_POINT('',(0.0976,-0.00689592724652485,0.075905501842501));
#1224=CARTESIAN_POINT('',(0.0976,-0.0289907488690945,0.0758994049507064));
#1225=CARTESIAN_POINT('',(0.09765,-0.0289907488690945,0.0758994049507064));
#1226=CARTESIAN_POINT('',(0.011,-0.0289907488690945,0.0758994049507064));
#1227=CARTESIAN_POINT('',(0.011,-0.018006641184776,0.075902435928605));
#1228=CARTESIAN_POINT('',(0.011,-0.00689592724652485,0.075905501842501));
#1229=CARTESIAN_POINT('',(0.0976,-0.00689592724652485,0.075905501842501));
#1230=CARTESIAN_POINT('',(0.0444712154567241,-0.018006641184776,0.075902435928605));
#1231=CARTESIAN_POINT('',(0.0444712154567241,-0.0190165524605052,0.0759021572515523));
#1232=CARTESIAN_POINT('',(0.0444712154567241,-0.0125919549960033,0.0759039300685605));
#1233=CARTESIAN_POINT('',(0.0976,-0.0125919549960033,0.0759039300685605));
#1234=CARTESIAN_POINT('',(0.0334085449576378,-0.0125919549960033,0.0759039300685605));
#1235=CARTESIAN_POINT('',(0.0334085449576378,-0.018006641184776,0.075902435928605));
#1236=CARTESIAN_POINT('',(0.0334085449576378,-0.0190165524605052,0.0759021572515523));
#1237=CARTESIAN_POINT('',(0.0976,-0.0190165524605052,0.0759021572515523));
#1238=CARTESIAN_POINT('',(0.0976,-0.0177801120462454,0.0766999415294049));
#1239=CARTESIAN_POINT('',(0.0202433812139419,-0.0166014570542553,0.0767002667699555));
#1240=CARTESIAN_POINT('',(0.0202433812139419,-0.0197453408720857,0.0766993992400076));
#1241=CARTESIAN_POINT('',(0.09765,-0.028520008517505,0.0767028778791428));
#1242=CARTESIAN_POINT('',(0.0976,-0.0285200077034842,0.0766999279096284));
#1243=CARTESIAN_POINT('',(0.011,-0.0285211856808218,0.0766988578798707));
#1244=CARTESIAN_POINT('',(0.0976,-0.0177801120462454,0.0766999415294049));
#1245=CARTESIAN_POINT('',(0.0976,-0.00689592724652489,0.0767029449343715));
#1246=CARTESIAN_POINT('',(0.0976,-0.00689592724652489,0.0767029449343715));
#1247=CARTESIAN_POINT('',(0.011,-0.00689592724652489,0.0767029449343715));
#1248=CARTESIAN_POINT('',(0.011,-0.0177801120462454,0.0766999415294049));
#1249=CARTESIAN_POINT('',(0.0136721309411349,-0.00910155955971439,0.0767023363075275));
#1250=CARTESIAN_POINT('',(0.0136721309411349,-0.0107023076427871,0.0767018945937169));
#1251=CARTESIAN_POINT('',(0.0946189738229234,-0.00932968300075172,0.0767022733586629));
#1252=CARTESIAN_POINT('',(0.0946189738229234,-0.0109304310838245,0.0767018316448523));
#1253=CARTESIAN_POINT('',(0.0389398802071809,-0.0125921750441194,0.0767013730997104));
#1254=CARTESIAN_POINT('',(0.0334085449576378,-0.0125921750441194,0.0767013730997104));
#1255=CARTESIAN_POINT('',(0.0444712154567241,-0.0125921750441194,0.0767013730997104));
#1256=CARTESIAN_POINT('',(0.0444712154567241,-0.0158044737763703,0.0767004866912063));
#1257=CARTESIAN_POINT('',(0.0444712154567241,-0.0190167725086212,0.0766996002827022));
#1258=CARTESIAN_POINT('',(0.0389398802071809,-0.0190167725086212,0.0766996002827022));
#1259=CARTESIAN_POINT('',(0.0334085449576378,-0.0190167725086212,0.0766996002827022));
#1260=CARTESIAN_POINT('',(0.0334085449576378,-0.0158044737763703,0.0767004866912063));
#1261=CARTESIAN_POINT('',(0.0919,-0.0436309759411573,0.0426719424893));
#1262=CARTESIAN_POINT('',(0.022,-0.0436309759411573,0.0426719424893));
#1263=CARTESIAN_POINT('',(0.022,-0.0417290035564207,0.0417513774664843));
#1264=CARTESIAN_POINT('',(0.022,-0.0455329483258938,0.0435925075121157));
#1265=CARTESIAN_POINT('',(0.0919,-0.0417290035564207,0.0417513774664843));
#1266=CARTESIAN_POINT('',(0.0166,-0.0417290035564207,0.0417513774664843));
#1267=CARTESIAN_POINT('',(0.0166,-0.0436309759411573,0.0426719424893));
#1268=CARTESIAN_POINT('',(0.0166,-0.0473916946776731,0.0444921508988788));
#1269=CARTESIAN_POINT('',(0.0919,-0.0473916946776731,0.0444921508988788));
#1270=CARTESIAN_POINT('',(0.0919,-0.0473916946776731,0.0444921508988788));
#1271=CARTESIAN_POINT('',(0.0919,-0.0436309759411573,0.0426719424893));
#1272=CARTESIAN_POINT('',(0.0919,-0.0455329483258938,0.0435925075121157));
#1273=CARTESIAN_POINT('',(0.0919,-0.0455329483258938,0.0435925075121157));
#1274=CARTESIAN_POINT('',(0.0919,-0.0457613450692564,0.0408724813923746));
#1275=CARTESIAN_POINT('',(0.0166,-0.0457613450692564,0.0408724813923746));
#1276=CARTESIAN_POINT('',(0.0166,-0.0428389889606674,0.0394580450738623));
#1277=CARTESIAN_POINT('',(0.0166,-0.0486837011778453,0.0422869177108868));
#1278=CARTESIAN_POINT('',(0.0919,-0.0428389889606674,0.0394580450738623));
#1279=CARTESIAN_POINT('',(0.0919,-0.0428389889606674,0.0394580450738623));
#1280=CARTESIAN_POINT('',(0.0919,-0.0457613450692564,0.0408724813923746));
#1281=CARTESIAN_POINT('',(0.0919,-0.0486837011778453,0.0422869177108868));
#1282=CARTESIAN_POINT('',(0.0919,-0.0486837011778453,0.0422869177108868));
#1283=CARTESIAN_POINT('',(0.0919,-0.0422839962585441,0.0406047112701734));
#1284=CARTESIAN_POINT('',(0.0166,-0.0422839962585441,0.0406047112701734));
#1285=CARTESIAN_POINT('',(0.0919,-0.0417290035564207,0.0417513774664843));
#1286=CARTESIAN_POINT('',(0.0919,-0.0417290035564207,0.0417513774664843));
#1287=CARTESIAN_POINT('',(0.0919,-0.0422839962585441,0.0406047112701734));
#1288=CARTESIAN_POINT('',(0.0919,-0.0524149473259081,0.0383514389395714));
#1289=CARTESIAN_POINT('',(0.0919,-0.0361897446307344,0.0514468617119057));
#1290=CARTESIAN_POINT('',(0.0919,-0.0306504857050481,0.061142345957327));
#1291=CARTESIAN_POINT('',(0.0919,-0.0324928995306232,0.0620340843121988));
#1292=CARTESIAN_POINT('',(0.0919,-0.0343353133561983,0.0629258226670705));
#1293=CARTESIAN_POINT('',(0.0919,-0.0399341308410461,0.0532591650895931));
#1294=CARTESIAN_POINT('',(0.0919,-0.0480376979277592,0.0433895343048828));
#1295=CARTESIAN_POINT('',(0.0166,-0.0524149473259081,0.0383514389395714));
#1296=CARTESIAN_POINT('',(0.0166,-0.0480376979277592,0.0433895343048828));
#1297=CARTESIAN_POINT('',(0.0919,-0.0361897446307344,0.0514468617119057));
#1298=CARTESIAN_POINT('',(0.022,-0.0361897446307344,0.0514468617119057));
#1299=CARTESIAN_POINT('',(0.022,-0.0306504857050481,0.061142345957327));
#1300=CARTESIAN_POINT('',(0.0919,-0.0306504857050481,0.061142345957327));
#1301=CARTESIAN_POINT('',(0.0919,-0.0324928995306232,0.0620340843121988));
#1302=CARTESIAN_POINT('',(0.022,-0.0324928995306232,0.0620340843121988));
#1303=CARTESIAN_POINT('',(0.022,-0.0343353133561983,0.0629258226670705));
#1304=CARTESIAN_POINT('',(0.0919,-0.0343353133561983,0.0629258226670705));
#1305=CARTESIAN_POINT('',(0.0919,-0.0399341308410461,0.0532591650895931));
#1306=CARTESIAN_POINT('',(0.022,-0.0399341308410461,0.0532591650895931));
#1307=CARTESIAN_POINT('',(0.022,-0.0524149473259081,0.0383514389395714));
#1308=CARTESIAN_POINT('',(0.09765,-0.0323123401579313,0.0702300191185826));
#1309=CARTESIAN_POINT('',(0.0139163937419653,-0.0664734067200257,0.0119229458105954));
#1310=CARTESIAN_POINT('',(0.0139163937419653,-0.0656611678540846,0.0133092980491574));
#1311=CARTESIAN_POINT('',(0.0946921812887836,-0.0664734067200257,0.0119229458105954));
#1312=CARTESIAN_POINT('',(0.0946921812887836,-0.0656611678540846,0.0133092980491574));
#1313=CARTESIAN_POINT('',(0.0976,-0.0323123401579313,0.0702300191185826));
#1314=CARTESIAN_POINT('',(0.09765,-0.028520008517505,0.0767028778791428));
#1315=CARTESIAN_POINT('',(0.09765,-0.028520008517505,0.0767028778791428));
#1316=CARTESIAN_POINT('',(0.09765,-0.0323123401579313,0.0702300191185826));
#1317=CARTESIAN_POINT('',(0.09765,-0.0734588464333271,-6.93889390390723E-18));
#1318=CARTESIAN_POINT('',(0.09765,-0.0734588464333271,-6.93889390390723E-18));
#1319=CARTESIAN_POINT('',(0.011,-0.0734588464333271,-6.93889390390723E-18));
#1320=CARTESIAN_POINT('',(0.011,-0.0323123401579313,0.0702300191185826));
#1321=CARTESIAN_POINT('',(0.09765,-0.0748843662838191,-6.93889390390723E-18));
#1322=CARTESIAN_POINT('',(0.011,-0.0748843662838191,-6.93889390390723E-18));
#1323=CARTESIAN_POINT('',(0.09765,-0.0748843662838191,-6.93889390390723E-18));
#1324=CARTESIAN_POINT('',(0.09765,-0.029945528367997,0.0767028778791428));
#1325=CARTESIAN_POINT('',(0.011,-0.029945528367997,0.0767028778791428));
#1326=CARTESIAN_POINT('',(0.011,-0.0286626098082071,0.0767028778791428));
#1327=CARTESIAN_POINT('',(0.011,-0.029945528367997,0.0767028778791428));
#1328=CARTESIAN_POINT('',(0.09765,-0.029945528367997,0.0767028778791428));
#1329=CARTESIAN_POINT('',(0.09765,-0.0524149473259081,0.0383514389395714));
#1330=CARTESIAN_POINT('',(0.011,-0.0524149473259081,0.0383514389395714));
#1331=CARTESIAN_POINT('',(0.011,-0.00589398364522864,0.0767029449343716));
#1332=CARTESIAN_POINT('',(0.011,-0.0048920400439324,0.0767029449343716));
#1333=CARTESIAN_POINT('',(0.011,-0.00489204004393314,0.0763042233884363));
#1334=CARTESIAN_POINT('',(0.011,-0.00489204004393388,0.075905501842501));
#1335=CARTESIAN_POINT('',(0.011,-0.00589398364522937,0.075905501842501));
#1336=CARTESIAN_POINT('',(0.0976,-0.00589398364522937,0.075905501842501));
#1337=CARTESIAN_POINT('',(0.0976,-0.00489204004393388,0.075905501842501));
#1338=CARTESIAN_POINT('',(0.0976,-0.00489204004393388,0.075905501842501));
#1339=CARTESIAN_POINT('',(0.0976,-0.00589398364522937,0.075905501842501));
#1340=CARTESIAN_POINT('',(0.0976,-0.00489204004393314,0.0763042233884363));
#1341=CARTESIAN_POINT('',(0.0976,-0.0048920400439324,0.0767029449343716));
#1342=CARTESIAN_POINT('',(0.0976,-0.0048920400439324,0.0767029449343716));
#1343=CARTESIAN_POINT('',(0.0976,-0.00489204004393314,0.0763042233884363));
#1344=CARTESIAN_POINT('',(0.0976,-0.00589398364522864,0.0767029449343716));
#1345=CARTESIAN_POINT('',(0.0976,-0.00589398364522864,0.0767029449343716));
#1346=CARTESIAN_POINT('',(0.0976,-0.0391438934464162,0.0383514724671858));
#1347=CARTESIAN_POINT('',(0.0946921812887836,-0.0537553801513539,0.00447168256752388));
#1348=CARTESIAN_POINT('',(0.0139163937419653,-0.0537553801513539,0.00447168256752388));
#1349=CARTESIAN_POINT('',(0.0136721309411349,-0.00909466100711843,0.0517023372593281));
#1350=CARTESIAN_POINT('',(0.0946189738229234,-0.00932278444815575,0.0517022743104634));
#1351=CARTESIAN_POINT('',(0.0528152789920568,-0.037098623094559,0.0623770386151143));
#1352=CARTESIAN_POINT('',(0.0213222242891788,-0.037098623094559,0.0623770386151143));
#1353=CARTESIAN_POINT('',(0.0213222242891788,-0.037098623094559,0.0623770386151143));
#1354=CARTESIAN_POINT('',(0.0528152789920568,-0.037098623094559,0.0623770386151143));
#1355=CARTESIAN_POINT('',(0.0843083336949348,-0.037098623094559,0.0623770386151143));
#1356=CARTESIAN_POINT('',(0.0843083336949348,-0.037098623094559,0.0623770386151143));
#1357=CARTESIAN_POINT('',(0.0213222242891788,-0.0417706148521223,0.0544027511200972));
#1358=CARTESIAN_POINT('',(0.0213222242891788,-0.0464426066096856,0.0464284636250802));
#1359=CARTESIAN_POINT('',(0.0213222242891788,-0.0464426066096856,0.0464284636250802));
#1360=CARTESIAN_POINT('',(0.0213222242891788,-0.0417706148521223,0.0544027511200972));
#1361=CARTESIAN_POINT('',(0.0528152789920568,-0.0464426066096856,0.0464284636250802));
#1362=CARTESIAN_POINT('',(0.0843083336949348,-0.0464426066096856,0.0464284636250802));
#1363=CARTESIAN_POINT('',(0.0843083336949348,-0.0464426066096856,0.0464284636250802));
#1364=CARTESIAN_POINT('',(0.0528152789920568,-0.0464426066096856,0.0464284636250802));
#1365=CARTESIAN_POINT('',(0.0843083336949348,-0.0417706148521223,0.0544027511200972));
#1366=CARTESIAN_POINT('',(0.0843083336949348,-0.0417706148521223,0.0544027511200972));
#1367=CARTESIAN_POINT('',(0.0543000125,-0.0518386966257048,0.0372182647699413));
#1368=CARTESIAN_POINT('',(0.0389398802071809,-0.0125907953336002,0.0717013732900705));
#1369=CARTESIAN_POINT('',(0.0444712154567241,-0.0125907953336002,0.0717013732900705));
#1370=CARTESIAN_POINT('',(0.0334085449576378,-0.0125907953336002,0.0717013732900705));
#1371=CARTESIAN_POINT('',(0.0334085449576378,-0.0158030940658511,0.0717004868815664));
#1372=CARTESIAN_POINT('',(0.0334085449576378,-0.019015392798102,0.0716996004730623));
#1373=CARTESIAN_POINT('',(0.0389398802071809,-0.019015392798102,0.0716996004730623));
#1374=CARTESIAN_POINT('',(0.0444712154567241,-0.019015392798102,0.0716996004730623));
#1375=CARTESIAN_POINT('',(0.0444712154567241,-0.0158030940658511,0.0717004868815664));
#1376=CARTESIAN_POINT('',(0.0530204521492123,-0.00950461029908727,0.116398967935025));
#1377=CARTESIAN_POINT('',(0.0846870988607407,-0.0578449473446441,0.0338903152638695));
#1378=CARTESIAN_POINT('',(0.0846870988607407,-0.0578449473446441,0.0338903152638695));
#1379=CARTESIAN_POINT('',(0.0530204521492123,-0.00950461029908727,0.116398967935025));
#1380=CARTESIAN_POINT('',(0.0213538054376841,-0.0578449473446441,0.0338903152638695));
#1381=CARTESIAN_POINT('',(0.0213538054376841,-0.0578449473446441,0.0338903152638695));
#1382=CARTESIAN_POINT('',(0.0530204521492124,-0.0847935776029625,-0.0121063680412457));
#1383=CARTESIAN_POINT('',(0.0530204521492124,-0.0847935776029625,-0.0121063680412457));
#1384=CARTESIAN_POINT('',(0.053001506254077,-0.00439308371387972,0.12512346588879));
#1385=CARTESIAN_POINT('',(0.0231443755328656,-0.0578449473446441,0.0338903152638695));
#1386=CARTESIAN_POINT('',(0.0231443755328656,-0.0578449473446441,0.0338903152638695));
#1387=CARTESIAN_POINT('',(0.053001506254077,-0.00439308371387972,0.12512346588879));
#1388=CARTESIAN_POINT('',(0.0489151939569829,-0.0598965656346516,0.030388555217296));
#1389=CARTESIAN_POINT('',(0.0489151939569829,-0.0598965656346516,0.030388555217296));
#1390=CARTESIAN_POINT('',(0.053001506254077,-0.0857299899156674,-0.0137046630260975));
#1391=CARTESIAN_POINT('',(0.0828586369752884,-0.0578449473446441,0.0338903152638694));
#1392=CARTESIAN_POINT('',(0.0828586369752884,-0.0578449473446441,0.0338903152638694));
#1393=CARTESIAN_POINT('',(0.053001506254077,-0.0857299899156674,-0.0137046630260975));
#1394=CARTESIAN_POINT('',(0.053001506254077,-0.0043930837138798,0.12512346588879));
#1395=CARTESIAN_POINT('',(0.0554041606604033,-0.0599217100655524,0.0303456379924151));
#1396=CARTESIAN_POINT('',(0.0554041606604033,-0.0599217100655524,0.0303456379924151));
#1397=CARTESIAN_POINT('',(0.053001506254077,-0.0043930837138798,0.12512346588879));
#1398=CARTESIAN_POINT('',(0.0543000125,-0.0548585674485646,0.0389875528225883));
#1399=CARTESIAN_POINT('',(0.0521909780800343,-0.0578449473446441,0.0338903152638694));
#1400=CARTESIAN_POINT('',(0.0521909780800343,-0.0578449473446441,0.0338903152638694));
#1401=CARTESIAN_POINT('',(0.0535003014464669,-0.0599344191492429,0.0303239457693965));
#1402=CARTESIAN_POINT('',(0.0508184440369254,-0.0599240270819998,0.0303416832432971));
#1403=CARTESIAN_POINT('',(0.0530015062540774,-0.00439308371386965,0.125123465888808));
#1404=CARTESIAN_POINT('',(0.0521909780800343,-0.0578449473446441,0.0338903152638694));
#1405=CARTESIAN_POINT('',(0.0521909780800343,-0.0578449473446441,0.0338903152638694));
#1406=CARTESIAN_POINT('',(0.0521909780800343,-0.0568095630625207,0.0332837022172476));
#1407=CARTESIAN_POINT('',(0.0535003014464669,-0.0588990348671195,0.0297173327227746));
#1408=CARTESIAN_POINT('',(0.0508184440369254,-0.0588886427998764,0.0297350701966752));
#1409=CARTESIAN_POINT('',(0.0535003014464669,-0.0599344191492429,0.0303239457693965));
#1410=CARTESIAN_POINT('',(0.0508184440369254,-0.0599240270819998,0.0303416832432971));
#1411=CARTESIAN_POINT('',(0.0530015062540774,-0.00439308371386965,0.125123465888808));
#1412=CARTESIAN_POINT('',(0.0530015062540774,-0.00335769943174628,0.124516852842186));
#1413=CARTESIAN_POINT('',(0.09765,-0.0538404671764002,0.0383514389395714));
#1414=CARTESIAN_POINT('',(0.0202433812139419,-0.0166014570542553,0.08));
#1415=CARTESIAN_POINT('',(0.0202433812139419,-0.0166014570542553,0.08));
#1416=CARTESIAN_POINT('',(0.0233872650317723,-0.0166014570542553,0.08));
#1417=CARTESIAN_POINT('',(0.0202433812139419,-0.0166014570542553,0.08));
#1418=MECHANICAL_DESIGN_GEOMETRIC_PRESENTATION_REPRESENTATION('',(#852,
#12,#13),#1419);
#1419=(
GEOMETRIC_REPRESENTATION_CONTEXT(3)
GLOBAL_UNCERTAINTY_ASSIGNED_CONTEXT((#1420))
GLOBAL_UNIT_ASSIGNED_CONTEXT((#1423,#1422,#1421))
REPRESENTATION_CONTEXT('Part 1','TOP_LEVEL_ASSEMBLY_PART')
);
#1420=UNCERTAINTY_MEASURE_WITH_UNIT(LENGTH_MEASURE(2.8377614844694E-5),
#1423,'DISTANCE_ACCURACY_VALUE','Maximum Tolerance applied to model');
#1421=(
NAMED_UNIT(*)
SI_UNIT($,.STERADIAN.)
SOLID_ANGLE_UNIT()
);
#1422=(
NAMED_UNIT(*)
PLANE_ANGLE_UNIT()
SI_UNIT($,.RADIAN.)
);
#1423=(
LENGTH_UNIT()
NAMED_UNIT(*)
SI_UNIT($,.METRE.)
);
#1424=PRODUCT_DEFINITION_SHAPE('','',#1425);
#1425=PRODUCT_DEFINITION('','',#1427,#1426);
#1426=PRODUCT_DEFINITION_CONTEXT('',#1433,'design');
#1427=PRODUCT_DEFINITION_FORMATION_WITH_SPECIFIED_SOURCE('','',#1429,
 .NOT_KNOWN.);
#1428=PRODUCT_RELATED_PRODUCT_CATEGORY('','',(#1429));
#1429=PRODUCT('Part 1','Part 1','Part 1',(#1431));
#1430=PRODUCT_CATEGORY('','');
#1431=PRODUCT_CONTEXT('',#1433,'mechanical');
#1432=APPLICATION_PROTOCOL_DEFINITION('international standard',
'ap242_managed_model_based_3d_engineering',2020,#1433);
#1433=APPLICATION_CONTEXT('managed model based 3d engineering');
ENDSEC;
END-ISO-10303-21;
