%TF.GenerationSoftware,KiCad,Pcbnew,10.0.6*%
%TF.CreationDate,2026-09-17T21:16:31+02:00*%
%TF.ProjectId,eyeclock,65796563-6c6f-4636-9b2e-6b696361645f,rev?*%
%TF.SameCoordinates,Original*%
%TF.FileFunction,Soldermask,Bot*%
%TF.FilePolarity,Negative*%
%FSLAX46Y46*%
G04 Gerber Fmt 4.6, Leading zero omitted, Abs format (unit mm)*
G04 Created by KiCad (PCBNEW 10.0.6) date 2026-09-17 21:16:31*
%MOMM*%
%LPD*%
G01*
G04 APERTURE LIST*
G04 Aperture macros list*
%AMRoundRect*
0 Rectangle with rounded corners*
0 $1 Rounding radius*
0 $2 $3 $4 $5 $6 $7 $8 $9 X,Y pos of 4 corners*
0 Add a 4 corners polygon primitive as box body*
4,1,4,$2,$3,$4,$5,$6,$7,$8,$9,$2,$3,0*
0 Add four circle primitives for the rounded corners*
1,1,$1+$1,$2,$3*
1,1,$1+$1,$4,$5*
1,1,$1+$1,$6,$7*
1,1,$1+$1,$8,$9*
0 Add four rect primitives between the rounded corners*
20,1,$1+$1,$2,$3,$4,$5,0*
20,1,$1+$1,$4,$5,$6,$7,0*
20,1,$1+$1,$6,$7,$8,$9,0*
20,1,$1+$1,$8,$9,$2,$3,0*%
G04 Aperture macros list end*
%ADD10C,1.700000*%
%ADD11R,1.700000X1.700000*%
%ADD12C,3.200000*%
%ADD13C,4.000000*%
%ADD14C,2.200000*%
%ADD15RoundRect,0.500000X1.000000X0.500000X-1.000000X0.500000X-1.000000X-0.500000X1.000000X-0.500000X0*%
%ADD16RoundRect,0.250000X1.500000X1.500000X-1.500000X1.500000X-1.500000X-1.500000X1.500000X-1.500000X0*%
%ADD17RoundRect,0.250000X0.900000X0.400000X-0.900000X0.400000X-0.900000X-0.400000X0.900000X-0.400000X0*%
%ADD18C,1.300000*%
%ADD19R,2.000000X2.000000*%
%ADD20C,2.000000*%
G04 APERTURE END LIST*
D10*
%TO.C,J1*%
X175580000Y-98000000D03*
X173040000Y-98000000D03*
X170500000Y-98000000D03*
X167960000Y-98000000D03*
X165420000Y-98000000D03*
X162880000Y-98000000D03*
X160340000Y-98000000D03*
D11*
X157800000Y-98000000D03*
%TD*%
D12*
%TO.C,H4*%
X152000000Y-64500000D03*
%TD*%
%TO.C,H1*%
X209702400Y-64617600D03*
%TD*%
%TO.C,H3*%
X152500000Y-127500000D03*
%TD*%
%TO.C,H2*%
X210000000Y-127000000D03*
%TD*%
D10*
%TO.C,SW4*%
X192430400Y-121208800D03*
D13*
X197510400Y-121208800D03*
D10*
X202590400Y-121208800D03*
D14*
X200050400Y-126288800D03*
X193700400Y-123748800D03*
%TD*%
D10*
%TO.C,SW2*%
X192328800Y-69646800D03*
D13*
X197408800Y-69646800D03*
D10*
X202488800Y-69646800D03*
D14*
X199948800Y-74726800D03*
X193598800Y-72186800D03*
%TD*%
D15*
%TO.C,U1*%
X176225200Y-63000000D03*
X176225200Y-65540000D03*
X176225200Y-68080000D03*
X176225200Y-70620000D03*
X176225200Y-73160000D03*
X176225200Y-75700000D03*
X176225200Y-78240000D03*
X159225200Y-78240000D03*
X159225200Y-75700000D03*
X159225200Y-73160000D03*
X159225200Y-70620000D03*
X159225200Y-68080000D03*
X159225200Y-65540000D03*
X159225200Y-63000000D03*
D16*
X165625200Y-71220000D03*
D17*
X172225200Y-70220000D03*
X172225200Y-68320000D03*
D18*
X168995200Y-62000000D03*
X168995200Y-64580000D03*
X168995200Y-67120000D03*
X166455200Y-67120000D03*
X166455200Y-64580000D03*
X166455200Y-62000000D03*
%TD*%
D10*
%TO.C,SW3*%
X192328800Y-86461600D03*
D13*
X197408800Y-86461600D03*
D10*
X202488800Y-86461600D03*
D14*
X199948800Y-91541600D03*
X193598800Y-89001600D03*
%TD*%
D10*
%TO.C,SW1*%
X192430400Y-104038400D03*
D13*
X197510400Y-104038400D03*
D10*
X202590400Y-104038400D03*
D14*
X200050400Y-109118400D03*
X193700400Y-106578400D03*
%TD*%
D19*
%TO.C,BZ1*%
X172200000Y-121500000D03*
D20*
X179800000Y-121500000D03*
%TD*%
M02*
