%TF.GenerationSoftware,KiCad,Pcbnew,10.0.6*%
%TF.CreationDate,2026-09-17T21:16:31+02:00*%
%TF.ProjectId,eyeclock,65796563-6c6f-4636-9b2e-6b696361645f,rev?*%
%TF.SameCoordinates,Original*%
%TF.FileFunction,Legend,Bot*%
%TF.FilePolarity,Positive*%
%FSLAX46Y46*%
G04 Gerber Fmt 4.6, Leading zero omitted, Abs format (unit mm)*
G04 Created by KiCad (PCBNEW 10.0.6) date 2026-09-17 21:16:31*
%MOMM*%
%LPD*%
G01*
G04 APERTURE LIST*
%ADD10C,0.150000*%
%ADD11C,0.120000*%
G04 APERTURE END LIST*
D10*
X157254819Y-97666666D02*
X157969104Y-97666666D01*
X157969104Y-97666666D02*
X158111961Y-97619047D01*
X158111961Y-97619047D02*
X158207200Y-97523809D01*
X158207200Y-97523809D02*
X158254819Y-97380952D01*
X158254819Y-97380952D02*
X158254819Y-97285714D01*
X158254819Y-98666666D02*
X158254819Y-98095238D01*
X158254819Y-98380952D02*
X157254819Y-98380952D01*
X157254819Y-98380952D02*
X157397676Y-98285714D01*
X157397676Y-98285714D02*
X157492914Y-98190476D01*
X157492914Y-98190476D02*
X157540533Y-98095238D01*
X198843732Y-129490000D02*
X198700875Y-129537619D01*
X198700875Y-129537619D02*
X198462780Y-129537619D01*
X198462780Y-129537619D02*
X198367542Y-129490000D01*
X198367542Y-129490000D02*
X198319923Y-129442380D01*
X198319923Y-129442380D02*
X198272304Y-129347142D01*
X198272304Y-129347142D02*
X198272304Y-129251904D01*
X198272304Y-129251904D02*
X198319923Y-129156666D01*
X198319923Y-129156666D02*
X198367542Y-129109047D01*
X198367542Y-129109047D02*
X198462780Y-129061428D01*
X198462780Y-129061428D02*
X198653256Y-129013809D01*
X198653256Y-129013809D02*
X198748494Y-128966190D01*
X198748494Y-128966190D02*
X198796113Y-128918571D01*
X198796113Y-128918571D02*
X198843732Y-128823333D01*
X198843732Y-128823333D02*
X198843732Y-128728095D01*
X198843732Y-128728095D02*
X198796113Y-128632857D01*
X198796113Y-128632857D02*
X198748494Y-128585238D01*
X198748494Y-128585238D02*
X198653256Y-128537619D01*
X198653256Y-128537619D02*
X198415161Y-128537619D01*
X198415161Y-128537619D02*
X198272304Y-128585238D01*
X197938970Y-128537619D02*
X197700875Y-129537619D01*
X197700875Y-129537619D02*
X197510399Y-128823333D01*
X197510399Y-128823333D02*
X197319923Y-129537619D01*
X197319923Y-129537619D02*
X197081828Y-128537619D01*
X196272304Y-128870952D02*
X196272304Y-129537619D01*
X196510399Y-128490000D02*
X196748494Y-129204285D01*
X196748494Y-129204285D02*
X196129447Y-129204285D01*
X198742132Y-77928000D02*
X198599275Y-77975619D01*
X198599275Y-77975619D02*
X198361180Y-77975619D01*
X198361180Y-77975619D02*
X198265942Y-77928000D01*
X198265942Y-77928000D02*
X198218323Y-77880380D01*
X198218323Y-77880380D02*
X198170704Y-77785142D01*
X198170704Y-77785142D02*
X198170704Y-77689904D01*
X198170704Y-77689904D02*
X198218323Y-77594666D01*
X198218323Y-77594666D02*
X198265942Y-77547047D01*
X198265942Y-77547047D02*
X198361180Y-77499428D01*
X198361180Y-77499428D02*
X198551656Y-77451809D01*
X198551656Y-77451809D02*
X198646894Y-77404190D01*
X198646894Y-77404190D02*
X198694513Y-77356571D01*
X198694513Y-77356571D02*
X198742132Y-77261333D01*
X198742132Y-77261333D02*
X198742132Y-77166095D01*
X198742132Y-77166095D02*
X198694513Y-77070857D01*
X198694513Y-77070857D02*
X198646894Y-77023238D01*
X198646894Y-77023238D02*
X198551656Y-76975619D01*
X198551656Y-76975619D02*
X198313561Y-76975619D01*
X198313561Y-76975619D02*
X198170704Y-77023238D01*
X197837370Y-76975619D02*
X197599275Y-77975619D01*
X197599275Y-77975619D02*
X197408799Y-77261333D01*
X197408799Y-77261333D02*
X197218323Y-77975619D01*
X197218323Y-77975619D02*
X196980228Y-76975619D01*
X196646894Y-77070857D02*
X196599275Y-77023238D01*
X196599275Y-77023238D02*
X196504037Y-76975619D01*
X196504037Y-76975619D02*
X196265942Y-76975619D01*
X196265942Y-76975619D02*
X196170704Y-77023238D01*
X196170704Y-77023238D02*
X196123085Y-77070857D01*
X196123085Y-77070857D02*
X196075466Y-77166095D01*
X196075466Y-77166095D02*
X196075466Y-77261333D01*
X196075466Y-77261333D02*
X196123085Y-77404190D01*
X196123085Y-77404190D02*
X196694513Y-77975619D01*
X196694513Y-77975619D02*
X196075466Y-77975619D01*
X161487104Y-58074819D02*
X161487104Y-58884342D01*
X161487104Y-58884342D02*
X161439485Y-58979580D01*
X161439485Y-58979580D02*
X161391866Y-59027200D01*
X161391866Y-59027200D02*
X161296628Y-59074819D01*
X161296628Y-59074819D02*
X161106152Y-59074819D01*
X161106152Y-59074819D02*
X161010914Y-59027200D01*
X161010914Y-59027200D02*
X160963295Y-58979580D01*
X160963295Y-58979580D02*
X160915676Y-58884342D01*
X160915676Y-58884342D02*
X160915676Y-58074819D01*
X159915676Y-59074819D02*
X160487104Y-59074819D01*
X160201390Y-59074819D02*
X160201390Y-58074819D01*
X160201390Y-58074819D02*
X160296628Y-58217676D01*
X160296628Y-58217676D02*
X160391866Y-58312914D01*
X160391866Y-58312914D02*
X160487104Y-58360533D01*
X198742132Y-94742800D02*
X198599275Y-94790419D01*
X198599275Y-94790419D02*
X198361180Y-94790419D01*
X198361180Y-94790419D02*
X198265942Y-94742800D01*
X198265942Y-94742800D02*
X198218323Y-94695180D01*
X198218323Y-94695180D02*
X198170704Y-94599942D01*
X198170704Y-94599942D02*
X198170704Y-94504704D01*
X198170704Y-94504704D02*
X198218323Y-94409466D01*
X198218323Y-94409466D02*
X198265942Y-94361847D01*
X198265942Y-94361847D02*
X198361180Y-94314228D01*
X198361180Y-94314228D02*
X198551656Y-94266609D01*
X198551656Y-94266609D02*
X198646894Y-94218990D01*
X198646894Y-94218990D02*
X198694513Y-94171371D01*
X198694513Y-94171371D02*
X198742132Y-94076133D01*
X198742132Y-94076133D02*
X198742132Y-93980895D01*
X198742132Y-93980895D02*
X198694513Y-93885657D01*
X198694513Y-93885657D02*
X198646894Y-93838038D01*
X198646894Y-93838038D02*
X198551656Y-93790419D01*
X198551656Y-93790419D02*
X198313561Y-93790419D01*
X198313561Y-93790419D02*
X198170704Y-93838038D01*
X197837370Y-93790419D02*
X197599275Y-94790419D01*
X197599275Y-94790419D02*
X197408799Y-94076133D01*
X197408799Y-94076133D02*
X197218323Y-94790419D01*
X197218323Y-94790419D02*
X196980228Y-93790419D01*
X196694513Y-93790419D02*
X196075466Y-93790419D01*
X196075466Y-93790419D02*
X196408799Y-94171371D01*
X196408799Y-94171371D02*
X196265942Y-94171371D01*
X196265942Y-94171371D02*
X196170704Y-94218990D01*
X196170704Y-94218990D02*
X196123085Y-94266609D01*
X196123085Y-94266609D02*
X196075466Y-94361847D01*
X196075466Y-94361847D02*
X196075466Y-94599942D01*
X196075466Y-94599942D02*
X196123085Y-94695180D01*
X196123085Y-94695180D02*
X196170704Y-94742800D01*
X196170704Y-94742800D02*
X196265942Y-94790419D01*
X196265942Y-94790419D02*
X196551656Y-94790419D01*
X196551656Y-94790419D02*
X196646894Y-94742800D01*
X196646894Y-94742800D02*
X196694513Y-94695180D01*
X198843732Y-112319600D02*
X198700875Y-112367219D01*
X198700875Y-112367219D02*
X198462780Y-112367219D01*
X198462780Y-112367219D02*
X198367542Y-112319600D01*
X198367542Y-112319600D02*
X198319923Y-112271980D01*
X198319923Y-112271980D02*
X198272304Y-112176742D01*
X198272304Y-112176742D02*
X198272304Y-112081504D01*
X198272304Y-112081504D02*
X198319923Y-111986266D01*
X198319923Y-111986266D02*
X198367542Y-111938647D01*
X198367542Y-111938647D02*
X198462780Y-111891028D01*
X198462780Y-111891028D02*
X198653256Y-111843409D01*
X198653256Y-111843409D02*
X198748494Y-111795790D01*
X198748494Y-111795790D02*
X198796113Y-111748171D01*
X198796113Y-111748171D02*
X198843732Y-111652933D01*
X198843732Y-111652933D02*
X198843732Y-111557695D01*
X198843732Y-111557695D02*
X198796113Y-111462457D01*
X198796113Y-111462457D02*
X198748494Y-111414838D01*
X198748494Y-111414838D02*
X198653256Y-111367219D01*
X198653256Y-111367219D02*
X198415161Y-111367219D01*
X198415161Y-111367219D02*
X198272304Y-111414838D01*
X197938970Y-111367219D02*
X197700875Y-112367219D01*
X197700875Y-112367219D02*
X197510399Y-111652933D01*
X197510399Y-111652933D02*
X197319923Y-112367219D01*
X197319923Y-112367219D02*
X197081828Y-111367219D01*
X196177066Y-112367219D02*
X196748494Y-112367219D01*
X196462780Y-112367219D02*
X196462780Y-111367219D01*
X196462780Y-111367219D02*
X196558018Y-111510076D01*
X196558018Y-111510076D02*
X196653256Y-111605314D01*
X196653256Y-111605314D02*
X196748494Y-111652933D01*
X176880952Y-128631009D02*
X176738095Y-128678628D01*
X176738095Y-128678628D02*
X176690476Y-128726247D01*
X176690476Y-128726247D02*
X176642857Y-128821485D01*
X176642857Y-128821485D02*
X176642857Y-128964342D01*
X176642857Y-128964342D02*
X176690476Y-129059580D01*
X176690476Y-129059580D02*
X176738095Y-129107200D01*
X176738095Y-129107200D02*
X176833333Y-129154819D01*
X176833333Y-129154819D02*
X177214285Y-129154819D01*
X177214285Y-129154819D02*
X177214285Y-128154819D01*
X177214285Y-128154819D02*
X176880952Y-128154819D01*
X176880952Y-128154819D02*
X176785714Y-128202438D01*
X176785714Y-128202438D02*
X176738095Y-128250057D01*
X176738095Y-128250057D02*
X176690476Y-128345295D01*
X176690476Y-128345295D02*
X176690476Y-128440533D01*
X176690476Y-128440533D02*
X176738095Y-128535771D01*
X176738095Y-128535771D02*
X176785714Y-128583390D01*
X176785714Y-128583390D02*
X176880952Y-128631009D01*
X176880952Y-128631009D02*
X177214285Y-128631009D01*
X176309523Y-128154819D02*
X175642857Y-128154819D01*
X175642857Y-128154819D02*
X176309523Y-129154819D01*
X176309523Y-129154819D02*
X175642857Y-129154819D01*
X174738095Y-129154819D02*
X175309523Y-129154819D01*
X175023809Y-129154819D02*
X175023809Y-128154819D01*
X175023809Y-128154819D02*
X175119047Y-128297676D01*
X175119047Y-128297676D02*
X175214285Y-128392914D01*
X175214285Y-128392914D02*
X175309523Y-128440533D01*
X172570951Y-124113866D02*
X171809047Y-124113866D01*
X172189999Y-124494819D02*
X172189999Y-123732914D01*
%TO.C,SW4*%
D11*
X190525400Y-114223800D02*
X190525400Y-128193800D01*
X190525400Y-128193800D02*
X204495400Y-128193800D01*
X204495400Y-114223800D02*
X190525400Y-114223800D01*
X204495400Y-128193800D02*
X204495400Y-114223800D01*
%TO.C,SW2*%
X190423800Y-62661800D02*
X190423800Y-76631800D01*
X190423800Y-76631800D02*
X204393800Y-76631800D01*
X204393800Y-62661800D02*
X190423800Y-62661800D01*
X204393800Y-76631800D02*
X204393800Y-62661800D01*
%TO.C,U1*%
X161125200Y-60120000D02*
X163725200Y-60120000D01*
X163725200Y-58920000D02*
X163725200Y-60120000D01*
X171725200Y-58920000D02*
X163725200Y-58920000D01*
X171725200Y-60120000D02*
X171725200Y-58920000D01*
X171725200Y-60120000D02*
X174325200Y-60120000D01*
X174425200Y-81120000D02*
X161025200Y-81120000D01*
X158921166Y-61618536D02*
G75*
G02*
X161125200Y-60119999I2139304J-776364D01*
G01*
X161025200Y-81120000D02*
G75*
G02*
X158925196Y-79620001I74110J2323760D01*
G01*
X174325668Y-60120001D02*
G75*
G02*
X176538092Y-61615320I77145J-2270232D01*
G01*
X176525200Y-79620000D02*
G75*
G02*
X174425200Y-81120000I-2174105J823747D01*
G01*
%TO.C,SW3*%
X190423800Y-79476600D02*
X190423800Y-93446600D01*
X190423800Y-93446600D02*
X204393800Y-93446600D01*
X204393800Y-79476600D02*
X190423800Y-79476600D01*
X204393800Y-93446600D02*
X204393800Y-79476600D01*
%TO.C,SW1*%
X190525400Y-97053400D02*
X190525400Y-111023400D01*
X190525400Y-111023400D02*
X204495400Y-111023400D01*
X204495400Y-97053400D02*
X190525400Y-97053400D01*
X204495400Y-111023400D02*
X204495400Y-97053400D01*
%TO.C,BZ1*%
X182100000Y-121500000D02*
G75*
G02*
X169900000Y-121500000I-6100000J0D01*
G01*
X169900000Y-121500000D02*
G75*
G02*
X182100000Y-121500000I6100000J0D01*
G01*
%TD*%
M02*
