%TF.GenerationSoftware,KiCad,Pcbnew,10.0.6*%
%TF.CreationDate,2026-09-17T21:16:31+02:00*%
%TF.ProjectId,eyeclock,65796563-6c6f-4636-9b2e-6b696361645f,rev?*%
%TF.SameCoordinates,Original*%
%TF.FileFunction,Legend,Top*%
%TF.FilePolarity,Positive*%
%FSLAX46Y46*%
G04 Gerber Fmt 4.6, Leading zero omitted, Abs format (unit mm)*
G04 Created by KiCad (PCBNEW 10.0.6) date 2026-09-17 21:16:31*
%MOMM*%
%LPD*%
G01*
G04 APERTURE LIST*
%ADD10C,0.100000*%
%ADD11C,0.318675*%
%ADD12C,0.150000*%
%ADD13C,0.300000*%
%ADD14C,0.120000*%
%ADD15C,0.000000*%
G04 APERTURE END LIST*
D10*
X148742400Y-68122800D02*
X153060400Y-61163200D01*
X148742400Y-72136000D02*
X157378400Y-60299600D01*
X148742400Y-75539600D02*
X160274000Y-61264800D01*
X148742400Y-78725383D02*
X163457466Y-61264800D01*
X148742400Y-78725383D02*
X166725600Y-61010800D01*
X153060400Y-61163200D02*
X148031200Y-64643000D01*
X157378400Y-60299600D02*
X148742400Y-68122800D01*
X160274000Y-61264800D02*
X148742400Y-72136000D01*
X163457466Y-61264800D02*
X148742400Y-75539600D01*
X166635187Y-131573612D02*
G75*
G02*
X148590000Y-110845600I7315213J24587212D01*
G01*
X195326000Y-60045600D02*
G75*
G02*
X213371187Y-80773612I-7315200J-24587200D01*
G01*
X213412412Y-113577613D02*
G75*
G02*
X192684400Y-131622800I-24587212J7315213D01*
G01*
D11*
X153623054Y-110009030D02*
X153623054Y-107459630D01*
X153623054Y-107459630D02*
X154230054Y-107459630D01*
X154230054Y-107459630D02*
X154594254Y-107581030D01*
X154594254Y-107581030D02*
X154837054Y-107823830D01*
X154837054Y-107823830D02*
X154958454Y-108066630D01*
X154958454Y-108066630D02*
X155079854Y-108552230D01*
X155079854Y-108552230D02*
X155079854Y-108916430D01*
X155079854Y-108916430D02*
X154958454Y-109402030D01*
X154958454Y-109402030D02*
X154837054Y-109644830D01*
X154837054Y-109644830D02*
X154594254Y-109887630D01*
X154594254Y-109887630D02*
X154230054Y-110009030D01*
X154230054Y-110009030D02*
X153623054Y-110009030D01*
X157265054Y-110009030D02*
X157265054Y-108673630D01*
X157265054Y-108673630D02*
X157143654Y-108430830D01*
X157143654Y-108430830D02*
X156900854Y-108309430D01*
X156900854Y-108309430D02*
X156415254Y-108309430D01*
X156415254Y-108309430D02*
X156172454Y-108430830D01*
X157265054Y-109887630D02*
X157022254Y-110009030D01*
X157022254Y-110009030D02*
X156415254Y-110009030D01*
X156415254Y-110009030D02*
X156172454Y-109887630D01*
X156172454Y-109887630D02*
X156051054Y-109644830D01*
X156051054Y-109644830D02*
X156051054Y-109402030D01*
X156051054Y-109402030D02*
X156172454Y-109159230D01*
X156172454Y-109159230D02*
X156415254Y-109037830D01*
X156415254Y-109037830D02*
X157022254Y-109037830D01*
X157022254Y-109037830D02*
X157265054Y-108916430D01*
X158843254Y-110009030D02*
X158600454Y-109887630D01*
X158600454Y-109887630D02*
X158479054Y-109644830D01*
X158479054Y-109644830D02*
X158479054Y-107459630D01*
X159814454Y-110009030D02*
X159814454Y-108309430D01*
X159814454Y-107459630D02*
X159693054Y-107581030D01*
X159693054Y-107581030D02*
X159814454Y-107702430D01*
X159814454Y-107702430D02*
X159935854Y-107581030D01*
X159935854Y-107581030D02*
X159814454Y-107459630D01*
X159814454Y-107459630D02*
X159814454Y-107702430D01*
X163456454Y-108795030D02*
X163456454Y-110009030D01*
X162606654Y-107459630D02*
X163456454Y-108795030D01*
X163456454Y-108795030D02*
X164306254Y-107459630D01*
X165520254Y-110009030D02*
X165277454Y-109887630D01*
X165277454Y-109887630D02*
X165156054Y-109766230D01*
X165156054Y-109766230D02*
X165034654Y-109523430D01*
X165034654Y-109523430D02*
X165034654Y-108795030D01*
X165034654Y-108795030D02*
X165156054Y-108552230D01*
X165156054Y-108552230D02*
X165277454Y-108430830D01*
X165277454Y-108430830D02*
X165520254Y-108309430D01*
X165520254Y-108309430D02*
X165884454Y-108309430D01*
X165884454Y-108309430D02*
X166127254Y-108430830D01*
X166127254Y-108430830D02*
X166248654Y-108552230D01*
X166248654Y-108552230D02*
X166370054Y-108795030D01*
X166370054Y-108795030D02*
X166370054Y-109523430D01*
X166370054Y-109523430D02*
X166248654Y-109766230D01*
X166248654Y-109766230D02*
X166127254Y-109887630D01*
X166127254Y-109887630D02*
X165884454Y-110009030D01*
X165884454Y-110009030D02*
X165520254Y-110009030D01*
X168555254Y-108309430D02*
X168555254Y-110009030D01*
X167462654Y-108309430D02*
X167462654Y-109644830D01*
X167462654Y-109644830D02*
X167584054Y-109887630D01*
X167584054Y-109887630D02*
X167826854Y-110009030D01*
X167826854Y-110009030D02*
X168191054Y-110009030D01*
X168191054Y-110009030D02*
X168433854Y-109887630D01*
X168433854Y-109887630D02*
X168555254Y-109766230D01*
X170861854Y-109887630D02*
X170619054Y-110009030D01*
X170619054Y-110009030D02*
X170133454Y-110009030D01*
X170133454Y-110009030D02*
X169890654Y-109887630D01*
X169890654Y-109887630D02*
X169769254Y-109766230D01*
X169769254Y-109766230D02*
X169647854Y-109523430D01*
X169647854Y-109523430D02*
X169647854Y-108795030D01*
X169647854Y-108795030D02*
X169769254Y-108552230D01*
X169769254Y-108552230D02*
X169890654Y-108430830D01*
X169890654Y-108430830D02*
X170133454Y-108309430D01*
X170133454Y-108309430D02*
X170619054Y-108309430D01*
X170619054Y-108309430D02*
X170861854Y-108430830D01*
X172925654Y-109887630D02*
X172682854Y-110009030D01*
X172682854Y-110009030D02*
X172197254Y-110009030D01*
X172197254Y-110009030D02*
X171954454Y-109887630D01*
X171954454Y-109887630D02*
X171833054Y-109644830D01*
X171833054Y-109644830D02*
X171833054Y-108673630D01*
X171833054Y-108673630D02*
X171954454Y-108430830D01*
X171954454Y-108430830D02*
X172197254Y-108309430D01*
X172197254Y-108309430D02*
X172682854Y-108309430D01*
X172682854Y-108309430D02*
X172925654Y-108430830D01*
X172925654Y-108430830D02*
X173047054Y-108673630D01*
X173047054Y-108673630D02*
X173047054Y-108916430D01*
X173047054Y-108916430D02*
X171833054Y-109159230D01*
X173775454Y-108309430D02*
X174746654Y-108309430D01*
X174139654Y-110009030D02*
X174139654Y-107823830D01*
X174139654Y-107823830D02*
X174261054Y-107581030D01*
X174261054Y-107581030D02*
X174503854Y-107459630D01*
X174503854Y-107459630D02*
X174746654Y-107459630D01*
X177538854Y-110009030D02*
X177538854Y-107459630D01*
X178510054Y-108309430D02*
X179117054Y-110009030D01*
X179724054Y-108309430D02*
X179117054Y-110009030D01*
X179117054Y-110009030D02*
X178874254Y-110616030D01*
X178874254Y-110616030D02*
X178752854Y-110737430D01*
X178752854Y-110737430D02*
X178510054Y-110858830D01*
X181787854Y-110009030D02*
X181787854Y-108673630D01*
X181787854Y-108673630D02*
X181666454Y-108430830D01*
X181666454Y-108430830D02*
X181423654Y-108309430D01*
X181423654Y-108309430D02*
X180938054Y-108309430D01*
X180938054Y-108309430D02*
X180695254Y-108430830D01*
X181787854Y-109887630D02*
X181545054Y-110009030D01*
X181545054Y-110009030D02*
X180938054Y-110009030D01*
X180938054Y-110009030D02*
X180695254Y-109887630D01*
X180695254Y-109887630D02*
X180573854Y-109644830D01*
X180573854Y-109644830D02*
X180573854Y-109402030D01*
X180573854Y-109402030D02*
X180695254Y-109159230D01*
X180695254Y-109159230D02*
X180938054Y-109037830D01*
X180938054Y-109037830D02*
X181545054Y-109037830D01*
X181545054Y-109037830D02*
X181787854Y-108916430D01*
X184094454Y-110009030D02*
X184094454Y-107459630D01*
X184094454Y-109887630D02*
X183851654Y-110009030D01*
X183851654Y-110009030D02*
X183366054Y-110009030D01*
X183366054Y-110009030D02*
X183123254Y-109887630D01*
X183123254Y-109887630D02*
X183001854Y-109766230D01*
X183001854Y-109766230D02*
X182880454Y-109523430D01*
X182880454Y-109523430D02*
X182880454Y-108795030D01*
X182880454Y-108795030D02*
X183001854Y-108552230D01*
X183001854Y-108552230D02*
X183123254Y-108430830D01*
X183123254Y-108430830D02*
X183366054Y-108309430D01*
X183366054Y-108309430D02*
X183851654Y-108309430D01*
X183851654Y-108309430D02*
X184094454Y-108430830D01*
D12*
X151238095Y-60804819D02*
X151238095Y-59804819D01*
X151238095Y-60281009D02*
X151809523Y-60281009D01*
X151809523Y-60804819D02*
X151809523Y-59804819D01*
X152714285Y-60138152D02*
X152714285Y-60804819D01*
X152476190Y-59757200D02*
X152238095Y-60471485D01*
X152238095Y-60471485D02*
X152857142Y-60471485D01*
D13*
X179882172Y-123252557D02*
X179739315Y-123181128D01*
X179739315Y-123181128D02*
X179525029Y-123181128D01*
X179525029Y-123181128D02*
X179310743Y-123252557D01*
X179310743Y-123252557D02*
X179167886Y-123395414D01*
X179167886Y-123395414D02*
X179096457Y-123538271D01*
X179096457Y-123538271D02*
X179025029Y-123823985D01*
X179025029Y-123823985D02*
X179025029Y-124038271D01*
X179025029Y-124038271D02*
X179096457Y-124323985D01*
X179096457Y-124323985D02*
X179167886Y-124466842D01*
X179167886Y-124466842D02*
X179310743Y-124609700D01*
X179310743Y-124609700D02*
X179525029Y-124681128D01*
X179525029Y-124681128D02*
X179667886Y-124681128D01*
X179667886Y-124681128D02*
X179882172Y-124609700D01*
X179882172Y-124609700D02*
X179953600Y-124538271D01*
X179953600Y-124538271D02*
X179953600Y-124038271D01*
X179953600Y-124038271D02*
X179667886Y-124038271D01*
X180810743Y-123181128D02*
X180810743Y-123538271D01*
X180453600Y-123395414D02*
X180810743Y-123538271D01*
X180810743Y-123538271D02*
X181167886Y-123395414D01*
X180596457Y-123823985D02*
X180810743Y-123538271D01*
X180810743Y-123538271D02*
X181025029Y-123823985D01*
X181953600Y-123181128D02*
X181953600Y-123538271D01*
X181596457Y-123395414D02*
X181953600Y-123538271D01*
X181953600Y-123538271D02*
X182310743Y-123395414D01*
X181739314Y-123823985D02*
X181953600Y-123538271D01*
X181953600Y-123538271D02*
X182167886Y-123823985D01*
X183096457Y-123181128D02*
X183096457Y-123538271D01*
X182739314Y-123395414D02*
X183096457Y-123538271D01*
X183096457Y-123538271D02*
X183453600Y-123395414D01*
X182882171Y-123823985D02*
X183096457Y-123538271D01*
X183096457Y-123538271D02*
X183310743Y-123823985D01*
D12*
X208940495Y-60922419D02*
X208940495Y-59922419D01*
X208940495Y-60398609D02*
X209511923Y-60398609D01*
X209511923Y-60922419D02*
X209511923Y-59922419D01*
X210511923Y-60922419D02*
X209940495Y-60922419D01*
X210226209Y-60922419D02*
X210226209Y-59922419D01*
X210226209Y-59922419D02*
X210130971Y-60065276D01*
X210130971Y-60065276D02*
X210035733Y-60160514D01*
X210035733Y-60160514D02*
X209940495Y-60208133D01*
D13*
X183234972Y-88962557D02*
X183092115Y-88891128D01*
X183092115Y-88891128D02*
X182877829Y-88891128D01*
X182877829Y-88891128D02*
X182663543Y-88962557D01*
X182663543Y-88962557D02*
X182520686Y-89105414D01*
X182520686Y-89105414D02*
X182449257Y-89248271D01*
X182449257Y-89248271D02*
X182377829Y-89533985D01*
X182377829Y-89533985D02*
X182377829Y-89748271D01*
X182377829Y-89748271D02*
X182449257Y-90033985D01*
X182449257Y-90033985D02*
X182520686Y-90176842D01*
X182520686Y-90176842D02*
X182663543Y-90319700D01*
X182663543Y-90319700D02*
X182877829Y-90391128D01*
X182877829Y-90391128D02*
X183020686Y-90391128D01*
X183020686Y-90391128D02*
X183234972Y-90319700D01*
X183234972Y-90319700D02*
X183306400Y-90248271D01*
X183306400Y-90248271D02*
X183306400Y-89748271D01*
X183306400Y-89748271D02*
X183020686Y-89748271D01*
X184163543Y-88891128D02*
X184163543Y-89248271D01*
X183806400Y-89105414D02*
X184163543Y-89248271D01*
X184163543Y-89248271D02*
X184520686Y-89105414D01*
X183949257Y-89533985D02*
X184163543Y-89248271D01*
X184163543Y-89248271D02*
X184377829Y-89533985D01*
X185306400Y-88891128D02*
X185306400Y-89248271D01*
X184949257Y-89105414D02*
X185306400Y-89248271D01*
X185306400Y-89248271D02*
X185663543Y-89105414D01*
X185092114Y-89533985D02*
X185306400Y-89248271D01*
X185306400Y-89248271D02*
X185520686Y-89533985D01*
X186449257Y-88891128D02*
X186449257Y-89248271D01*
X186092114Y-89105414D02*
X186449257Y-89248271D01*
X186449257Y-89248271D02*
X186806400Y-89105414D01*
X186234971Y-89533985D02*
X186449257Y-89248271D01*
X186449257Y-89248271D02*
X186663543Y-89533985D01*
X166115372Y-79462957D02*
X165972515Y-79391528D01*
X165972515Y-79391528D02*
X165758229Y-79391528D01*
X165758229Y-79391528D02*
X165543943Y-79462957D01*
X165543943Y-79462957D02*
X165401086Y-79605814D01*
X165401086Y-79605814D02*
X165329657Y-79748671D01*
X165329657Y-79748671D02*
X165258229Y-80034385D01*
X165258229Y-80034385D02*
X165258229Y-80248671D01*
X165258229Y-80248671D02*
X165329657Y-80534385D01*
X165329657Y-80534385D02*
X165401086Y-80677242D01*
X165401086Y-80677242D02*
X165543943Y-80820100D01*
X165543943Y-80820100D02*
X165758229Y-80891528D01*
X165758229Y-80891528D02*
X165901086Y-80891528D01*
X165901086Y-80891528D02*
X166115372Y-80820100D01*
X166115372Y-80820100D02*
X166186800Y-80748671D01*
X166186800Y-80748671D02*
X166186800Y-80248671D01*
X166186800Y-80248671D02*
X165901086Y-80248671D01*
X167043943Y-79391528D02*
X167043943Y-79748671D01*
X166686800Y-79605814D02*
X167043943Y-79748671D01*
X167043943Y-79748671D02*
X167401086Y-79605814D01*
X166829657Y-80034385D02*
X167043943Y-79748671D01*
X167043943Y-79748671D02*
X167258229Y-80034385D01*
X168186800Y-79391528D02*
X168186800Y-79748671D01*
X167829657Y-79605814D02*
X168186800Y-79748671D01*
X168186800Y-79748671D02*
X168543943Y-79605814D01*
X167972514Y-80034385D02*
X168186800Y-79748671D01*
X168186800Y-79748671D02*
X168401086Y-80034385D01*
X169329657Y-79391528D02*
X169329657Y-79748671D01*
X168972514Y-79605814D02*
X169329657Y-79748671D01*
X169329657Y-79748671D02*
X169686800Y-79605814D01*
X169115371Y-80034385D02*
X169329657Y-79748671D01*
X169329657Y-79748671D02*
X169543943Y-80034385D01*
D12*
X151738095Y-123804819D02*
X151738095Y-122804819D01*
X151738095Y-123281009D02*
X152309523Y-123281009D01*
X152309523Y-123804819D02*
X152309523Y-122804819D01*
X152690476Y-122804819D02*
X153309523Y-122804819D01*
X153309523Y-122804819D02*
X152976190Y-123185771D01*
X152976190Y-123185771D02*
X153119047Y-123185771D01*
X153119047Y-123185771D02*
X153214285Y-123233390D01*
X153214285Y-123233390D02*
X153261904Y-123281009D01*
X153261904Y-123281009D02*
X153309523Y-123376247D01*
X153309523Y-123376247D02*
X153309523Y-123614342D01*
X153309523Y-123614342D02*
X153261904Y-123709580D01*
X153261904Y-123709580D02*
X153214285Y-123757200D01*
X153214285Y-123757200D02*
X153119047Y-123804819D01*
X153119047Y-123804819D02*
X152833333Y-123804819D01*
X152833333Y-123804819D02*
X152738095Y-123757200D01*
X152738095Y-123757200D02*
X152690476Y-123709580D01*
X209238095Y-123304819D02*
X209238095Y-122304819D01*
X209238095Y-122781009D02*
X209809523Y-122781009D01*
X209809523Y-123304819D02*
X209809523Y-122304819D01*
X210238095Y-122400057D02*
X210285714Y-122352438D01*
X210285714Y-122352438D02*
X210380952Y-122304819D01*
X210380952Y-122304819D02*
X210619047Y-122304819D01*
X210619047Y-122304819D02*
X210714285Y-122352438D01*
X210714285Y-122352438D02*
X210761904Y-122400057D01*
X210761904Y-122400057D02*
X210809523Y-122495295D01*
X210809523Y-122495295D02*
X210809523Y-122590533D01*
X210809523Y-122590533D02*
X210761904Y-122733390D01*
X210761904Y-122733390D02*
X210190476Y-123304819D01*
X210190476Y-123304819D02*
X210809523Y-123304819D01*
%TO.C,J1*%
D14*
X176910000Y-99330000D02*
X176910000Y-96670000D01*
X159070000Y-99330000D02*
X176910000Y-99330000D01*
X159070000Y-99330000D02*
X159070000Y-96670000D01*
X159070000Y-96670000D02*
X176910000Y-96670000D01*
X156470000Y-98000000D02*
X156470000Y-96670000D01*
X156470000Y-96670000D02*
X157800000Y-96670000D01*
D15*
%TO.C,G\u002A\u002A\u002A*%
G36*
X195040245Y-122207285D02*
G01*
X195133708Y-122383390D01*
X195037622Y-122633656D01*
X194923593Y-122767291D01*
X194677485Y-122982707D01*
X194517578Y-123011629D01*
X194392771Y-122846794D01*
X194324813Y-122682182D01*
X194257089Y-122382330D01*
X194352037Y-122213079D01*
X194632699Y-122146235D01*
X194766410Y-122141862D01*
X195040245Y-122207285D01*
G37*
G36*
X195305048Y-123630203D02*
G01*
X195631822Y-123722123D01*
X195766064Y-123902135D01*
X195702758Y-124132580D01*
X195436890Y-124375801D01*
X195406851Y-124394603D01*
X195074731Y-124572064D01*
X194874711Y-124596632D01*
X194765500Y-124460026D01*
X194719854Y-124256800D01*
X194722054Y-123889274D01*
X194877588Y-123684031D01*
X195201768Y-123624673D01*
X195305048Y-123630203D01*
G37*
G36*
X173501325Y-121631864D02*
G01*
X173496577Y-121979547D01*
X173471514Y-122246095D01*
X173392098Y-122930355D01*
X173014733Y-122930355D01*
X172741444Y-122904949D01*
X172584383Y-122843128D01*
X172579397Y-122836556D01*
X172612290Y-122713147D01*
X172737143Y-122462665D01*
X172919135Y-122144859D01*
X173123445Y-121819477D01*
X173315254Y-121546268D01*
X173374525Y-121472207D01*
X173459547Y-121454022D01*
X173501325Y-121631864D01*
G37*
G36*
X170071278Y-116633834D02*
G01*
X171621278Y-116873242D01*
X173276714Y-117258814D01*
X175019194Y-117786379D01*
X176830324Y-118451764D01*
X178381377Y-119109693D01*
X179200169Y-119475423D01*
X179858548Y-119762182D01*
X180400548Y-119986795D01*
X180870204Y-120166084D01*
X181311550Y-120316875D01*
X181768621Y-120455990D01*
X182276044Y-120597699D01*
X182970933Y-120780623D01*
X183572288Y-120921156D01*
X184128542Y-121024712D01*
X184688128Y-121096705D01*
X185299478Y-121142551D01*
X186011024Y-121167663D01*
X186871201Y-121177456D01*
X187468933Y-121178241D01*
X188330620Y-121175584D01*
X189013480Y-121166928D01*
X189564447Y-121148634D01*
X190030461Y-121117064D01*
X190458458Y-121068577D01*
X190895375Y-120999537D01*
X191388149Y-120906303D01*
X191645822Y-120854429D01*
X193160266Y-120507957D01*
X194582907Y-120096692D01*
X195982077Y-119596799D01*
X197426106Y-118984442D01*
X198588488Y-118432685D01*
X199126770Y-118167497D01*
X199593728Y-117938018D01*
X199951680Y-117762722D01*
X200162944Y-117660082D01*
X200201158Y-117642058D01*
X200180898Y-117723463D01*
X200069943Y-117973415D01*
X199883190Y-118360896D01*
X199635537Y-118854888D01*
X199382714Y-119346051D01*
X199087278Y-119917764D01*
X198832091Y-120419330D01*
X198634064Y-120816874D01*
X198510110Y-121076520D01*
X198475599Y-121163015D01*
X198582497Y-121186846D01*
X198879238Y-121207489D01*
X199329898Y-121223610D01*
X199898550Y-121233881D01*
X200473300Y-121237022D01*
X202471001Y-121237022D01*
X202081967Y-121640383D01*
X201778232Y-121930232D01*
X201329062Y-122326030D01*
X200770056Y-122798808D01*
X200136813Y-123319603D01*
X199464933Y-123859446D01*
X198790017Y-124389374D01*
X198147663Y-124880418D01*
X197628933Y-125263638D01*
X195849571Y-126488633D01*
X194156979Y-127525454D01*
X192530690Y-128384611D01*
X190950238Y-129076616D01*
X189395157Y-129611981D01*
X188880044Y-129757138D01*
X187847934Y-129961427D01*
X186620453Y-130078351D01*
X185210715Y-130107202D01*
X183631834Y-130047272D01*
X183574266Y-130043596D01*
X181909207Y-129899864D01*
X180276717Y-129681763D01*
X178623783Y-129379261D01*
X176897394Y-128982326D01*
X175044540Y-128480924D01*
X174543155Y-128334464D01*
X173826556Y-128123526D01*
X173031608Y-127891483D01*
X172259686Y-127667829D01*
X171664488Y-127496964D01*
X171023696Y-127314104D01*
X170370246Y-127127427D01*
X177974368Y-127127427D01*
X178021936Y-127250492D01*
X178035862Y-127268325D01*
X178266999Y-127418225D01*
X178412541Y-127445911D01*
X178647490Y-127354079D01*
X178935599Y-127114618D01*
X179228537Y-126781579D01*
X179477972Y-126409014D01*
X179622750Y-126092471D01*
X179744157Y-125812968D01*
X179869839Y-125653747D01*
X179908021Y-125639689D01*
X180000105Y-125742148D01*
X180102781Y-126012479D01*
X180184623Y-126345244D01*
X180278603Y-126799816D01*
X180373614Y-127233505D01*
X180429171Y-127470395D01*
X180595693Y-127848534D01*
X180841615Y-128068673D01*
X181121750Y-128114924D01*
X181390915Y-127971399D01*
X181493769Y-127844735D01*
X181602411Y-127557152D01*
X181605477Y-127164609D01*
X181499467Y-126638634D01*
X181280882Y-125950756D01*
X181250588Y-125866124D01*
X181095892Y-125437763D01*
X184379144Y-125437763D01*
X184382372Y-126049871D01*
X184433489Y-126643753D01*
X184529945Y-127144709D01*
X184627280Y-127408337D01*
X184979323Y-127866645D01*
X185446749Y-128152511D01*
X185983950Y-128251787D01*
X186545319Y-128150328D01*
X186740761Y-128063901D01*
X186974945Y-127897766D01*
X187064701Y-127668552D01*
X187073822Y-127486449D01*
X187073822Y-127081229D01*
X186475256Y-127156015D01*
X186100214Y-127187649D01*
X185872579Y-127156386D01*
X185719798Y-127050243D01*
X185699540Y-127027911D01*
X185447150Y-126668549D01*
X185304926Y-126262181D01*
X185249469Y-125733144D01*
X185246354Y-125562457D01*
X185258254Y-125126049D01*
X185311126Y-124845105D01*
X185421427Y-124650646D01*
X185478858Y-124588035D01*
X185660793Y-124438531D01*
X185841894Y-124414394D01*
X186111839Y-124494551D01*
X186399734Y-124571212D01*
X186600926Y-124576323D01*
X186621608Y-124567651D01*
X186737572Y-124388736D01*
X186697842Y-124138363D01*
X186538282Y-123864576D01*
X186395913Y-123718916D01*
X187450089Y-123718916D01*
X187453338Y-124172133D01*
X187510391Y-124710185D01*
X187580805Y-125303750D01*
X187658389Y-125908287D01*
X187736953Y-126479255D01*
X187810305Y-126972114D01*
X187872255Y-127342322D01*
X187916611Y-127545338D01*
X187925109Y-127566277D01*
X188100061Y-127650338D01*
X188451926Y-127663604D01*
X188943839Y-127607908D01*
X189534177Y-127486252D01*
X190132290Y-127303752D01*
X190511260Y-127101572D01*
X190677145Y-126876125D01*
X190686266Y-126803982D01*
X190615023Y-126643114D01*
X190388171Y-126571949D01*
X189986028Y-126587961D01*
X189546248Y-126657788D01*
X189152936Y-126723230D01*
X188854563Y-126756459D01*
X188712274Y-126750807D01*
X188709960Y-126749012D01*
X188678472Y-126620327D01*
X188636305Y-126314839D01*
X188589409Y-125880910D01*
X188551403Y-125460792D01*
X188494511Y-124904396D01*
X188422729Y-124384996D01*
X188346697Y-123972708D01*
X188297559Y-123788036D01*
X188103704Y-123383267D01*
X188022869Y-123307708D01*
X190062546Y-123307708D01*
X190140801Y-123738462D01*
X190290656Y-124324147D01*
X190527850Y-125106412D01*
X190765137Y-125689374D01*
X191023434Y-126098545D01*
X191323658Y-126359437D01*
X191686725Y-126497563D01*
X192105921Y-126538280D01*
X192497795Y-126490304D01*
X192779934Y-126313584D01*
X192814173Y-126278654D01*
X193056722Y-125938160D01*
X193195490Y-125523563D01*
X193232555Y-125002726D01*
X193169993Y-124343514D01*
X193009882Y-123513790D01*
X192996660Y-123455435D01*
X192817395Y-122887054D01*
X192588120Y-122522401D01*
X192314705Y-122370123D01*
X192256821Y-122365911D01*
X192081401Y-122428827D01*
X191991784Y-122632227D01*
X191985304Y-122998090D01*
X192059296Y-123548394D01*
X192091809Y-123726623D01*
X192218386Y-124503811D01*
X192263374Y-125082488D01*
X192225780Y-125475046D01*
X192104615Y-125693874D01*
X191929789Y-125752577D01*
X191768108Y-125722458D01*
X191633307Y-125610309D01*
X191508747Y-125383441D01*
X191377789Y-125009166D01*
X191223795Y-124454795D01*
X191177092Y-124273845D01*
X190979362Y-123582631D01*
X190790594Y-123102936D01*
X190602961Y-122821129D01*
X190408635Y-122723577D01*
X190297996Y-122742776D01*
X190140983Y-122844301D01*
X190062553Y-123021133D01*
X190062546Y-123307708D01*
X188022869Y-123307708D01*
X187893622Y-123186896D01*
X187695720Y-123185996D01*
X187538407Y-123367645D01*
X187450089Y-123718916D01*
X186395913Y-123718916D01*
X186294756Y-123615420D01*
X186003127Y-123438942D01*
X185736500Y-123381911D01*
X185336809Y-123487086D01*
X184956906Y-123774964D01*
X184643436Y-124204073D01*
X184526556Y-124457669D01*
X184426355Y-124882129D01*
X184379144Y-125437763D01*
X181095892Y-125437763D01*
X180985833Y-125133003D01*
X181360084Y-124737235D01*
X181759161Y-124279559D01*
X181997401Y-123910358D01*
X182098944Y-123588648D01*
X182106711Y-123469681D01*
X182042008Y-123221505D01*
X181854784Y-123152612D01*
X181555361Y-123259724D01*
X181154063Y-123539565D01*
X180752044Y-123899665D01*
X180244044Y-124391322D01*
X180280840Y-123425201D01*
X180278072Y-122817048D01*
X180207657Y-122401047D01*
X180057905Y-122150616D01*
X179940185Y-122096130D01*
X193431649Y-122096130D01*
X193439631Y-122269460D01*
X193513494Y-122637182D01*
X193648109Y-123179368D01*
X193838352Y-123876088D01*
X194079096Y-124707414D01*
X194248768Y-125272800D01*
X194391906Y-125389634D01*
X194688395Y-125397954D01*
X195096071Y-125302155D01*
X195497404Y-125142665D01*
X195995800Y-124853673D01*
X196297278Y-124526412D01*
X196430698Y-124123282D01*
X196443599Y-123909948D01*
X196400270Y-123570595D01*
X196238255Y-123283283D01*
X196066125Y-123094747D01*
X195818182Y-122795045D01*
X195770855Y-122593172D01*
X195782174Y-122569814D01*
X195874605Y-122234044D01*
X195809351Y-121840189D01*
X195635389Y-121522017D01*
X195436287Y-121317566D01*
X195217660Y-121251423D01*
X194958090Y-121270268D01*
X194610011Y-121361213D01*
X194214274Y-121528507D01*
X193839293Y-121735136D01*
X193553480Y-121944086D01*
X193431649Y-122096130D01*
X179940185Y-122096130D01*
X179817127Y-122039173D01*
X179666075Y-122027244D01*
X179472374Y-122065414D01*
X179334280Y-122202837D01*
X179237574Y-122473880D01*
X179168038Y-122912913D01*
X179128974Y-123325466D01*
X179028470Y-124174314D01*
X178860161Y-124909097D01*
X178594989Y-125633908D01*
X178319788Y-126224103D01*
X178110735Y-126660423D01*
X177999782Y-126946134D01*
X177974368Y-127127427D01*
X170370246Y-127127427D01*
X170348519Y-127121220D01*
X169729847Y-126944287D01*
X169350266Y-126835579D01*
X168849290Y-126700308D01*
X168212218Y-126540350D01*
X167524098Y-126376530D01*
X166923155Y-126241203D01*
X166340499Y-126119815D01*
X165845111Y-126033365D01*
X165374735Y-125976101D01*
X164867119Y-125942273D01*
X164260009Y-125926127D01*
X163491150Y-125921913D01*
X163467360Y-125921911D01*
X161479121Y-125921911D01*
X161767166Y-124846473D01*
X170617226Y-124846473D01*
X170724814Y-125083064D01*
X170895546Y-125166853D01*
X171131903Y-125133298D01*
X171388502Y-124948665D01*
X171697137Y-124588125D01*
X171779950Y-124476157D01*
X171947587Y-124280246D01*
X172125016Y-124207205D01*
X172406745Y-124225483D01*
X172491669Y-124238555D01*
X172792788Y-124304331D01*
X172910441Y-124389503D01*
X172897406Y-124497991D01*
X172779277Y-124846443D01*
X172690217Y-125236656D01*
X172645805Y-125583154D01*
X172660519Y-125797690D01*
X172819623Y-125951895D01*
X173077713Y-125956632D01*
X173372977Y-125820922D01*
X173549752Y-125667911D01*
X173759172Y-125347904D01*
X173947679Y-124850829D01*
X174008781Y-124605819D01*
X175005600Y-124605819D01*
X175011919Y-124948994D01*
X175039468Y-125450180D01*
X175085535Y-125792054D01*
X175166877Y-126041072D01*
X175300249Y-126263694D01*
X175365691Y-126352092D01*
X175755798Y-126726451D01*
X176198006Y-126929163D01*
X176645077Y-126948898D01*
X177049772Y-126774325D01*
X177067931Y-126760384D01*
X177298573Y-126484932D01*
X177346768Y-126208286D01*
X177225479Y-125985275D01*
X176947667Y-125870730D01*
X176856376Y-125865466D01*
X176503141Y-125770814D01*
X176267119Y-125499882D01*
X176153134Y-125072207D01*
X176166009Y-124507326D01*
X176310567Y-123824777D01*
X176333454Y-123747500D01*
X176563025Y-123125103D01*
X176814281Y-122679322D01*
X177075095Y-122421844D01*
X177333342Y-122364357D01*
X177576895Y-122518550D01*
X177591155Y-122535244D01*
X177812054Y-122672612D01*
X177988011Y-122704577D01*
X178230891Y-122613765D01*
X178362647Y-122379594D01*
X178375460Y-122059463D01*
X178261510Y-121710772D01*
X178147406Y-121534468D01*
X177977672Y-121358781D01*
X177773980Y-121269406D01*
X177456573Y-121238894D01*
X177283173Y-121237022D01*
X176709073Y-121310517D01*
X176240906Y-121547450D01*
X175839789Y-121972492D01*
X175644339Y-122276838D01*
X175279183Y-123027635D01*
X175072882Y-123776026D01*
X175005600Y-124605819D01*
X174008781Y-124605819D01*
X174119466Y-124161992D01*
X174278724Y-123266699D01*
X174325817Y-122947677D01*
X174406753Y-122107544D01*
X174401971Y-121377806D01*
X174318524Y-120775691D01*
X174163467Y-120318424D01*
X173943852Y-120023232D01*
X173666732Y-119907340D01*
X173339160Y-119987975D01*
X173161836Y-120104867D01*
X173051683Y-120206175D01*
X172928127Y-120355684D01*
X172777071Y-120576986D01*
X172584420Y-120893675D01*
X172336076Y-121329341D01*
X172017944Y-121907577D01*
X171615926Y-122651976D01*
X171406147Y-123043244D01*
X171176078Y-123466940D01*
X170954864Y-123864296D01*
X170794953Y-124141519D01*
X170638841Y-124514639D01*
X170617226Y-124846473D01*
X161767166Y-124846473D01*
X161811718Y-124680133D01*
X161983117Y-124091679D01*
X162207496Y-123398868D01*
X162255441Y-123260317D01*
X165514594Y-123260317D01*
X165549358Y-123582468D01*
X165701172Y-123766565D01*
X165972775Y-123832525D01*
X166020427Y-123833466D01*
X166398507Y-123724080D01*
X166767869Y-123409316D01*
X167108021Y-122909268D01*
X167244061Y-122633704D01*
X167452078Y-122169775D01*
X168032114Y-122390171D01*
X168365819Y-122519784D01*
X168606852Y-122618610D01*
X168682012Y-122653744D01*
X168696993Y-122777437D01*
X168670042Y-123061436D01*
X168607005Y-123445383D01*
X168603664Y-123462750D01*
X168514160Y-123936738D01*
X168469325Y-124241376D01*
X168470221Y-124428839D01*
X168517913Y-124551301D01*
X168613462Y-124660940D01*
X168628384Y-124675901D01*
X168891150Y-124792750D01*
X169221682Y-124725702D01*
X169453279Y-124581650D01*
X169598601Y-124411199D01*
X169757792Y-124111031D01*
X169939203Y-123659829D01*
X170151188Y-123036276D01*
X170402099Y-122219055D01*
X170471890Y-121981983D01*
X170694643Y-121188079D01*
X170840814Y-120577450D01*
X170912318Y-120121676D01*
X170911074Y-119792341D01*
X170838997Y-119561025D01*
X170698005Y-119399313D01*
X170648488Y-119363974D01*
X170430432Y-119245713D01*
X170257983Y-119262631D01*
X170074172Y-119370443D01*
X169879871Y-119569831D01*
X169643654Y-119917887D01*
X169406559Y-120353292D01*
X169381385Y-120405574D01*
X169183855Y-120786741D01*
X169007165Y-121066190D01*
X168881025Y-121198926D01*
X168855035Y-121202679D01*
X168671347Y-121135855D01*
X168382227Y-121031873D01*
X168328125Y-121012505D01*
X167926874Y-120868969D01*
X167973405Y-120225683D01*
X167954953Y-119672467D01*
X167830399Y-119194126D01*
X167621513Y-118826710D01*
X167350062Y-118606271D01*
X167037817Y-118568858D01*
X166981771Y-118583444D01*
X166831976Y-118670474D01*
X166701574Y-118849611D01*
X166576651Y-119154203D01*
X166443295Y-119617600D01*
X166300287Y-120216872D01*
X166156313Y-120810251D01*
X165987914Y-121440747D01*
X165825684Y-121995172D01*
X165785269Y-122122171D01*
X165594143Y-122780190D01*
X165514594Y-123260317D01*
X162255441Y-123260317D01*
X162473095Y-122631341D01*
X162768153Y-121818738D01*
X163080909Y-120990702D01*
X163399603Y-120176873D01*
X163712474Y-119406893D01*
X164007762Y-118710401D01*
X164273706Y-118117041D01*
X164498545Y-117656453D01*
X164670519Y-117358278D01*
X164755611Y-117260398D01*
X165054382Y-117122670D01*
X165520697Y-116974649D01*
X166097654Y-116830535D01*
X166728353Y-116704527D01*
X167355891Y-116610826D01*
X167361155Y-116610196D01*
X168645106Y-116544761D01*
X170071278Y-116633834D01*
G37*
G36*
X184345392Y-89297379D02*
G01*
X184338798Y-89303973D01*
X184332204Y-89297379D01*
X184338798Y-89290785D01*
X184345392Y-89297379D01*
G37*
G36*
X183676103Y-89479870D02*
G01*
X183677760Y-89484683D01*
X183659618Y-89486522D01*
X183640896Y-89484449D01*
X183643133Y-89479870D01*
X183670134Y-89478128D01*
X183676103Y-89479870D01*
G37*
G36*
X184393748Y-89295181D02*
G01*
X184391937Y-89303021D01*
X184384956Y-89303973D01*
X184374101Y-89299147D01*
X184376164Y-89295181D01*
X184391815Y-89293602D01*
X184393748Y-89295181D01*
G37*
G36*
X179030646Y-87662072D02*
G01*
X179030646Y-87866486D01*
X178826233Y-87866486D01*
X178621820Y-87866486D01*
X178621820Y-87662072D01*
X178621820Y-87457659D01*
X178826233Y-87457659D01*
X179030646Y-87457659D01*
X179030646Y-87662072D01*
G37*
G36*
X179848299Y-87253246D02*
G01*
X179848299Y-87457659D01*
X179643886Y-87457659D01*
X179439473Y-87457659D01*
X179439473Y-87253246D01*
X179439473Y-87048832D01*
X179643886Y-87048832D01*
X179848299Y-87048832D01*
X179848299Y-87253246D01*
G37*
G36*
X180665953Y-85209113D02*
G01*
X180665953Y-85822353D01*
X180052713Y-85822353D01*
X179439473Y-85822353D01*
X179439473Y-85209113D01*
X179439473Y-84595873D01*
X180052713Y-84595873D01*
X180665953Y-84595873D01*
X180665953Y-85209113D01*
G37*
G36*
X180665953Y-94203298D02*
G01*
X180665953Y-94816537D01*
X180052713Y-94816537D01*
X179439473Y-94816537D01*
X179439473Y-94203298D01*
X179439473Y-93590058D01*
X180052713Y-93590058D01*
X180665953Y-93590058D01*
X180665953Y-94203298D01*
G37*
G36*
X181483606Y-90525264D02*
G01*
X181483606Y-90728272D01*
X181279192Y-90728272D01*
X181074779Y-90728272D01*
X181074779Y-90523858D01*
X181074779Y-90319445D01*
X181279192Y-90319445D01*
X181483606Y-90319445D01*
X181483606Y-90525264D01*
G37*
G36*
X184345392Y-84801692D02*
G01*
X184345392Y-85004699D01*
X184140979Y-85004699D01*
X183936565Y-85004699D01*
X183936565Y-84800286D01*
X183936565Y-84595873D01*
X184140979Y-84595873D01*
X184345392Y-84595873D01*
X184345392Y-84801692D01*
G37*
G36*
X184345392Y-94612124D02*
G01*
X184345392Y-94816537D01*
X184140979Y-94816537D01*
X183936565Y-94816537D01*
X183936565Y-94612124D01*
X183936565Y-94407711D01*
X184140979Y-94407711D01*
X184345392Y-94407711D01*
X184345392Y-94612124D01*
G37*
G36*
X185163045Y-94203298D02*
G01*
X185163045Y-94407711D01*
X184958632Y-94407711D01*
X184754218Y-94407711D01*
X184754218Y-94203298D01*
X184754218Y-93998884D01*
X184958632Y-93998884D01*
X185163045Y-93998884D01*
X185163045Y-94203298D01*
G37*
G36*
X187616005Y-94613530D02*
G01*
X187616005Y-94816537D01*
X187411591Y-94816537D01*
X187207178Y-94816537D01*
X187207178Y-94612124D01*
X187207178Y-94407711D01*
X187411591Y-94407711D01*
X187616005Y-94407711D01*
X187616005Y-94613530D01*
G37*
G36*
X188024831Y-92976818D02*
G01*
X188024831Y-93181231D01*
X187820418Y-93181231D01*
X187616005Y-93181231D01*
X187616005Y-92976818D01*
X187616005Y-92772405D01*
X187820418Y-92772405D01*
X188024831Y-92772405D01*
X188024831Y-92976818D01*
G37*
G36*
X188842484Y-87253246D02*
G01*
X188842484Y-87457659D01*
X188638071Y-87457659D01*
X188433658Y-87457659D01*
X188433658Y-87253246D01*
X188433658Y-87048832D01*
X188638071Y-87048832D01*
X188842484Y-87048832D01*
X188842484Y-87253246D01*
G37*
G36*
X188842484Y-90115032D02*
G01*
X188842484Y-90319445D01*
X188638071Y-90319445D01*
X188433658Y-90319445D01*
X188433658Y-90115032D01*
X188433658Y-89910618D01*
X188638071Y-89910618D01*
X188842484Y-89910618D01*
X188842484Y-90115032D01*
G37*
G36*
X189251311Y-94203298D02*
G01*
X189251311Y-94407711D01*
X189046898Y-94407711D01*
X188842484Y-94407711D01*
X188842484Y-94203298D01*
X188842484Y-93998884D01*
X189046898Y-93998884D01*
X189251311Y-93998884D01*
X189251311Y-94203298D01*
G37*
G36*
X189660137Y-85209113D02*
G01*
X189660137Y-85822353D01*
X189046898Y-85822353D01*
X188433658Y-85822353D01*
X188433658Y-85209113D01*
X188433658Y-84595873D01*
X189046898Y-84595873D01*
X189660137Y-84595873D01*
X189660137Y-85209113D01*
G37*
G36*
X190068964Y-93387050D02*
G01*
X190068964Y-93590058D01*
X189864551Y-93590058D01*
X189660137Y-93590058D01*
X189660137Y-93385644D01*
X189660137Y-93181231D01*
X189864551Y-93181231D01*
X190068964Y-93181231D01*
X190068964Y-93387050D01*
G37*
G36*
X185357910Y-89455852D02*
G01*
X185377792Y-89465644D01*
X185380407Y-89475803D01*
X185363065Y-89486852D01*
X185331694Y-89481774D01*
X185308113Y-89472571D01*
X185287002Y-89461754D01*
X185288949Y-89455491D01*
X185299265Y-89452457D01*
X185328696Y-89450583D01*
X185357910Y-89455852D01*
G37*
G36*
X182611186Y-85519019D02*
G01*
X182506312Y-85624512D01*
X182604572Y-85723433D01*
X182702831Y-85822353D01*
X182301259Y-85822353D01*
X181899686Y-85822353D01*
X181997946Y-85723433D01*
X182096206Y-85624512D01*
X181991332Y-85519019D01*
X181886457Y-85413526D01*
X182301259Y-85413526D01*
X182716061Y-85413526D01*
X182611186Y-85519019D01*
G37*
G36*
X187925932Y-90016112D02*
G01*
X187821057Y-90121605D01*
X187919317Y-90220525D01*
X188017577Y-90319445D01*
X187616005Y-90319445D01*
X187214432Y-90319445D01*
X187312692Y-90220525D01*
X187410952Y-90121605D01*
X187306077Y-90016112D01*
X187201203Y-89910618D01*
X187616005Y-89910618D01*
X188030806Y-89910618D01*
X187925932Y-90016112D01*
G37*
G36*
X181483606Y-85209113D02*
G01*
X181483606Y-86640006D01*
X180052713Y-86640006D01*
X178621820Y-86640006D01*
X178621820Y-86231179D01*
X179030646Y-86231179D01*
X180052713Y-86231179D01*
X181074779Y-86231179D01*
X181074779Y-85209113D01*
X181074779Y-84187046D01*
X180052713Y-84187046D01*
X179030646Y-84187046D01*
X179030646Y-85209113D01*
X179030646Y-86231179D01*
X178621820Y-86231179D01*
X178621820Y-85209113D01*
X178621820Y-83778220D01*
X180052713Y-83778220D01*
X181483606Y-83778220D01*
X181483606Y-85209113D01*
G37*
G36*
X181483606Y-94203298D02*
G01*
X181483606Y-95634191D01*
X180052713Y-95634191D01*
X178621820Y-95634191D01*
X178621820Y-95225364D01*
X179030646Y-95225364D01*
X180052713Y-95225364D01*
X181074779Y-95225364D01*
X181074779Y-94203298D01*
X181074779Y-93181231D01*
X180052713Y-93181231D01*
X179030646Y-93181231D01*
X179030646Y-94203298D01*
X179030646Y-95225364D01*
X178621820Y-95225364D01*
X178621820Y-94203298D01*
X178621820Y-92772405D01*
X180052713Y-92772405D01*
X181483606Y-92772405D01*
X181483606Y-94203298D01*
G37*
G36*
X187207178Y-84191439D02*
G01*
X187207178Y-84601848D01*
X187104772Y-84500043D01*
X187002367Y-84398238D01*
X186900359Y-84500246D01*
X186798351Y-84602254D01*
X186798351Y-84191642D01*
X186798351Y-83781031D01*
X186892896Y-83878535D01*
X186933777Y-83919243D01*
X186968965Y-83951615D01*
X186993893Y-83971596D01*
X187002765Y-83976039D01*
X187017849Y-83967080D01*
X187046376Y-83942907D01*
X187083777Y-83907575D01*
X187112633Y-83878535D01*
X187207178Y-83781031D01*
X187207178Y-84191439D01*
G37*
G36*
X190477791Y-85209113D02*
G01*
X190477791Y-86640006D01*
X189046898Y-86640006D01*
X187616005Y-86640006D01*
X187616005Y-86231179D01*
X188024831Y-86231179D01*
X189046898Y-86231179D01*
X190068964Y-86231179D01*
X190068964Y-85209113D01*
X190068964Y-84187046D01*
X189046898Y-84187046D01*
X188024831Y-84187046D01*
X188024831Y-85209113D01*
X188024831Y-86231179D01*
X187616005Y-86231179D01*
X187616005Y-85209113D01*
X187616005Y-83778220D01*
X189046898Y-83778220D01*
X190477791Y-83778220D01*
X190477791Y-85209113D01*
G37*
G36*
X182301259Y-89298784D02*
G01*
X182301259Y-89501792D01*
X182099833Y-89501792D01*
X181898408Y-89501792D01*
X181793533Y-89607285D01*
X181688659Y-89712778D01*
X181786918Y-89811698D01*
X181885178Y-89910618D01*
X181483606Y-89910618D01*
X181082033Y-89910618D01*
X181180293Y-89811698D01*
X181278553Y-89712778D01*
X181173678Y-89607285D01*
X181068804Y-89501792D01*
X181480618Y-89501792D01*
X181892432Y-89501792D01*
X181892432Y-89297379D01*
X181892432Y-89092965D01*
X182096846Y-89092965D01*
X182301259Y-89092965D01*
X182301259Y-89298784D01*
G37*
G36*
X190068964Y-87254651D02*
G01*
X190068964Y-87457659D01*
X190276365Y-87457659D01*
X190483766Y-87457659D01*
X190378891Y-87563152D01*
X190274017Y-87668645D01*
X190372277Y-87767565D01*
X190470536Y-87866486D01*
X190065337Y-87866486D01*
X189660137Y-87866486D01*
X189660137Y-87459064D01*
X189660137Y-87051643D01*
X189754682Y-87149148D01*
X189795563Y-87189856D01*
X189830751Y-87222228D01*
X189855679Y-87242209D01*
X189864551Y-87246652D01*
X189879636Y-87237693D01*
X189908163Y-87213520D01*
X189945563Y-87178187D01*
X189974420Y-87149148D01*
X190068964Y-87051643D01*
X190068964Y-87254651D01*
G37*
G36*
X190477791Y-94000290D02*
G01*
X190477791Y-94407711D01*
X190072591Y-94407711D01*
X189667392Y-94407711D01*
X189765651Y-94308791D01*
X189863911Y-94209871D01*
X189759037Y-94104377D01*
X189654162Y-93998884D01*
X189861563Y-93998884D01*
X190068964Y-93998884D01*
X190068964Y-93794471D01*
X190068964Y-93592869D01*
X190163508Y-93690373D01*
X190204389Y-93731081D01*
X190239578Y-93763453D01*
X190264505Y-93783434D01*
X190273377Y-93787877D01*
X190288462Y-93778918D01*
X190316989Y-93754745D01*
X190354390Y-93719413D01*
X190383246Y-93690373D01*
X190477791Y-93592869D01*
X190477791Y-94000290D01*
G37*
G36*
X189970065Y-88789632D02*
G01*
X189865190Y-88895125D01*
X189963450Y-88994045D01*
X190061710Y-89092965D01*
X189860924Y-89092965D01*
X189660137Y-89092965D01*
X189660137Y-89297379D01*
X189660137Y-89501792D01*
X190068964Y-89501792D01*
X190477791Y-89501792D01*
X190477791Y-89913606D01*
X190477791Y-90325420D01*
X190375385Y-90223615D01*
X190272980Y-90121811D01*
X190170972Y-90223818D01*
X190068964Y-90325826D01*
X190068964Y-90118222D01*
X190068964Y-89910618D01*
X189660137Y-89910618D01*
X189251311Y-89910618D01*
X189251311Y-89297379D01*
X189251311Y-88684139D01*
X189663125Y-88684139D01*
X190074939Y-88684139D01*
X189970065Y-88789632D01*
G37*
G36*
X190378891Y-94922031D02*
G01*
X190274017Y-95027524D01*
X190372277Y-95126444D01*
X190470536Y-95225364D01*
X190269750Y-95225364D01*
X190068964Y-95225364D01*
X190068964Y-95429777D01*
X190068964Y-95634191D01*
X189660137Y-95634191D01*
X189251311Y-95634191D01*
X189251311Y-95429777D01*
X189251311Y-95225364D01*
X189046898Y-95225364D01*
X188842484Y-95225364D01*
X188842484Y-95432765D01*
X188842484Y-95640166D01*
X188740079Y-95538361D01*
X188637673Y-95436556D01*
X188535666Y-95538564D01*
X188433658Y-95640572D01*
X188433658Y-95228555D01*
X188433658Y-94816537D01*
X189458712Y-94816537D01*
X190483766Y-94816537D01*
X190378891Y-94922031D01*
G37*
G36*
X188433658Y-88070899D02*
G01*
X188433658Y-88275312D01*
X188845472Y-88275312D01*
X189257286Y-88275312D01*
X189152412Y-88380805D01*
X189047537Y-88486299D01*
X189145797Y-88585219D01*
X189244057Y-88684139D01*
X188842484Y-88684139D01*
X188440912Y-88684139D01*
X188539172Y-88585219D01*
X188637432Y-88486299D01*
X188532557Y-88380805D01*
X188427682Y-88275312D01*
X188226257Y-88275312D01*
X188024831Y-88275312D01*
X188024831Y-88684139D01*
X188024831Y-89092965D01*
X188229244Y-89092965D01*
X188433658Y-89092965D01*
X188433658Y-89297379D01*
X188433658Y-89501792D01*
X188229244Y-89501792D01*
X188024831Y-89501792D01*
X188024831Y-89300967D01*
X188024831Y-89100143D01*
X187922925Y-88997636D01*
X187821019Y-88895128D01*
X187718512Y-88997034D01*
X187616005Y-89098940D01*
X187616005Y-88891540D01*
X187616005Y-88684139D01*
X187415218Y-88684139D01*
X187214432Y-88684139D01*
X187312692Y-88585219D01*
X187410952Y-88486299D01*
X187306077Y-88380805D01*
X187201203Y-88275312D01*
X187613017Y-88275312D01*
X188024831Y-88275312D01*
X188024831Y-88070899D01*
X188024831Y-87866486D01*
X188229244Y-87866486D01*
X188433658Y-87866486D01*
X188433658Y-88070899D01*
G37*
G36*
X180257126Y-91547330D02*
G01*
X180257126Y-91954751D01*
X180052713Y-91954751D01*
X179848299Y-91954751D01*
X179848299Y-92159165D01*
X179848299Y-92363578D01*
X179443100Y-92363578D01*
X179037900Y-92363578D01*
X179136235Y-92264583D01*
X179234569Y-92165587D01*
X179030627Y-91961326D01*
X178826684Y-91757064D01*
X178724252Y-91858895D01*
X178621820Y-91960727D01*
X178621820Y-91550318D01*
X178621820Y-91139909D01*
X178716364Y-91237413D01*
X178757245Y-91278122D01*
X178792434Y-91310494D01*
X178817361Y-91330475D01*
X178826233Y-91334917D01*
X178841318Y-91325959D01*
X178869845Y-91301786D01*
X178907245Y-91266453D01*
X178936102Y-91237413D01*
X179030646Y-91139909D01*
X179030646Y-91545925D01*
X179030646Y-91954751D01*
X179235060Y-91954751D01*
X179439473Y-91954751D01*
X179439473Y-91750338D01*
X179439473Y-91545925D01*
X179643886Y-91545925D01*
X179848299Y-91545925D01*
X179848299Y-91342917D01*
X179848299Y-91139909D01*
X179942844Y-91237413D01*
X179983725Y-91278122D01*
X180018913Y-91310494D01*
X180043841Y-91330475D01*
X180052713Y-91334917D01*
X180067798Y-91325959D01*
X180096325Y-91301786D01*
X180133725Y-91266453D01*
X180162582Y-91237413D01*
X180257126Y-91139909D01*
X180257126Y-91547330D01*
G37*
G36*
X183527739Y-83982633D02*
G01*
X183527739Y-84187046D01*
X183732152Y-84187046D01*
X183936565Y-84187046D01*
X183936565Y-83982633D01*
X183936565Y-83778220D01*
X184140979Y-83778220D01*
X184345392Y-83778220D01*
X184345392Y-83982633D01*
X184345392Y-84187046D01*
X184143966Y-84187046D01*
X183942540Y-84187046D01*
X183837666Y-84292539D01*
X183732791Y-84398033D01*
X183831051Y-84496953D01*
X183929311Y-84595873D01*
X183527099Y-84595873D01*
X183124887Y-84595873D01*
X183020013Y-84701366D01*
X182915138Y-84806859D01*
X183013398Y-84905779D01*
X183111658Y-85004699D01*
X182710086Y-85004699D01*
X182308513Y-85004699D01*
X182406773Y-84905779D01*
X182505033Y-84806859D01*
X182400158Y-84701366D01*
X182295284Y-84595873D01*
X182093858Y-84595873D01*
X181892432Y-84595873D01*
X181892432Y-84391460D01*
X181892432Y-84187046D01*
X182096846Y-84187046D01*
X182301259Y-84187046D01*
X182301259Y-84391460D01*
X182301259Y-84595873D01*
X182710086Y-84595873D01*
X183118912Y-84595873D01*
X183118912Y-84391460D01*
X183118912Y-84187046D01*
X182918126Y-84187046D01*
X182717340Y-84187046D01*
X182815599Y-84088126D01*
X182913859Y-83989206D01*
X182808985Y-83883713D01*
X182704110Y-83778220D01*
X183115924Y-83778220D01*
X183527739Y-83778220D01*
X183527739Y-83982633D01*
G37*
G36*
X186798351Y-95020951D02*
G01*
X186798351Y-95225364D01*
X187207178Y-95225364D01*
X187616005Y-95225364D01*
X187616005Y-95020951D01*
X187616005Y-94819349D01*
X187710549Y-94916853D01*
X187751430Y-94957561D01*
X187786618Y-94989933D01*
X187811546Y-95009914D01*
X187820418Y-95014357D01*
X187835503Y-95005398D01*
X187864030Y-94981225D01*
X187901430Y-94945892D01*
X187930287Y-94916853D01*
X188024831Y-94819349D01*
X188024831Y-95226770D01*
X188024831Y-95634191D01*
X187415218Y-95634191D01*
X186805605Y-95634191D01*
X186903865Y-95535271D01*
X187002125Y-95436350D01*
X186897251Y-95330857D01*
X186792376Y-95225364D01*
X186593938Y-95225364D01*
X186395500Y-95225364D01*
X186290625Y-95330857D01*
X186185751Y-95436350D01*
X186284011Y-95535271D01*
X186382271Y-95634191D01*
X185367458Y-95634191D01*
X184352646Y-95634191D01*
X184450906Y-95535271D01*
X184549166Y-95436350D01*
X184444291Y-95330857D01*
X184339417Y-95225364D01*
X184751231Y-95225364D01*
X185163045Y-95225364D01*
X185163045Y-95022356D01*
X185163045Y-94819349D01*
X185257589Y-94916853D01*
X185298470Y-94957561D01*
X185333659Y-94989933D01*
X185358586Y-95009914D01*
X185367458Y-95014357D01*
X185382543Y-95005398D01*
X185411070Y-94981225D01*
X185448471Y-94945892D01*
X185477327Y-94916853D01*
X185571872Y-94819349D01*
X185571872Y-95022356D01*
X185571872Y-95225364D01*
X185980698Y-95225364D01*
X186389525Y-95225364D01*
X186389525Y-95020951D01*
X186389525Y-94816537D01*
X186593938Y-94816537D01*
X186798351Y-94816537D01*
X186798351Y-95020951D01*
G37*
G36*
X185980698Y-84190034D02*
G01*
X185980698Y-84601848D01*
X185878191Y-84499942D01*
X185775684Y-84398036D01*
X185673778Y-84500543D01*
X185571872Y-84603050D01*
X185571872Y-84803875D01*
X185571872Y-85004699D01*
X185980698Y-85004699D01*
X186389525Y-85004699D01*
X186389525Y-85209113D01*
X186389525Y-85413526D01*
X186801339Y-85413526D01*
X187213153Y-85413526D01*
X187108279Y-85519019D01*
X187003404Y-85624512D01*
X187101664Y-85723433D01*
X187199924Y-85822353D01*
X186794724Y-85822353D01*
X186389525Y-85822353D01*
X186389525Y-86231179D01*
X186389525Y-86640006D01*
X186593938Y-86640006D01*
X186798351Y-86640006D01*
X186798351Y-86435592D01*
X186798351Y-86231179D01*
X187002765Y-86231179D01*
X187207178Y-86231179D01*
X187207178Y-86435592D01*
X187207178Y-86640006D01*
X187002765Y-86640006D01*
X186798351Y-86640006D01*
X186798351Y-86844419D01*
X186798351Y-87048832D01*
X187207178Y-87048832D01*
X187616005Y-87048832D01*
X187616005Y-87253246D01*
X187616005Y-87457659D01*
X187823405Y-87457659D01*
X188030806Y-87457659D01*
X187925932Y-87563152D01*
X187821057Y-87668645D01*
X187919317Y-87767565D01*
X188017577Y-87866486D01*
X187612377Y-87866486D01*
X187207178Y-87866486D01*
X187207178Y-87662072D01*
X187207178Y-87457659D01*
X186798351Y-87457659D01*
X186389525Y-87457659D01*
X186389525Y-87662072D01*
X186389525Y-87866486D01*
X186593938Y-87866486D01*
X186798351Y-87866486D01*
X186798351Y-88070899D01*
X186798351Y-88275312D01*
X186593938Y-88275312D01*
X186389525Y-88275312D01*
X186389525Y-88684139D01*
X186389525Y-89092965D01*
X186593938Y-89092965D01*
X186798351Y-89092965D01*
X186798351Y-88889958D01*
X186798351Y-88686950D01*
X186892896Y-88784454D01*
X186933777Y-88825162D01*
X186968965Y-88857534D01*
X186993893Y-88877515D01*
X187002765Y-88881958D01*
X187017849Y-88872999D01*
X187046376Y-88848826D01*
X187083777Y-88813494D01*
X187112633Y-88784454D01*
X187207178Y-88686950D01*
X187207178Y-89094371D01*
X187207178Y-89501792D01*
X187002765Y-89501792D01*
X186798351Y-89501792D01*
X186798351Y-90115032D01*
X186798351Y-90728272D01*
X187005752Y-90728272D01*
X187213153Y-90728272D01*
X187108279Y-90833765D01*
X187003404Y-90939258D01*
X187101664Y-91038178D01*
X187199924Y-91137098D01*
X186794724Y-91137098D01*
X186389525Y-91137098D01*
X186389525Y-91341511D01*
X186389525Y-91545925D01*
X186798351Y-91545925D01*
X187207178Y-91545925D01*
X187207178Y-91341511D01*
X187207178Y-91137098D01*
X187411591Y-91137098D01*
X187616005Y-91137098D01*
X187616005Y-91341511D01*
X187616005Y-91545925D01*
X187820418Y-91545925D01*
X188024831Y-91545925D01*
X188024831Y-91341511D01*
X188024831Y-91137098D01*
X187824045Y-91137098D01*
X187623259Y-91137098D01*
X187721518Y-91038178D01*
X187819778Y-90939258D01*
X187714904Y-90833765D01*
X187610029Y-90728272D01*
X188021843Y-90728272D01*
X188433658Y-90728272D01*
X188433658Y-90932685D01*
X188433658Y-91137098D01*
X188638071Y-91137098D01*
X188842484Y-91137098D01*
X188842484Y-90728272D01*
X188842484Y-90319445D01*
X189251311Y-90319445D01*
X189660137Y-90319445D01*
X189660137Y-90523858D01*
X189660137Y-90728272D01*
X190071952Y-90728272D01*
X190483766Y-90728272D01*
X190378891Y-90833765D01*
X190274017Y-90939258D01*
X190372277Y-91038178D01*
X190470536Y-91137098D01*
X190269750Y-91137098D01*
X190068964Y-91137098D01*
X190068964Y-91545925D01*
X190068964Y-91954751D01*
X189864551Y-91954751D01*
X189660137Y-91954751D01*
X189660137Y-92159165D01*
X189660137Y-92363578D01*
X189864551Y-92363578D01*
X190068964Y-92363578D01*
X190068964Y-92159165D01*
X190068964Y-91954751D01*
X190273377Y-91954751D01*
X190477791Y-91954751D01*
X190477791Y-92159165D01*
X190477791Y-92363578D01*
X190276365Y-92363578D01*
X190074939Y-92363578D01*
X189970065Y-92469071D01*
X189865190Y-92574564D01*
X189963450Y-92673484D01*
X190061710Y-92772405D01*
X189656510Y-92772405D01*
X189251311Y-92772405D01*
X189251311Y-92159165D01*
X189251311Y-91545925D01*
X189455724Y-91545925D01*
X189660137Y-91545925D01*
X189660137Y-91341511D01*
X189660137Y-91137098D01*
X189251311Y-91137098D01*
X188842484Y-91137098D01*
X188842484Y-92159165D01*
X188842484Y-93181231D01*
X189049885Y-93181231D01*
X189257286Y-93181231D01*
X189152412Y-93286724D01*
X189047537Y-93392218D01*
X189145797Y-93491138D01*
X189244057Y-93590058D01*
X189043270Y-93590058D01*
X188842484Y-93590058D01*
X188842484Y-93794471D01*
X188842484Y-93998884D01*
X188638071Y-93998884D01*
X188433658Y-93998884D01*
X188433658Y-94206285D01*
X188433658Y-94413686D01*
X188331252Y-94311881D01*
X188228847Y-94210076D01*
X188126839Y-94312084D01*
X188024831Y-94414092D01*
X188024831Y-94206488D01*
X188024831Y-93998884D01*
X187616005Y-93998884D01*
X187207178Y-93998884D01*
X187207178Y-94203298D01*
X187207178Y-94407711D01*
X186798351Y-94407711D01*
X186389525Y-94407711D01*
X186389525Y-94612124D01*
X186389525Y-94816537D01*
X186185111Y-94816537D01*
X185980698Y-94816537D01*
X185980698Y-94615713D01*
X185980698Y-94414888D01*
X185878792Y-94312381D01*
X185776886Y-94209874D01*
X185674379Y-94311780D01*
X185571872Y-94413686D01*
X185571872Y-93798864D01*
X185571872Y-93184042D01*
X185666416Y-93281546D01*
X185707297Y-93322255D01*
X185742486Y-93354627D01*
X185767413Y-93374608D01*
X185776285Y-93379050D01*
X185791370Y-93370092D01*
X185819897Y-93345919D01*
X185857297Y-93310586D01*
X185886154Y-93281546D01*
X185980698Y-93184042D01*
X185980698Y-93795877D01*
X185980698Y-94407711D01*
X186185111Y-94407711D01*
X186389525Y-94407711D01*
X186389525Y-93998884D01*
X186389525Y-93590058D01*
X186593938Y-93590058D01*
X186798351Y-93590058D01*
X187207178Y-93590058D01*
X187820418Y-93590058D01*
X188433658Y-93590058D01*
X188433658Y-92976818D01*
X188433658Y-92363578D01*
X187820418Y-92363578D01*
X187207178Y-92363578D01*
X187207178Y-92976818D01*
X187207178Y-93590058D01*
X186798351Y-93590058D01*
X186798351Y-92976818D01*
X186798351Y-92363578D01*
X186593938Y-92363578D01*
X186389525Y-92363578D01*
X186389525Y-91954751D01*
X187207178Y-91954751D01*
X187411591Y-91954751D01*
X187616005Y-91954751D01*
X187616005Y-91750338D01*
X187616005Y-91545925D01*
X187411591Y-91545925D01*
X187207178Y-91545925D01*
X187207178Y-91750338D01*
X187207178Y-91954751D01*
X186389525Y-91954751D01*
X186389525Y-91750338D01*
X186389525Y-91545925D01*
X185980698Y-91545925D01*
X185571872Y-91545925D01*
X185571872Y-91954751D01*
X185571872Y-92363578D01*
X185779272Y-92363578D01*
X185986673Y-92363578D01*
X185881799Y-92469071D01*
X185776924Y-92574564D01*
X185875184Y-92673484D01*
X185973444Y-92772405D01*
X185159418Y-92772405D01*
X184345392Y-92772405D01*
X184345392Y-92976818D01*
X184345392Y-93181231D01*
X184140979Y-93181231D01*
X183936565Y-93181231D01*
X183936565Y-93385644D01*
X183936565Y-93590058D01*
X184345392Y-93590058D01*
X184754218Y-93590058D01*
X184754218Y-93385644D01*
X184754218Y-93181231D01*
X184958632Y-93181231D01*
X185163045Y-93181231D01*
X185163045Y-93385644D01*
X185163045Y-93590058D01*
X184961619Y-93590058D01*
X184760194Y-93590058D01*
X184655319Y-93695551D01*
X184550445Y-93801044D01*
X184648704Y-93899964D01*
X184746964Y-93998884D01*
X184345392Y-93998884D01*
X183943819Y-93998884D01*
X184042079Y-93899964D01*
X184140339Y-93801044D01*
X184035465Y-93695551D01*
X183930590Y-93590058D01*
X183729164Y-93590058D01*
X183527739Y-93590058D01*
X183527739Y-93998884D01*
X183527739Y-94407711D01*
X183118912Y-94407711D01*
X182710086Y-94407711D01*
X182710086Y-94816537D01*
X182710086Y-95225364D01*
X182914499Y-95225364D01*
X183118912Y-95225364D01*
X183118912Y-95022356D01*
X183118912Y-94819349D01*
X183213457Y-94916853D01*
X183254337Y-94957561D01*
X183289526Y-94989933D01*
X183314453Y-95009914D01*
X183323325Y-95014357D01*
X183338410Y-95005398D01*
X183366937Y-94981225D01*
X183404338Y-94945892D01*
X183433194Y-94916853D01*
X183527739Y-94819349D01*
X183527739Y-95022356D01*
X183527739Y-95225364D01*
X183735140Y-95225364D01*
X183942540Y-95225364D01*
X183837666Y-95330857D01*
X183732791Y-95436350D01*
X183831051Y-95535271D01*
X183929311Y-95634191D01*
X183115285Y-95634191D01*
X182301259Y-95634191D01*
X182301259Y-95225364D01*
X182301259Y-94816537D01*
X182100473Y-94816537D01*
X181899686Y-94816537D01*
X181997946Y-94717617D01*
X182096206Y-94618697D01*
X181991332Y-94513204D01*
X181886457Y-94407711D01*
X182298271Y-94407711D01*
X182710086Y-94407711D01*
X182710086Y-94203298D01*
X182710086Y-93998884D01*
X182301259Y-93998884D01*
X181892432Y-93998884D01*
X181892432Y-93590058D01*
X181892432Y-93181231D01*
X182301259Y-93181231D01*
X182710086Y-93181231D01*
X182710086Y-93385644D01*
X182710086Y-93590058D01*
X183118912Y-93590058D01*
X183527739Y-93590058D01*
X183527739Y-93385644D01*
X183527739Y-93181231D01*
X183732152Y-93181231D01*
X183936565Y-93181231D01*
X183936565Y-92976818D01*
X183936565Y-92772405D01*
X184140979Y-92772405D01*
X184345392Y-92772405D01*
X184345392Y-92364983D01*
X184345392Y-91957562D01*
X184439936Y-92055067D01*
X184480817Y-92095775D01*
X184516006Y-92128147D01*
X184540933Y-92148128D01*
X184549805Y-92152571D01*
X184564890Y-92143612D01*
X184593417Y-92119439D01*
X184630818Y-92084106D01*
X184659674Y-92055067D01*
X184754218Y-91957562D01*
X184754218Y-92160570D01*
X184754218Y-92363578D01*
X184958632Y-92363578D01*
X185163045Y-92363578D01*
X185163045Y-91954751D01*
X185163045Y-91555485D01*
X185176233Y-91555485D01*
X185185165Y-91569522D01*
X185208558Y-91596202D01*
X185241305Y-91630479D01*
X185278300Y-91667310D01*
X185314438Y-91701649D01*
X185344613Y-91728451D01*
X185363718Y-91742671D01*
X185366774Y-91743744D01*
X185381306Y-91734987D01*
X185409473Y-91711469D01*
X185446503Y-91677315D01*
X185469334Y-91655079D01*
X185507871Y-91615830D01*
X185538058Y-91583165D01*
X185555763Y-91561662D01*
X185558684Y-91556169D01*
X185546269Y-91552547D01*
X185512117Y-91549488D01*
X185460864Y-91547239D01*
X185397145Y-91546049D01*
X185367458Y-91545925D01*
X185299849Y-91546545D01*
X185242737Y-91548253D01*
X185200759Y-91550815D01*
X185178550Y-91554001D01*
X185176233Y-91555485D01*
X185163045Y-91555485D01*
X185163045Y-91545925D01*
X184552793Y-91545925D01*
X183942540Y-91545925D01*
X183837666Y-91651418D01*
X183732791Y-91756911D01*
X183831051Y-91855831D01*
X183929311Y-91954751D01*
X183728525Y-91954751D01*
X183527739Y-91954751D01*
X183527739Y-92363578D01*
X183527739Y-92772405D01*
X183122539Y-92772405D01*
X182717340Y-92772405D01*
X182815599Y-92673484D01*
X182913859Y-92574564D01*
X182808985Y-92469071D01*
X182704110Y-92363578D01*
X182710086Y-92363578D01*
X182914499Y-92363578D01*
X183118912Y-92363578D01*
X183118912Y-91954751D01*
X183118912Y-91545925D01*
X182914499Y-91545925D01*
X182710086Y-91545925D01*
X182710086Y-91954751D01*
X182710086Y-92363578D01*
X182704110Y-92363578D01*
X182502685Y-92363578D01*
X182301259Y-92363578D01*
X182301259Y-92571182D01*
X182301259Y-92778786D01*
X182199251Y-92676778D01*
X182097243Y-92574770D01*
X181994838Y-92676575D01*
X181892432Y-92778380D01*
X181892432Y-92366566D01*
X181892432Y-91954751D01*
X181691007Y-91954751D01*
X181489581Y-91954751D01*
X181384706Y-92060245D01*
X181279832Y-92165738D01*
X181378092Y-92264658D01*
X181476352Y-92363578D01*
X181071152Y-92363578D01*
X180665953Y-92363578D01*
X180665953Y-91954751D01*
X181074779Y-91954751D01*
X181279192Y-91954751D01*
X181483606Y-91954751D01*
X181483606Y-91750338D01*
X181483606Y-91545925D01*
X182301259Y-91545925D01*
X182505672Y-91545925D01*
X182710086Y-91545925D01*
X182710086Y-91341511D01*
X182710086Y-91137098D01*
X182505672Y-91137098D01*
X182301259Y-91137098D01*
X182301259Y-91341511D01*
X182301259Y-91545925D01*
X181483606Y-91545925D01*
X181279192Y-91545925D01*
X181074779Y-91545925D01*
X181074779Y-91750338D01*
X181074779Y-91954751D01*
X180665953Y-91954751D01*
X180665953Y-91750338D01*
X180665953Y-91341511D01*
X180665953Y-91137098D01*
X181074779Y-91137098D01*
X181483606Y-91137098D01*
X181483606Y-90935672D01*
X181892432Y-90935672D01*
X181892432Y-91137098D01*
X182096846Y-91137098D01*
X182301259Y-91137098D01*
X182301259Y-90936274D01*
X182301259Y-90735449D01*
X182294124Y-90728272D01*
X182301259Y-90728272D01*
X182505672Y-90728272D01*
X182710086Y-90728272D01*
X182710086Y-90523858D01*
X182710086Y-90319445D01*
X182505672Y-90319445D01*
X182301259Y-90319445D01*
X182301259Y-90523858D01*
X182301259Y-90728272D01*
X182294124Y-90728272D01*
X182199353Y-90632942D01*
X182097447Y-90530435D01*
X181994940Y-90632341D01*
X181892432Y-90734247D01*
X181892432Y-90935672D01*
X181483606Y-90935672D01*
X181483606Y-90932685D01*
X181483606Y-90731083D01*
X181578150Y-90828587D01*
X181619031Y-90869295D01*
X181654220Y-90901667D01*
X181679147Y-90921648D01*
X181688019Y-90926091D01*
X181703104Y-90917132D01*
X181731631Y-90892959D01*
X181769031Y-90857626D01*
X181797888Y-90828587D01*
X181889364Y-90734247D01*
X181892432Y-90731083D01*
X181892432Y-90523858D01*
X181892432Y-90320851D01*
X181892432Y-89963156D01*
X183718964Y-89963156D01*
X183751269Y-89981621D01*
X183781556Y-89992850D01*
X183802888Y-89992675D01*
X183815522Y-89992400D01*
X183813607Y-89999169D01*
X183819619Y-90010715D01*
X183847510Y-90023178D01*
X183865375Y-90028273D01*
X183917532Y-90044337D01*
X183971458Y-90065188D01*
X183983020Y-90070398D01*
X184020614Y-90087150D01*
X184049831Y-90098557D01*
X184057671Y-90100855D01*
X184081552Y-90108253D01*
X184114587Y-90121086D01*
X184114603Y-90121092D01*
X184172350Y-90143517D01*
X184213176Y-90154194D01*
X184242985Y-90154594D01*
X184246482Y-90153942D01*
X184273405Y-90150943D01*
X184316384Y-90148847D01*
X184356172Y-90148182D01*
X184401200Y-90147448D01*
X184425187Y-90144204D01*
X184433464Y-90136507D01*
X184431359Y-90122420D01*
X184430909Y-90120980D01*
X184431922Y-90087585D01*
X184444262Y-90060490D01*
X184458377Y-90035927D01*
X184461907Y-90023259D01*
X184461840Y-90023193D01*
X184448509Y-90015508D01*
X184419601Y-90000343D01*
X184401585Y-89991173D01*
X184345681Y-89962982D01*
X184270532Y-90005393D01*
X184223044Y-90028547D01*
X184176296Y-90041972D01*
X184124739Y-90045769D01*
X184062824Y-90040044D01*
X183985001Y-90024900D01*
X183929971Y-90011736D01*
X183869830Y-89996918D01*
X183815242Y-89983820D01*
X183773888Y-89974269D01*
X183758528Y-89970982D01*
X183718964Y-89963156D01*
X181892432Y-89963156D01*
X181892432Y-89910618D01*
X182096846Y-89910618D01*
X182301259Y-89910618D01*
X182301259Y-89712503D01*
X183847656Y-89712503D01*
X183848210Y-89733119D01*
X183866681Y-89746528D01*
X183888909Y-89751507D01*
X183931150Y-89756891D01*
X183987062Y-89761987D01*
X184042069Y-89765658D01*
X184102958Y-89769199D01*
X184153995Y-89772439D01*
X184189521Y-89775000D01*
X184203621Y-89776428D01*
X184209816Y-89766282D01*
X184213261Y-89738126D01*
X184213512Y-89726482D01*
X184220566Y-89672133D01*
X184238999Y-89608024D01*
X184264725Y-89545757D01*
X184293652Y-89496935D01*
X184295050Y-89495130D01*
X184322759Y-89459903D01*
X184291215Y-89464362D01*
X184267447Y-89473982D01*
X184263603Y-89497249D01*
X184263677Y-89497789D01*
X184262329Y-89515466D01*
X184250700Y-89531312D01*
X184225388Y-89547225D01*
X184182993Y-89565097D01*
X184120111Y-89586824D01*
X184081633Y-89599184D01*
X183989381Y-89630997D01*
X183919078Y-89660870D01*
X183871557Y-89688229D01*
X183847656Y-89712503D01*
X182301259Y-89712503D01*
X182301259Y-89706205D01*
X182301259Y-89504603D01*
X182395803Y-89602107D01*
X182436684Y-89642816D01*
X182471873Y-89675188D01*
X182496800Y-89695168D01*
X182505672Y-89699611D01*
X182520757Y-89690652D01*
X182549284Y-89666479D01*
X182586685Y-89631147D01*
X182615541Y-89602107D01*
X182688921Y-89526430D01*
X183495075Y-89526430D01*
X183530142Y-89539762D01*
X183553144Y-89544481D01*
X183585763Y-89543123D01*
X183633000Y-89535067D01*
X183699856Y-89519691D01*
X183708026Y-89517674D01*
X183768820Y-89502342D01*
X183806575Y-89491828D01*
X183823924Y-89484900D01*
X183823500Y-89480327D01*
X183807936Y-89476876D01*
X183798092Y-89475538D01*
X183745340Y-89468822D01*
X183798092Y-89452133D01*
X183846648Y-89438460D01*
X183913326Y-89422010D01*
X183990282Y-89404639D01*
X184061851Y-89389751D01*
X184127411Y-89380105D01*
X184200077Y-89374778D01*
X184270781Y-89373977D01*
X184330453Y-89377910D01*
X184358580Y-89382983D01*
X184399544Y-89392262D01*
X184432672Y-89397276D01*
X184441005Y-89397590D01*
X184516092Y-89394817D01*
X184570634Y-89394097D01*
X184610422Y-89396064D01*
X184641247Y-89401351D01*
X184668902Y-89410590D01*
X184699177Y-89424416D01*
X184702873Y-89426223D01*
X184770023Y-89469869D01*
X184837856Y-89533941D01*
X184845843Y-89542870D01*
X184881975Y-89585396D01*
X184903953Y-89617077D01*
X184915798Y-89646184D01*
X184921530Y-89680986D01*
X184923292Y-89702143D01*
X184922705Y-89766684D01*
X184912493Y-89823356D01*
X184894465Y-89867080D01*
X184870433Y-89892777D01*
X184853652Y-89897430D01*
X184822424Y-89905592D01*
X184806970Y-89917212D01*
X184799390Y-89930836D01*
X184810844Y-89936249D01*
X184831731Y-89936994D01*
X184862646Y-89941622D01*
X184871005Y-89955979D01*
X184856557Y-89980774D01*
X184819051Y-90016717D01*
X184797079Y-90034738D01*
X184744913Y-90072390D01*
X184706476Y-90092113D01*
X184683093Y-90093863D01*
X184676088Y-90077596D01*
X184686787Y-90043267D01*
X184689127Y-90038334D01*
X184692083Y-90026711D01*
X184679435Y-90035709D01*
X184661820Y-90053639D01*
X184638461Y-90083812D01*
X184627315Y-90108970D01*
X184627588Y-90116282D01*
X184627007Y-90132475D01*
X184621511Y-90134814D01*
X184604230Y-90124926D01*
X184601159Y-90100223D01*
X184612347Y-90068142D01*
X184620957Y-90054734D01*
X184636613Y-90027639D01*
X184634959Y-90015717D01*
X184620129Y-90018784D01*
X184596254Y-90036653D01*
X184577353Y-90056698D01*
X184550112Y-90096128D01*
X184544395Y-90125236D01*
X184561064Y-90144712D01*
X184600983Y-90155248D01*
X184665015Y-90157533D01*
X184701467Y-90156080D01*
X184761071Y-90150487D01*
X184817482Y-90141353D01*
X184860190Y-90130458D01*
X184866316Y-90128162D01*
X184910139Y-90110258D01*
X184951062Y-90093655D01*
X184957668Y-90090993D01*
X184976942Y-90082766D01*
X185002907Y-90070711D01*
X185038392Y-90053415D01*
X185086226Y-90029462D01*
X185149238Y-89997435D01*
X185230259Y-89955920D01*
X185321300Y-89909074D01*
X185412775Y-89862802D01*
X185503616Y-89818799D01*
X185602243Y-89773078D01*
X185715839Y-89722198D01*
X185765290Y-89698637D01*
X185791051Y-89679849D01*
X185794303Y-89661817D01*
X185776223Y-89640525D01*
X185746440Y-89617909D01*
X185638048Y-89544518D01*
X185522283Y-89472359D01*
X185409706Y-89407871D01*
X185352756Y-89377895D01*
X185296665Y-89350267D01*
X185254466Y-89332707D01*
X185216836Y-89322764D01*
X185174449Y-89317986D01*
X185117982Y-89315925D01*
X185116887Y-89315900D01*
X185052481Y-89316101D01*
X185012052Y-89321161D01*
X184993420Y-89332529D01*
X184994407Y-89351654D01*
X185012835Y-89379986D01*
X185015516Y-89383335D01*
X185034294Y-89401449D01*
X185058354Y-89410340D01*
X185096574Y-89412586D01*
X185115214Y-89412272D01*
X185183319Y-89414836D01*
X185229100Y-89426195D01*
X185251710Y-89445615D01*
X185250305Y-89472362D01*
X185224038Y-89505702D01*
X185223457Y-89506243D01*
X185191553Y-89535811D01*
X185239942Y-89532422D01*
X185288331Y-89529033D01*
X185245551Y-89540106D01*
X185201151Y-89555796D01*
X185175899Y-89578621D01*
X185164895Y-89615400D01*
X185163045Y-89654891D01*
X185161978Y-89696360D01*
X185155977Y-89719884D01*
X185140843Y-89733888D01*
X185118497Y-89744246D01*
X185086722Y-89760616D01*
X185065974Y-89776883D01*
X185060715Y-89788667D01*
X185069951Y-89791927D01*
X185081775Y-89795854D01*
X185079475Y-89809552D01*
X185061555Y-89835899D01*
X185026520Y-89877769D01*
X185023549Y-89881172D01*
X184984031Y-89922920D01*
X184956203Y-89945594D01*
X184941561Y-89949201D01*
X184941600Y-89933747D01*
X184957816Y-89899238D01*
X184968645Y-89880946D01*
X185003018Y-89804139D01*
X185011143Y-89726764D01*
X184993081Y-89647437D01*
X184980780Y-89619355D01*
X184961312Y-89588227D01*
X184928474Y-89544700D01*
X184886060Y-89492982D01*
X184837863Y-89437279D01*
X184787677Y-89381798D01*
X184739294Y-89330748D01*
X184696510Y-89288334D01*
X184663117Y-89258765D01*
X184644905Y-89246854D01*
X184615488Y-89241983D01*
X184571947Y-89241673D01*
X184543211Y-89243908D01*
X184506825Y-89247117D01*
X184449751Y-89251043D01*
X184377656Y-89255347D01*
X184296209Y-89259691D01*
X184214910Y-89263564D01*
X183959143Y-89275003D01*
X183759926Y-89375058D01*
X183691172Y-89410123D01*
X183628588Y-89443034D01*
X183576930Y-89471212D01*
X183540956Y-89492080D01*
X183527892Y-89500771D01*
X183495075Y-89526430D01*
X182688921Y-89526430D01*
X182710086Y-89504603D01*
X182710086Y-88893361D01*
X182710086Y-88282119D01*
X182608097Y-88384107D01*
X182506109Y-88486095D01*
X182604470Y-88585117D01*
X182702831Y-88684139D01*
X182096846Y-88684139D01*
X181490860Y-88684139D01*
X181589120Y-88585219D01*
X181687380Y-88486299D01*
X181582505Y-88380805D01*
X181477631Y-88275312D01*
X181276205Y-88275312D01*
X181074779Y-88275312D01*
X181074779Y-88479725D01*
X181074779Y-88684139D01*
X181282180Y-88684139D01*
X181489581Y-88684139D01*
X181384706Y-88789632D01*
X181279832Y-88895125D01*
X181378092Y-88994045D01*
X181476352Y-89092965D01*
X181071152Y-89092965D01*
X180665953Y-89092965D01*
X180665953Y-88888552D01*
X180665953Y-88684139D01*
X180461539Y-88684139D01*
X180257126Y-88684139D01*
X180257126Y-88888552D01*
X180257126Y-89092965D01*
X180052713Y-89092965D01*
X179848299Y-89092965D01*
X179848299Y-89297379D01*
X179848299Y-89501792D01*
X180260114Y-89501792D01*
X180671928Y-89501792D01*
X180567053Y-89607285D01*
X180462179Y-89712778D01*
X180560439Y-89811698D01*
X180658698Y-89910618D01*
X180457912Y-89910618D01*
X180257126Y-89910618D01*
X180257126Y-90322433D01*
X180257126Y-90734247D01*
X180154694Y-90632415D01*
X180052262Y-90530584D01*
X179848319Y-90734846D01*
X179644376Y-90939108D01*
X179742711Y-91038103D01*
X179841045Y-91137098D01*
X179435846Y-91137098D01*
X179030646Y-91137098D01*
X179030646Y-90934090D01*
X179030646Y-90728272D01*
X178829860Y-90728272D01*
X178629074Y-90728272D01*
X178727334Y-90629352D01*
X178825593Y-90530431D01*
X178720719Y-90424938D01*
X178615844Y-90319445D01*
X179027659Y-90319445D01*
X179439473Y-90319445D01*
X179439473Y-90523858D01*
X179439473Y-90728272D01*
X179643886Y-90728272D01*
X179848299Y-90728272D01*
X179848299Y-90319445D01*
X179848299Y-89910618D01*
X179643886Y-89910618D01*
X179439473Y-89910618D01*
X179439473Y-89706205D01*
X179439473Y-89501792D01*
X179235060Y-89501792D01*
X179030646Y-89501792D01*
X179030646Y-89709396D01*
X179030646Y-89917000D01*
X178928638Y-89814992D01*
X178826631Y-89712984D01*
X178724225Y-89814789D01*
X178621820Y-89916594D01*
X178621820Y-89301772D01*
X178621820Y-88686950D01*
X178716364Y-88784454D01*
X178757245Y-88825162D01*
X178792434Y-88857534D01*
X178817361Y-88877515D01*
X178826233Y-88881958D01*
X178841318Y-88872999D01*
X178869845Y-88848826D01*
X178907245Y-88813494D01*
X178936102Y-88784454D01*
X179030646Y-88686950D01*
X179030646Y-88889958D01*
X179030646Y-89092965D01*
X179235060Y-89092965D01*
X179439473Y-89092965D01*
X179439473Y-88888552D01*
X179439473Y-88684139D01*
X179238687Y-88684139D01*
X179037900Y-88684139D01*
X179136160Y-88585219D01*
X179234420Y-88486299D01*
X179129546Y-88380805D01*
X179024671Y-88275312D01*
X179640899Y-88275312D01*
X180257126Y-88275312D01*
X180257126Y-87662072D01*
X180257126Y-87048832D01*
X180873353Y-87048832D01*
X181489581Y-87048832D01*
X181384706Y-87154326D01*
X181279832Y-87259819D01*
X181378092Y-87358739D01*
X181476352Y-87457659D01*
X181071152Y-87457659D01*
X180665953Y-87457659D01*
X180665953Y-87866486D01*
X180665953Y-88275312D01*
X180870366Y-88275312D01*
X181074779Y-88275312D01*
X181074779Y-88070899D01*
X181074779Y-87866486D01*
X181279192Y-87866486D01*
X181483606Y-87866486D01*
X181483606Y-88070899D01*
X181483606Y-88275312D01*
X182096846Y-88275312D01*
X182710086Y-88275312D01*
X182710086Y-88070899D01*
X182710086Y-87866486D01*
X182914499Y-87866486D01*
X183118912Y-87866486D01*
X183126166Y-87866486D01*
X183320358Y-87866486D01*
X183388526Y-87866254D01*
X183446232Y-87865615D01*
X183488874Y-87864655D01*
X183511851Y-87863461D01*
X183514551Y-87862858D01*
X183505811Y-87852669D01*
X183482216Y-87828030D01*
X183447704Y-87793002D01*
X183418618Y-87763939D01*
X183322685Y-87668646D01*
X183224426Y-87767566D01*
X183126166Y-87866486D01*
X183118912Y-87866486D01*
X183118912Y-87662072D01*
X183527739Y-87662072D01*
X183527739Y-87866486D01*
X184754218Y-87866486D01*
X185980698Y-87866486D01*
X185980698Y-87665661D01*
X185980698Y-87464836D01*
X185973563Y-87457659D01*
X185980698Y-87457659D01*
X186185111Y-87457659D01*
X186389525Y-87457659D01*
X186389525Y-87253246D01*
X186389525Y-87048832D01*
X186185111Y-87048832D01*
X185980698Y-87048832D01*
X185980698Y-87253246D01*
X185980698Y-87457659D01*
X185973563Y-87457659D01*
X185878792Y-87362329D01*
X185776886Y-87259822D01*
X185674379Y-87361728D01*
X185571872Y-87463634D01*
X185571872Y-87256233D01*
X185571872Y-87253246D01*
X185571872Y-87048832D01*
X184958632Y-87048832D01*
X184345392Y-87048832D01*
X184345392Y-87253246D01*
X184345392Y-87457659D01*
X183936565Y-87457659D01*
X183527739Y-87457659D01*
X183527739Y-87662072D01*
X183118912Y-87662072D01*
X183118912Y-87457659D01*
X183118912Y-87048832D01*
X182914499Y-87048832D01*
X182710086Y-87048832D01*
X182710086Y-87457659D01*
X182710086Y-87866486D01*
X182100473Y-87866486D01*
X181490860Y-87866486D01*
X181589120Y-87767565D01*
X181687380Y-87668645D01*
X181582505Y-87563152D01*
X181477631Y-87457659D01*
X181685031Y-87457659D01*
X181892432Y-87457659D01*
X181892432Y-87253246D01*
X181892432Y-87048832D01*
X182096846Y-87048832D01*
X182301259Y-87048832D01*
X182301259Y-86844419D01*
X182301259Y-86640006D01*
X182096846Y-86640006D01*
X181892432Y-86640006D01*
X181892432Y-86435592D01*
X181892432Y-86231179D01*
X182096846Y-86231179D01*
X182301259Y-86231179D01*
X182301259Y-86435592D01*
X182301259Y-86640006D01*
X182505672Y-86640006D01*
X182710086Y-86640006D01*
X182710086Y-86436998D01*
X182710086Y-86233990D01*
X182804630Y-86331494D01*
X182845511Y-86372203D01*
X182880699Y-86404575D01*
X182905627Y-86424556D01*
X182914499Y-86428998D01*
X182929584Y-86420040D01*
X182958111Y-86395867D01*
X182995511Y-86360534D01*
X183024368Y-86331494D01*
X183118912Y-86233990D01*
X183118912Y-86436998D01*
X183118912Y-86640006D01*
X183323325Y-86640006D01*
X183527739Y-86640006D01*
X183527739Y-86844419D01*
X183527739Y-87048832D01*
X183732152Y-87048832D01*
X183936565Y-87048832D01*
X183936565Y-86844419D01*
X183936565Y-86640006D01*
X184140979Y-86640006D01*
X184345392Y-86640006D01*
X184345392Y-86439181D01*
X184345392Y-86238357D01*
X184243486Y-86135849D01*
X184141580Y-86033342D01*
X184039073Y-86135248D01*
X183936565Y-86237154D01*
X183936565Y-86438580D01*
X183936565Y-86640006D01*
X183732152Y-86640006D01*
X183527739Y-86640006D01*
X183527739Y-86435592D01*
X183527739Y-86231179D01*
X183732152Y-86231179D01*
X183936565Y-86231179D01*
X183936565Y-86026766D01*
X183936565Y-85822353D01*
X183735779Y-85822353D01*
X183534993Y-85822353D01*
X183633253Y-85723433D01*
X183731512Y-85624512D01*
X183626638Y-85519019D01*
X183521763Y-85413526D01*
X183933578Y-85413526D01*
X184345392Y-85413526D01*
X184345392Y-85209113D01*
X184345392Y-85007511D01*
X184439936Y-85105015D01*
X184480817Y-85145723D01*
X184516006Y-85178095D01*
X184540933Y-85198076D01*
X184549805Y-85202519D01*
X184564890Y-85193560D01*
X184593417Y-85169387D01*
X184630818Y-85134054D01*
X184659674Y-85105015D01*
X184754218Y-85007511D01*
X184754218Y-85414932D01*
X184754218Y-85822353D01*
X184549805Y-85822353D01*
X184345392Y-85822353D01*
X184345392Y-86028171D01*
X184345392Y-86233990D01*
X184439936Y-86331494D01*
X184480817Y-86372203D01*
X184516006Y-86404575D01*
X184540933Y-86424556D01*
X184549805Y-86428998D01*
X184564890Y-86420040D01*
X184593417Y-86395867D01*
X184630818Y-86360534D01*
X184659674Y-86331494D01*
X184754218Y-86233990D01*
X184754218Y-86436998D01*
X184754218Y-86640006D01*
X184958632Y-86640006D01*
X185163045Y-86640006D01*
X185163045Y-86436998D01*
X185163045Y-86233990D01*
X185257589Y-86331494D01*
X185298470Y-86372203D01*
X185333659Y-86404575D01*
X185358586Y-86424556D01*
X185367458Y-86428998D01*
X185382543Y-86420040D01*
X185411070Y-86395867D01*
X185448471Y-86360534D01*
X185477327Y-86331494D01*
X185571872Y-86233990D01*
X185571872Y-86436998D01*
X185571872Y-86640006D01*
X185776285Y-86640006D01*
X185980698Y-86640006D01*
X185980698Y-86026766D01*
X185980698Y-85413526D01*
X185779912Y-85413526D01*
X185579126Y-85413526D01*
X185677386Y-85314606D01*
X185775645Y-85215686D01*
X185670771Y-85110193D01*
X185565896Y-85004699D01*
X185364471Y-85004699D01*
X185163045Y-85004699D01*
X185163045Y-84800286D01*
X185163045Y-84595873D01*
X185367458Y-84595873D01*
X185571872Y-84595873D01*
X185571872Y-84391460D01*
X185571872Y-84187046D01*
X185166672Y-84187046D01*
X184761473Y-84187046D01*
X184859732Y-84088126D01*
X184957992Y-83989206D01*
X184853118Y-83883713D01*
X184748243Y-83778220D01*
X185364471Y-83778220D01*
X185980698Y-83778220D01*
X185980698Y-84190034D01*
G37*
G36*
X159139466Y-79832200D02*
G01*
X159097133Y-79874533D01*
X159054800Y-79832200D01*
X159097133Y-79789866D01*
X159139466Y-79832200D01*
G37*
G36*
X159308800Y-80932866D02*
G01*
X159266466Y-80975200D01*
X159224133Y-80932866D01*
X159266466Y-80890533D01*
X159308800Y-80932866D01*
G37*
G36*
X159478133Y-80848200D02*
G01*
X159435800Y-80890533D01*
X159393466Y-80848200D01*
X159435800Y-80805866D01*
X159478133Y-80848200D01*
G37*
G36*
X159732133Y-81440866D02*
G01*
X159689800Y-81483200D01*
X159647466Y-81440866D01*
X159689800Y-81398533D01*
X159732133Y-81440866D01*
G37*
G36*
X159901466Y-78308200D02*
G01*
X159859133Y-78350533D01*
X159816800Y-78308200D01*
X159859133Y-78265866D01*
X159901466Y-78308200D01*
G37*
G36*
X159986133Y-78477533D02*
G01*
X159943800Y-78519866D01*
X159901466Y-78477533D01*
X159943800Y-78435200D01*
X159986133Y-78477533D01*
G37*
G36*
X160070800Y-81525533D02*
G01*
X160028466Y-81567866D01*
X159986133Y-81525533D01*
X160028466Y-81483200D01*
X160070800Y-81525533D01*
G37*
G36*
X160155466Y-77969533D02*
G01*
X160113133Y-78011866D01*
X160070800Y-77969533D01*
X160113133Y-77927200D01*
X160155466Y-77969533D01*
G37*
G36*
X160240133Y-83134200D02*
G01*
X160197800Y-83176533D01*
X160155466Y-83134200D01*
X160197800Y-83091866D01*
X160240133Y-83134200D01*
G37*
G36*
X160409466Y-78308200D02*
G01*
X160367133Y-78350533D01*
X160324800Y-78308200D01*
X160367133Y-78265866D01*
X160409466Y-78308200D01*
G37*
G36*
X160409466Y-83557533D02*
G01*
X160367133Y-83599866D01*
X160324800Y-83557533D01*
X160367133Y-83515200D01*
X160409466Y-83557533D01*
G37*
G36*
X160494133Y-82880200D02*
G01*
X160451800Y-82922533D01*
X160409466Y-82880200D01*
X160451800Y-82837866D01*
X160494133Y-82880200D01*
G37*
G36*
X160494133Y-83303533D02*
G01*
X160451800Y-83345866D01*
X160409466Y-83303533D01*
X160451800Y-83261200D01*
X160494133Y-83303533D01*
G37*
G36*
X160494133Y-83726866D02*
G01*
X160451800Y-83769200D01*
X160409466Y-83726866D01*
X160451800Y-83684533D01*
X160494133Y-83726866D01*
G37*
G36*
X160578800Y-78477533D02*
G01*
X160536466Y-78519866D01*
X160494133Y-78477533D01*
X160536466Y-78435200D01*
X160578800Y-78477533D01*
G37*
G36*
X160748133Y-85674200D02*
G01*
X160705800Y-85716533D01*
X160663466Y-85674200D01*
X160705800Y-85631866D01*
X160748133Y-85674200D01*
G37*
G36*
X160832800Y-77038200D02*
G01*
X160790466Y-77080533D01*
X160748133Y-77038200D01*
X160790466Y-76995866D01*
X160832800Y-77038200D01*
G37*
G36*
X160832800Y-77800200D02*
G01*
X160790466Y-77842533D01*
X160748133Y-77800200D01*
X160790466Y-77757866D01*
X160832800Y-77800200D01*
G37*
G36*
X160917466Y-87028866D02*
G01*
X160875133Y-87071200D01*
X160832800Y-87028866D01*
X160875133Y-86986533D01*
X160917466Y-87028866D01*
G37*
G36*
X161002133Y-76276200D02*
G01*
X160959800Y-76318533D01*
X160917466Y-76276200D01*
X160959800Y-76233866D01*
X161002133Y-76276200D01*
G37*
G36*
X161086800Y-76106866D02*
G01*
X161044466Y-76149200D01*
X161002133Y-76106866D01*
X161044466Y-76064533D01*
X161086800Y-76106866D01*
G37*
G36*
X161086800Y-83726866D02*
G01*
X161044466Y-83769200D01*
X161002133Y-83726866D01*
X161044466Y-83684533D01*
X161086800Y-83726866D01*
G37*
G36*
X161340800Y-76106866D02*
G01*
X161298466Y-76149200D01*
X161256133Y-76106866D01*
X161298466Y-76064533D01*
X161340800Y-76106866D01*
G37*
G36*
X161594800Y-85335533D02*
G01*
X161552466Y-85377866D01*
X161510133Y-85335533D01*
X161552466Y-85293200D01*
X161594800Y-85335533D01*
G37*
G36*
X161594800Y-85589533D02*
G01*
X161552466Y-85631866D01*
X161510133Y-85589533D01*
X161552466Y-85547200D01*
X161594800Y-85589533D01*
G37*
G36*
X161933466Y-74752200D02*
G01*
X161891133Y-74794533D01*
X161848800Y-74752200D01*
X161891133Y-74709866D01*
X161933466Y-74752200D01*
G37*
G36*
X161933466Y-85420200D02*
G01*
X161891133Y-85462533D01*
X161848800Y-85420200D01*
X161891133Y-85377866D01*
X161933466Y-85420200D01*
G37*
G36*
X162018133Y-85674200D02*
G01*
X161975800Y-85716533D01*
X161933466Y-85674200D01*
X161975800Y-85631866D01*
X162018133Y-85674200D01*
G37*
G36*
X162187466Y-85335533D02*
G01*
X162145133Y-85377866D01*
X162102800Y-85335533D01*
X162145133Y-85293200D01*
X162187466Y-85335533D01*
G37*
G36*
X162187466Y-85589533D02*
G01*
X162145133Y-85631866D01*
X162102800Y-85589533D01*
X162145133Y-85547200D01*
X162187466Y-85589533D01*
G37*
G36*
X162187466Y-86266866D02*
G01*
X162145133Y-86309200D01*
X162102800Y-86266866D01*
X162145133Y-86224533D01*
X162187466Y-86266866D01*
G37*
G36*
X162695466Y-87028866D02*
G01*
X162653133Y-87071200D01*
X162610800Y-87028866D01*
X162653133Y-86986533D01*
X162695466Y-87028866D01*
G37*
G36*
X163203466Y-88044866D02*
G01*
X163161133Y-88087200D01*
X163118800Y-88044866D01*
X163161133Y-88002533D01*
X163203466Y-88044866D01*
G37*
G36*
X163542133Y-88129533D02*
G01*
X163499800Y-88171866D01*
X163457466Y-88129533D01*
X163499800Y-88087200D01*
X163542133Y-88129533D01*
G37*
G36*
X164134800Y-72974200D02*
G01*
X164092466Y-73016533D01*
X164050133Y-72974200D01*
X164092466Y-72931866D01*
X164134800Y-72974200D01*
G37*
G36*
X170569466Y-89145533D02*
G01*
X170527133Y-89187866D01*
X170484800Y-89145533D01*
X170527133Y-89103200D01*
X170569466Y-89145533D01*
G37*
G36*
X170738800Y-88976200D02*
G01*
X170696466Y-89018533D01*
X170654133Y-88976200D01*
X170696466Y-88933866D01*
X170738800Y-88976200D01*
G37*
G36*
X171077466Y-89230200D02*
G01*
X171035133Y-89272533D01*
X170992800Y-89230200D01*
X171035133Y-89187866D01*
X171077466Y-89230200D01*
G37*
G36*
X172262800Y-72296866D02*
G01*
X172220466Y-72339200D01*
X172178133Y-72296866D01*
X172220466Y-72254533D01*
X172262800Y-72296866D01*
G37*
G36*
X175141466Y-75768200D02*
G01*
X175099133Y-75810533D01*
X175056800Y-75768200D01*
X175099133Y-75725866D01*
X175141466Y-75768200D01*
G37*
G36*
X175395466Y-75937533D02*
G01*
X175353133Y-75979866D01*
X175310800Y-75937533D01*
X175353133Y-75895200D01*
X175395466Y-75937533D01*
G37*
G36*
X175903466Y-77715533D02*
G01*
X175861133Y-77757866D01*
X175818800Y-77715533D01*
X175861133Y-77673200D01*
X175903466Y-77715533D01*
G37*
G36*
X176326800Y-77630866D02*
G01*
X176284466Y-77673200D01*
X176242133Y-77630866D01*
X176284466Y-77588533D01*
X176326800Y-77630866D01*
G37*
G36*
X176411466Y-78308200D02*
G01*
X176369133Y-78350533D01*
X176326800Y-78308200D01*
X176369133Y-78265866D01*
X176411466Y-78308200D01*
G37*
G36*
X176665466Y-78308200D02*
G01*
X176623133Y-78350533D01*
X176580800Y-78308200D01*
X176623133Y-78265866D01*
X176665466Y-78308200D01*
G37*
G36*
X177173466Y-81017533D02*
G01*
X177131133Y-81059866D01*
X177088800Y-81017533D01*
X177131133Y-80975200D01*
X177173466Y-81017533D01*
G37*
G36*
X177427466Y-80763533D02*
G01*
X177385133Y-80805866D01*
X177342800Y-80763533D01*
X177385133Y-80721200D01*
X177427466Y-80763533D01*
G37*
G36*
X160211911Y-83289422D02*
G01*
X160222044Y-83389901D01*
X160211911Y-83402311D01*
X160161576Y-83390688D01*
X160155466Y-83345866D01*
X160186444Y-83276176D01*
X160211911Y-83289422D01*
G37*
G36*
X160211911Y-86506755D02*
G01*
X160222044Y-86607235D01*
X160211911Y-86619644D01*
X160161576Y-86608022D01*
X160155466Y-86563200D01*
X160186444Y-86493509D01*
X160211911Y-86506755D01*
G37*
G36*
X160550577Y-77108755D02*
G01*
X160560710Y-77209235D01*
X160550577Y-77221644D01*
X160500243Y-77210022D01*
X160494133Y-77165200D01*
X160525111Y-77095509D01*
X160550577Y-77108755D01*
G37*
G36*
X160804577Y-83882088D02*
G01*
X160792955Y-83932423D01*
X160748133Y-83938533D01*
X160678443Y-83907555D01*
X160691688Y-83882088D01*
X160792168Y-83871955D01*
X160804577Y-83882088D01*
G37*
G36*
X161820577Y-85829422D02*
G01*
X161808955Y-85879756D01*
X161764133Y-85885866D01*
X161694443Y-85854888D01*
X161707688Y-85829422D01*
X161808168Y-85819289D01*
X161820577Y-85829422D01*
G37*
G36*
X161989911Y-74484088D02*
G01*
X162000044Y-74584568D01*
X161989911Y-74596977D01*
X161939576Y-74585355D01*
X161933466Y-74540533D01*
X161964444Y-74470843D01*
X161989911Y-74484088D01*
G37*
G36*
X162074577Y-87184088D02*
G01*
X162084710Y-87284568D01*
X162074577Y-87296977D01*
X162024243Y-87285355D01*
X162018133Y-87240533D01*
X162049111Y-87170843D01*
X162074577Y-87184088D01*
G37*
G36*
X162499303Y-75455991D02*
G01*
X162509397Y-75588315D01*
X162492619Y-75618269D01*
X162454137Y-75593018D01*
X162448150Y-75507144D01*
X162468828Y-75416802D01*
X162499303Y-75455991D01*
G37*
G36*
X163937244Y-88623422D02*
G01*
X163947377Y-88723901D01*
X163937244Y-88736311D01*
X163886910Y-88724688D01*
X163880800Y-88679866D01*
X163911778Y-88610176D01*
X163937244Y-88623422D01*
G37*
G36*
X164275911Y-72452088D02*
G01*
X164286044Y-72552568D01*
X164275911Y-72564977D01*
X164225576Y-72553355D01*
X164219466Y-72508533D01*
X164250444Y-72438843D01*
X164275911Y-72452088D01*
G37*
G36*
X167577911Y-71944088D02*
G01*
X167588044Y-72044568D01*
X167577911Y-72056977D01*
X167527576Y-72045355D01*
X167521466Y-72000533D01*
X167552444Y-71930843D01*
X167577911Y-71944088D01*
G37*
G36*
X168763244Y-89639422D02*
G01*
X168773377Y-89739901D01*
X168763244Y-89752311D01*
X168712910Y-89740688D01*
X168706800Y-89695866D01*
X168737778Y-89626176D01*
X168763244Y-89639422D01*
G37*
G36*
X169779244Y-89724088D02*
G01*
X169789377Y-89824568D01*
X169779244Y-89836977D01*
X169728910Y-89825355D01*
X169722800Y-89780533D01*
X169753778Y-89710843D01*
X169779244Y-89724088D01*
G37*
G36*
X173080873Y-87219366D02*
G01*
X173092055Y-87392708D01*
X173080873Y-87431033D01*
X173049970Y-87441669D01*
X173038168Y-87325200D01*
X173051473Y-87205004D01*
X173080873Y-87219366D01*
G37*
G36*
X175621244Y-75754088D02*
G01*
X175631377Y-75854568D01*
X175621244Y-75866977D01*
X175570910Y-75855355D01*
X175564800Y-75810533D01*
X175595778Y-75740843D01*
X175621244Y-75754088D01*
G37*
G36*
X176467911Y-83628088D02*
G01*
X176478044Y-83728568D01*
X176467911Y-83740977D01*
X176417576Y-83729355D01*
X176411466Y-83684533D01*
X176442444Y-83614843D01*
X176467911Y-83628088D01*
G37*
G36*
X177483911Y-81342088D02*
G01*
X177494044Y-81442568D01*
X177483911Y-81454977D01*
X177433576Y-81443355D01*
X177427466Y-81398533D01*
X177458444Y-81328843D01*
X177483911Y-81342088D01*
G37*
G36*
X177568577Y-80241422D02*
G01*
X177578710Y-80341901D01*
X177568577Y-80354311D01*
X177518243Y-80342688D01*
X177512133Y-80297866D01*
X177543111Y-80228176D01*
X177568577Y-80241422D01*
G37*
G36*
X177654636Y-79773991D02*
G01*
X177664730Y-79906315D01*
X177647952Y-79936269D01*
X177609470Y-79911018D01*
X177603484Y-79825144D01*
X177624161Y-79734802D01*
X177654636Y-79773991D01*
G37*
G36*
X177737911Y-80241422D02*
G01*
X177748044Y-80341901D01*
X177737911Y-80354311D01*
X177687576Y-80342688D01*
X177681466Y-80297866D01*
X177712444Y-80228176D01*
X177737911Y-80241422D01*
G37*
G36*
X168573850Y-71398240D02*
G01*
X168543959Y-71475467D01*
X168451847Y-71517314D01*
X168311115Y-71510088D01*
X168283466Y-71442273D01*
X168345901Y-71344160D01*
X168474424Y-71329258D01*
X168573850Y-71398240D01*
G37*
G36*
X170824847Y-88638386D02*
G01*
X170873689Y-88739855D01*
X170862184Y-88770383D01*
X170780450Y-88845457D01*
X170740456Y-88759950D01*
X170738800Y-88717203D01*
X170780456Y-88630000D01*
X170824847Y-88638386D01*
G37*
G36*
X176682088Y-76799908D02*
G01*
X176710427Y-76830785D01*
X176739555Y-76942509D01*
X176651078Y-76948339D01*
X176590475Y-76917179D01*
X176530326Y-76832708D01*
X176565910Y-76793402D01*
X176682088Y-76799908D01*
G37*
G36*
X159132943Y-80682736D02*
G01*
X159139466Y-80711206D01*
X159077680Y-80830897D01*
X159054800Y-80848200D01*
X158976656Y-80844329D01*
X158970133Y-80815860D01*
X159031919Y-80696168D01*
X159054800Y-80678866D01*
X159132943Y-80682736D01*
G37*
G36*
X159559049Y-78483484D02*
G01*
X159579733Y-78502933D01*
X159637738Y-78618146D01*
X159579733Y-78706133D01*
X159503909Y-78747809D01*
X159478751Y-78645284D01*
X159478133Y-78604533D01*
X159495207Y-78469959D01*
X159559049Y-78483484D01*
G37*
G36*
X160213570Y-81622556D02*
G01*
X160197800Y-81652533D01*
X160118025Y-81733390D01*
X160103139Y-81737200D01*
X160097363Y-81682509D01*
X160113133Y-81652533D01*
X160192907Y-81571676D01*
X160207793Y-81567866D01*
X160213570Y-81622556D01*
G37*
G36*
X160564432Y-77490182D02*
G01*
X160578800Y-77588533D01*
X160565142Y-77726355D01*
X160546341Y-77757866D01*
X160501866Y-77688056D01*
X160469601Y-77588533D01*
X160464852Y-77453525D01*
X160502059Y-77419200D01*
X160564432Y-77490182D01*
G37*
G36*
X161311696Y-75693069D02*
G01*
X161298466Y-75725866D01*
X161222384Y-75806637D01*
X161208803Y-75810533D01*
X161172437Y-75745027D01*
X161171466Y-75725866D01*
X161236554Y-75644453D01*
X161261130Y-75641200D01*
X161311696Y-75693069D01*
G37*
G36*
X162245570Y-75018556D02*
G01*
X162229800Y-75048533D01*
X162150025Y-75129390D01*
X162135139Y-75133200D01*
X162129363Y-75078509D01*
X162145133Y-75048533D01*
X162224907Y-74967676D01*
X162239793Y-74963866D01*
X162245570Y-75018556D01*
G37*
G36*
X165143552Y-88595200D02*
G01*
X165103572Y-88775941D01*
X165066133Y-88849200D01*
X165001089Y-88916963D01*
X164988713Y-88891533D01*
X165017210Y-88754738D01*
X165070809Y-88626878D01*
X165122090Y-88560433D01*
X165143552Y-88595200D01*
G37*
G36*
X165411985Y-88670992D02*
G01*
X165461322Y-88834358D01*
X165459411Y-88907477D01*
X165406483Y-88872011D01*
X165372926Y-88803593D01*
X165328920Y-88627614D01*
X165325500Y-88567108D01*
X165354326Y-88558303D01*
X165411985Y-88670992D01*
G37*
G36*
X167748903Y-76881223D02*
G01*
X167733133Y-76911200D01*
X167653359Y-76992056D01*
X167638473Y-76995866D01*
X167632696Y-76941176D01*
X167648466Y-76911200D01*
X167728240Y-76830343D01*
X167743126Y-76826533D01*
X167748903Y-76881223D01*
G37*
G36*
X169976800Y-71450200D02*
G01*
X170057570Y-71526282D01*
X170061466Y-71539863D01*
X169995960Y-71576229D01*
X169976800Y-71577200D01*
X169895386Y-71512112D01*
X169892133Y-71487536D01*
X169944003Y-71436970D01*
X169976800Y-71450200D01*
G37*
G36*
X170001831Y-77988985D02*
G01*
X170019133Y-78011866D01*
X170015263Y-78090010D01*
X169986793Y-78096533D01*
X169867102Y-78034747D01*
X169849800Y-78011866D01*
X169853670Y-77933723D01*
X169882139Y-77927200D01*
X170001831Y-77988985D01*
G37*
G36*
X175792236Y-74849223D02*
G01*
X175776466Y-74879200D01*
X175696692Y-74960056D01*
X175681806Y-74963866D01*
X175676029Y-74909176D01*
X175691800Y-74879200D01*
X175771574Y-74798343D01*
X175786460Y-74794533D01*
X175792236Y-74849223D01*
G37*
G36*
X176466933Y-76613210D02*
G01*
X176459107Y-76637781D01*
X176336347Y-76696237D01*
X176274257Y-76709742D01*
X176186666Y-76701189D01*
X176194492Y-76676618D01*
X176317252Y-76618162D01*
X176379342Y-76604657D01*
X176466933Y-76613210D01*
G37*
G36*
X163456298Y-88323912D02*
G01*
X163488084Y-88383533D01*
X163521022Y-88490280D01*
X163518309Y-88503849D01*
X163435552Y-88471181D01*
X163393966Y-88454460D01*
X163301374Y-88370697D01*
X163303126Y-88281037D01*
X163363741Y-88256533D01*
X163456298Y-88323912D01*
G37*
G36*
X176289912Y-76071831D02*
G01*
X176388109Y-76092390D01*
X176318451Y-76128060D01*
X176111145Y-76173819D01*
X175888172Y-76185160D01*
X175730145Y-76144943D01*
X175710950Y-76096206D01*
X175849936Y-76070705D01*
X176023411Y-76065829D01*
X176289912Y-76071831D01*
G37*
G36*
X176153355Y-76432551D02*
G01*
X176087578Y-76538062D01*
X175988133Y-76657200D01*
X175872602Y-76765633D01*
X175819225Y-76766881D01*
X175818800Y-76760869D01*
X175870549Y-76643938D01*
X175983929Y-76502254D01*
X176096140Y-76410098D01*
X176121180Y-76403200D01*
X176153355Y-76432551D01*
G37*
G36*
X162018875Y-75345760D02*
G01*
X162081611Y-75438358D01*
X162016247Y-75432969D01*
X161987775Y-75422413D01*
X161871503Y-75419869D01*
X161848800Y-75462808D01*
X161789559Y-75552189D01*
X161764133Y-75556533D01*
X161681852Y-75499728D01*
X161679466Y-75482233D01*
X161737154Y-75370151D01*
X161795233Y-75311856D01*
X161918479Y-75266170D01*
X162018875Y-75345760D01*
G37*
G36*
X176045442Y-77131573D02*
G01*
X176034027Y-77159437D01*
X176069551Y-77223723D01*
X176219531Y-77265271D01*
X176356995Y-77296603D01*
X176333487Y-77337445D01*
X176326800Y-77340073D01*
X176133494Y-77364749D01*
X176051633Y-77355032D01*
X175940720Y-77280149D01*
X175903115Y-77166836D01*
X175954176Y-77087160D01*
X175993130Y-77080533D01*
X176045442Y-77131573D01*
G37*
G36*
X176392701Y-76888757D02*
G01*
X176379161Y-76957930D01*
X176372132Y-77045866D01*
X176406586Y-77041216D01*
X176514439Y-77052415D01*
X176537613Y-77079152D01*
X176519218Y-77152782D01*
X176458796Y-77165200D01*
X176338827Y-77153946D01*
X176320322Y-77144033D01*
X176284421Y-76939912D01*
X176320006Y-76832942D01*
X176343350Y-76826533D01*
X176392701Y-76888757D01*
G37*
G36*
X177128552Y-81311140D02*
G01*
X177130738Y-81468657D01*
X177129153Y-81481912D01*
X177144301Y-81680844D01*
X177242094Y-81739411D01*
X177400406Y-81645530D01*
X177410533Y-81635600D01*
X177497502Y-81584072D01*
X177512133Y-81626541D01*
X177441553Y-81738529D01*
X177283516Y-81804616D01*
X177118574Y-81800028D01*
X177060577Y-81765422D01*
X177010825Y-81630186D01*
X177012501Y-81441825D01*
X177061288Y-81295636D01*
X177082797Y-81275243D01*
X177128552Y-81311140D01*
G37*
G36*
X159889787Y-81623936D02*
G01*
X159933642Y-81770006D01*
X159934944Y-81778545D01*
X160020506Y-81947478D01*
X160076758Y-81996674D01*
X160139633Y-82060286D01*
X160113133Y-82073273D01*
X159973994Y-82031117D01*
X159901466Y-81991200D01*
X159726144Y-81930087D01*
X159520466Y-81906533D01*
X159361140Y-81893315D01*
X159354186Y-81851519D01*
X159393466Y-81822502D01*
X159580244Y-81775096D01*
X159668633Y-81787171D01*
X159791511Y-81777460D01*
X159816800Y-81686461D01*
X159840311Y-81587881D01*
X159889787Y-81623936D01*
G37*
G36*
X160432086Y-85855540D02*
G01*
X160738602Y-85923668D01*
X160811633Y-85940822D01*
X161081749Y-85976599D01*
X161277300Y-85976775D01*
X161445722Y-85986977D01*
X161510133Y-86034707D01*
X161438414Y-86088715D01*
X161268819Y-86109535D01*
X161069692Y-86096308D01*
X160909375Y-86048175D01*
X160899631Y-86042385D01*
X160741272Y-85992738D01*
X160520296Y-85971829D01*
X160316213Y-85945785D01*
X160197157Y-85884690D01*
X160195702Y-85882473D01*
X160187567Y-85837494D01*
X160257384Y-85827666D01*
X160432086Y-85855540D01*
G37*
G36*
X170791246Y-74710220D02*
G01*
X171115153Y-74744381D01*
X171437610Y-74790903D01*
X171716618Y-74845222D01*
X171910179Y-74902774D01*
X171931211Y-74912373D01*
X172084073Y-74974922D01*
X172136467Y-74967352D01*
X172132229Y-74958088D01*
X172154774Y-74890415D01*
X172215469Y-74879200D01*
X172331433Y-74914638D01*
X172347466Y-74946858D01*
X172419220Y-75015251D01*
X172598062Y-75102662D01*
X172664966Y-75128123D01*
X172877241Y-75213143D01*
X173010547Y-75283371D01*
X173024800Y-75296076D01*
X173113948Y-75368076D01*
X173301467Y-75498839D01*
X173490466Y-75623469D01*
X173828136Y-75855141D01*
X174107554Y-76073157D01*
X174300558Y-76253589D01*
X174378985Y-76372510D01*
X174379466Y-76378772D01*
X174443065Y-76471788D01*
X174548800Y-76552884D01*
X174683020Y-76700054D01*
X174718133Y-76820195D01*
X174748320Y-76968121D01*
X174784691Y-77009977D01*
X174936692Y-77145500D01*
X175105952Y-77409408D01*
X175277680Y-77763813D01*
X175437082Y-78170828D01*
X175569365Y-78592565D01*
X175659737Y-78991139D01*
X175693403Y-79328661D01*
X175693383Y-79337281D01*
X175706827Y-79510353D01*
X175741686Y-79572827D01*
X175745603Y-79571111D01*
X175770990Y-79629533D01*
X175783946Y-79820005D01*
X175785966Y-80105818D01*
X175778545Y-80450262D01*
X175763177Y-80816626D01*
X175741357Y-81168202D01*
X175714580Y-81468279D01*
X175684340Y-81680148D01*
X175656308Y-81764224D01*
X175578739Y-81920487D01*
X175563106Y-82029300D01*
X175519121Y-82199230D01*
X175400433Y-82477347D01*
X175223886Y-82829386D01*
X175006324Y-83221080D01*
X174844584Y-83490928D01*
X174682267Y-83700781D01*
X174509789Y-83851358D01*
X174492665Y-83861252D01*
X174330705Y-84003229D01*
X174265881Y-84124640D01*
X174155326Y-84279559D01*
X174047083Y-84335691D01*
X173905102Y-84411409D01*
X173868848Y-84477574D01*
X173796883Y-84588698D01*
X173608710Y-84753079D01*
X173339612Y-84948310D01*
X173024867Y-85151984D01*
X172699759Y-85341694D01*
X172399567Y-85495033D01*
X172159572Y-85589592D01*
X172093466Y-85605135D01*
X171937214Y-85634595D01*
X171690908Y-85684675D01*
X171574867Y-85709045D01*
X171286347Y-85748989D01*
X170911657Y-85772814D01*
X170545542Y-85775501D01*
X170257498Y-85775026D01*
X170064122Y-85788651D01*
X169998598Y-85813575D01*
X170005808Y-85821070D01*
X170008079Y-85865172D01*
X169872149Y-85884516D01*
X169865969Y-85884570D01*
X169709919Y-85860992D01*
X169679867Y-85802169D01*
X169666239Y-85754057D01*
X169600197Y-85768894D01*
X169488769Y-85768020D01*
X169468800Y-85726810D01*
X169394382Y-85653406D01*
X169205675Y-85572686D01*
X169086360Y-85538005D01*
X168848958Y-85465750D01*
X168689090Y-85393934D01*
X168658030Y-85367453D01*
X168544616Y-85305224D01*
X168447803Y-85293200D01*
X168312944Y-85257705D01*
X168283466Y-85210707D01*
X168216255Y-85117109D01*
X168054232Y-85006259D01*
X168050633Y-85004334D01*
X167853584Y-84868752D01*
X167591970Y-84649525D01*
X167313108Y-84390116D01*
X167064317Y-84133983D01*
X166928800Y-83973949D01*
X166624229Y-83561693D01*
X166397529Y-83215130D01*
X166211457Y-82875764D01*
X166151581Y-82753200D01*
X165988079Y-82375399D01*
X165863263Y-82019291D01*
X165788064Y-81723009D01*
X165782858Y-81652533D01*
X175564800Y-81652533D01*
X175595778Y-81722223D01*
X175621244Y-81708977D01*
X175631377Y-81608498D01*
X175621244Y-81596088D01*
X175570910Y-81607711D01*
X175564800Y-81652533D01*
X165782858Y-81652533D01*
X165773414Y-81524687D01*
X165787007Y-81481246D01*
X165783612Y-81404423D01*
X165757420Y-81398533D01*
X165693866Y-81326707D01*
X165675292Y-81208033D01*
X165670513Y-81032314D01*
X165659231Y-80745885D01*
X165657786Y-80714225D01*
X167877094Y-80714225D01*
X167985195Y-80857262D01*
X168117099Y-80890533D01*
X168243990Y-80857932D01*
X168273852Y-80728430D01*
X168267923Y-80658423D01*
X168198469Y-80480944D01*
X168074772Y-80394562D01*
X167949101Y-80420918D01*
X167893152Y-80503275D01*
X167877094Y-80714225D01*
X165657786Y-80714225D01*
X165643772Y-80407139D01*
X165641827Y-80367386D01*
X165634545Y-80066876D01*
X165643889Y-79851235D01*
X165667783Y-79757879D01*
X165675655Y-79757950D01*
X165709601Y-79733891D01*
X165695297Y-79678189D01*
X165722411Y-79552507D01*
X165799728Y-79499904D01*
X165900259Y-79440912D01*
X165845034Y-79369230D01*
X165825760Y-79355532D01*
X165750706Y-79273373D01*
X165806966Y-79226032D01*
X165893746Y-79116278D01*
X165912800Y-79009467D01*
X165916851Y-78971422D01*
X168142355Y-78971422D01*
X168153977Y-79021756D01*
X168198800Y-79027866D01*
X168268490Y-78996888D01*
X168258914Y-78978477D01*
X168544150Y-78978477D01*
X168559717Y-79088291D01*
X168588619Y-79089602D01*
X168608830Y-78976285D01*
X168595303Y-78927325D01*
X168557708Y-78895254D01*
X168544150Y-78978477D01*
X168258914Y-78978477D01*
X168255244Y-78971422D01*
X168154764Y-78961289D01*
X168142355Y-78971422D01*
X165916851Y-78971422D01*
X165933992Y-78810421D01*
X165985692Y-78556357D01*
X165992468Y-78529689D01*
X166005877Y-78477533D01*
X168198800Y-78477533D01*
X168241133Y-78519866D01*
X168283466Y-78477533D01*
X168241133Y-78435200D01*
X168198800Y-78477533D01*
X166005877Y-78477533D01*
X166027645Y-78392866D01*
X168537466Y-78392866D01*
X168579800Y-78435200D01*
X168622133Y-78392866D01*
X168579800Y-78350533D01*
X168537466Y-78392866D01*
X166027645Y-78392866D01*
X166049412Y-78308200D01*
X167860133Y-78308200D01*
X167902466Y-78350533D01*
X167944800Y-78308200D01*
X167902466Y-78265866D01*
X167860133Y-78308200D01*
X166049412Y-78308200D01*
X166064070Y-78251186D01*
X166103283Y-78096533D01*
X166166800Y-78096533D01*
X166197778Y-78166223D01*
X166223244Y-78152977D01*
X166233377Y-78052498D01*
X166223244Y-78040088D01*
X166172910Y-78051711D01*
X166166800Y-78096533D01*
X166103283Y-78096533D01*
X166147032Y-77923993D01*
X166172805Y-77821366D01*
X166244628Y-77588931D01*
X166315758Y-77443683D01*
X166347136Y-77419200D01*
X166412537Y-77350463D01*
X166420800Y-77292200D01*
X166451443Y-77184266D01*
X166556486Y-77196551D01*
X166755601Y-77331514D01*
X166759466Y-77334533D01*
X166932859Y-77451472D01*
X167054952Y-77501959D01*
X167055800Y-77501986D01*
X167155758Y-77564114D01*
X167308467Y-77718474D01*
X167376909Y-77800202D01*
X167559858Y-77988503D01*
X167722911Y-78088148D01*
X167832732Y-78084742D01*
X167860133Y-78008887D01*
X167918100Y-77978065D01*
X168053267Y-78022525D01*
X168207533Y-78115730D01*
X168311481Y-78215041D01*
X168346547Y-78215392D01*
X168332751Y-78083359D01*
X168331035Y-78075366D01*
X168324054Y-77893698D01*
X168382683Y-77847596D01*
X168464206Y-77942477D01*
X168502551Y-78053614D01*
X168566208Y-78193905D01*
X168631165Y-78217951D01*
X168681256Y-78195889D01*
X168709945Y-78236426D01*
X168730444Y-78378764D01*
X168747192Y-78562200D01*
X168770266Y-78796173D01*
X168795368Y-78907149D01*
X168837980Y-78940929D01*
X168875971Y-78943200D01*
X168949176Y-78875322D01*
X168949236Y-78692684D01*
X168888355Y-78426780D01*
X168778732Y-78109101D01*
X168754321Y-78052658D01*
X169009683Y-78052658D01*
X169010359Y-78138799D01*
X169019669Y-78176361D01*
X169073363Y-78326748D01*
X169129994Y-78326082D01*
X169166537Y-78275459D01*
X169150641Y-78166817D01*
X169093528Y-78101287D01*
X169009683Y-78052658D01*
X168754321Y-78052658D01*
X168632570Y-77771142D01*
X168585347Y-77680644D01*
X169060816Y-77680644D01*
X169073843Y-77735527D01*
X169148833Y-77912477D01*
X169245275Y-78126574D01*
X169351017Y-78421168D01*
X169417622Y-78720448D01*
X169422350Y-78761574D01*
X169450879Y-79070200D01*
X169862006Y-79046798D01*
X170167737Y-79049281D01*
X170447777Y-79083300D01*
X170527133Y-79103021D01*
X170793544Y-79160437D01*
X171088003Y-79189638D01*
X171098633Y-79189922D01*
X171416133Y-79197200D01*
X171416133Y-79070200D01*
X175480133Y-79070200D01*
X175522466Y-79112533D01*
X175564800Y-79070200D01*
X175522466Y-79027866D01*
X175480133Y-79070200D01*
X171416133Y-79070200D01*
X171416133Y-78639054D01*
X171414467Y-78601068D01*
X171944307Y-78601068D01*
X171948133Y-78817186D01*
X172005237Y-78940981D01*
X172006361Y-78941692D01*
X172138504Y-78953101D01*
X172364212Y-78918798D01*
X172619283Y-78854577D01*
X172839514Y-78776232D01*
X172952816Y-78708869D01*
X173004442Y-78586822D01*
X173032410Y-78435200D01*
X173448133Y-78435200D01*
X173512562Y-78517406D01*
X173532800Y-78519866D01*
X173615006Y-78455437D01*
X173617466Y-78435200D01*
X173553037Y-78352993D01*
X173532800Y-78350533D01*
X173450593Y-78414962D01*
X173448133Y-78435200D01*
X173032410Y-78435200D01*
X173040219Y-78392866D01*
X173044297Y-78236743D01*
X172986165Y-78149410D01*
X172824759Y-78093866D01*
X172673960Y-78062856D01*
X172411392Y-78027262D01*
X172204811Y-78025626D01*
X172150721Y-78036758D01*
X172055779Y-78147055D01*
X171983582Y-78356425D01*
X171944307Y-78601068D01*
X171414467Y-78601068D01*
X171400347Y-78279171D01*
X171345891Y-78036201D01*
X171253550Y-77874217D01*
X171122863Y-77750703D01*
X171038187Y-77753028D01*
X171036886Y-77755029D01*
X170917179Y-77838923D01*
X170791836Y-77809223D01*
X170740096Y-77694366D01*
X170756363Y-77599992D01*
X170815297Y-77662880D01*
X170926929Y-77730603D01*
X171037403Y-77674088D01*
X171077466Y-77551570D01*
X171017331Y-77412007D01*
X170934214Y-77323733D01*
X170834908Y-77251060D01*
X170842071Y-77291346D01*
X170861332Y-77324350D01*
X170881999Y-77408083D01*
X170814085Y-77400752D01*
X170726458Y-77295195D01*
X170699313Y-77142094D01*
X170678279Y-76996797D01*
X170629839Y-76968548D01*
X170597405Y-77072139D01*
X170604129Y-77276786D01*
X170615357Y-77355589D01*
X170644701Y-77570320D01*
X170623215Y-77658845D01*
X170534137Y-77660829D01*
X170490853Y-77650250D01*
X170359681Y-77638269D01*
X170346284Y-77732165D01*
X170359867Y-77786050D01*
X170381208Y-77898988D01*
X170336621Y-77861605D01*
X170330478Y-77852852D01*
X170214443Y-77781321D01*
X170154841Y-77794817D01*
X169975956Y-77830774D01*
X169827513Y-77750315D01*
X169786137Y-77630866D01*
X169892133Y-77630866D01*
X169934466Y-77673200D01*
X169976800Y-77630866D01*
X169934466Y-77588533D01*
X169892133Y-77630866D01*
X169786137Y-77630866D01*
X169772619Y-77591841D01*
X169776218Y-77564421D01*
X169793411Y-77449569D01*
X169764500Y-77481250D01*
X169711962Y-77588533D01*
X169643158Y-77769538D01*
X169628246Y-77873716D01*
X169578107Y-77911359D01*
X169437191Y-77893585D01*
X169267763Y-77837445D01*
X169132089Y-77759989D01*
X169103368Y-77729987D01*
X169060816Y-77680644D01*
X168585347Y-77680644D01*
X168462069Y-77444396D01*
X168418648Y-77376866D01*
X170061466Y-77376866D01*
X170103800Y-77419200D01*
X170146133Y-77376866D01*
X170132022Y-77362755D01*
X170343688Y-77362755D01*
X170355311Y-77413089D01*
X170400133Y-77419200D01*
X170469823Y-77388221D01*
X170456577Y-77362755D01*
X170356098Y-77352622D01*
X170343688Y-77362755D01*
X170132022Y-77362755D01*
X170103800Y-77334533D01*
X170061466Y-77376866D01*
X168418648Y-77376866D01*
X168309769Y-77207533D01*
X170315466Y-77207533D01*
X170357800Y-77249866D01*
X170400133Y-77207533D01*
X170357800Y-77165200D01*
X170315466Y-77207533D01*
X168309769Y-77207533D01*
X168279433Y-77160354D01*
X168174469Y-77038200D01*
X169722800Y-77038200D01*
X169765133Y-77080533D01*
X169807466Y-77038200D01*
X169765133Y-76995866D01*
X169722800Y-77038200D01*
X168174469Y-77038200D01*
X168107892Y-76960719D01*
X167828548Y-76674214D01*
X167677554Y-76451107D01*
X167641082Y-76262822D01*
X167692854Y-76103028D01*
X167860810Y-75930634D01*
X168036718Y-75895200D01*
X168216520Y-75874226D01*
X168297577Y-75830140D01*
X168387970Y-75756775D01*
X168588466Y-75642392D01*
X168852138Y-75509338D01*
X169132059Y-75379958D01*
X169381301Y-75276597D01*
X169552936Y-75221601D01*
X169583410Y-75217866D01*
X169703851Y-75145534D01*
X169772698Y-75006200D01*
X169869293Y-74836387D01*
X170028311Y-74794533D01*
X170183070Y-74770628D01*
X170230800Y-74727557D01*
X170307071Y-74697244D01*
X170507885Y-74692986D01*
X170791246Y-74710220D01*
G37*
G36*
X167815316Y-69587784D02*
G01*
X168410241Y-69655558D01*
X168505250Y-69667950D01*
X169775371Y-69904718D01*
X170986814Y-70268163D01*
X172116975Y-70749192D01*
X173143250Y-71338707D01*
X173744466Y-71776202D01*
X174789493Y-72707178D01*
X175682103Y-73709422D01*
X176426650Y-74790196D01*
X177027488Y-75956761D01*
X177488969Y-77216380D01*
X177812837Y-78562200D01*
X177874195Y-78953407D01*
X177910750Y-79354699D01*
X177924695Y-79812677D01*
X177918223Y-80373942D01*
X177910451Y-80636533D01*
X177852645Y-81599877D01*
X177739916Y-82450698D01*
X177559751Y-83240409D01*
X177299640Y-84020421D01*
X176947069Y-84842149D01*
X176824826Y-85097472D01*
X176164182Y-86263384D01*
X175378568Y-87319236D01*
X174477115Y-88258363D01*
X173468953Y-89074101D01*
X172363213Y-89759785D01*
X171169026Y-90308752D01*
X169895521Y-90714338D01*
X168833800Y-90929854D01*
X168184148Y-91001191D01*
X167454804Y-91033707D01*
X166711084Y-91027514D01*
X166018305Y-90982722D01*
X165574133Y-90924327D01*
X164943162Y-90794052D01*
X164265995Y-90616831D01*
X163604561Y-90411098D01*
X163020788Y-90195286D01*
X162792422Y-90096338D01*
X161758258Y-89534060D01*
X160761915Y-88828055D01*
X160354898Y-88468200D01*
X163034133Y-88468200D01*
X163076466Y-88510533D01*
X163118800Y-88468200D01*
X163076466Y-88425866D01*
X163034133Y-88468200D01*
X160354898Y-88468200D01*
X159829309Y-88003512D01*
X159711778Y-87875533D01*
X162187466Y-87875533D01*
X162229800Y-87917866D01*
X162272133Y-87875533D01*
X162229800Y-87833200D01*
X162187466Y-87875533D01*
X159711778Y-87875533D01*
X159556269Y-87706200D01*
X162102800Y-87706200D01*
X162145133Y-87748533D01*
X162187466Y-87706200D01*
X162145133Y-87663866D01*
X162102800Y-87706200D01*
X159556269Y-87706200D01*
X158986351Y-87085619D01*
X158569742Y-86520866D01*
X159308800Y-86520866D01*
X159351133Y-86563200D01*
X159393466Y-86520866D01*
X159351133Y-86478533D01*
X159308800Y-86520866D01*
X158569742Y-86520866D01*
X158258955Y-86099564D01*
X158233351Y-86055200D01*
X159393466Y-86055200D01*
X159424444Y-86124890D01*
X159449911Y-86111644D01*
X159460044Y-86011164D01*
X159449911Y-85998755D01*
X159399576Y-86010377D01*
X159393466Y-86055200D01*
X158233351Y-86055200D01*
X157720276Y-85166200D01*
X157684255Y-85081533D01*
X158970133Y-85081533D01*
X159012466Y-85123866D01*
X159054800Y-85081533D01*
X159012466Y-85039200D01*
X158970133Y-85081533D01*
X157684255Y-85081533D01*
X157540169Y-84742866D01*
X158970133Y-84742866D01*
X159012466Y-84785200D01*
X159054800Y-84742866D01*
X159012466Y-84700533D01*
X158970133Y-84742866D01*
X157540169Y-84742866D01*
X157468126Y-84573533D01*
X158800800Y-84573533D01*
X158843133Y-84615866D01*
X158885466Y-84573533D01*
X159478133Y-84573533D01*
X159496247Y-84686496D01*
X159511408Y-84700533D01*
X159566001Y-84634327D01*
X159593417Y-84573533D01*
X159595177Y-84464511D01*
X159560142Y-84446533D01*
X159487372Y-84515150D01*
X159478133Y-84573533D01*
X158885466Y-84573533D01*
X158843133Y-84531200D01*
X158800800Y-84573533D01*
X157468126Y-84573533D01*
X157203312Y-83951099D01*
X157145339Y-83748957D01*
X159514854Y-83748957D01*
X159598077Y-83762515D01*
X159707891Y-83746949D01*
X159709202Y-83718047D01*
X159595885Y-83697835D01*
X159546925Y-83711363D01*
X159514854Y-83748957D01*
X157145339Y-83748957D01*
X156871904Y-82795533D01*
X159139466Y-82795533D01*
X159181800Y-82837866D01*
X159224133Y-82795533D01*
X159181800Y-82753200D01*
X159139466Y-82795533D01*
X156871904Y-82795533D01*
X156840012Y-82684331D01*
X156817137Y-82541533D01*
X159054800Y-82541533D01*
X159097133Y-82583866D01*
X159139466Y-82541533D01*
X159097133Y-82499200D01*
X159054800Y-82541533D01*
X156817137Y-82541533D01*
X156803574Y-82456866D01*
X158885466Y-82456866D01*
X158927800Y-82499200D01*
X158970133Y-82456866D01*
X158927800Y-82414533D01*
X158885466Y-82456866D01*
X156803574Y-82456866D01*
X156776448Y-82287533D01*
X159054800Y-82287533D01*
X159097133Y-82329866D01*
X159139466Y-82287533D01*
X159393466Y-82287533D01*
X159435800Y-82329866D01*
X159478133Y-82287533D01*
X159562800Y-82287533D01*
X159605133Y-82329866D01*
X159647466Y-82287533D01*
X159605133Y-82245200D01*
X159562800Y-82287533D01*
X159478133Y-82287533D01*
X159435800Y-82245200D01*
X159393466Y-82287533D01*
X159139466Y-82287533D01*
X159097133Y-82245200D01*
X159054800Y-82287533D01*
X156776448Y-82287533D01*
X156631864Y-81384976D01*
X156610253Y-80834088D01*
X157389688Y-80834088D01*
X157401311Y-80884423D01*
X157446133Y-80890533D01*
X157515823Y-80859555D01*
X157502577Y-80834088D01*
X157402098Y-80823955D01*
X157389688Y-80834088D01*
X156610253Y-80834088D01*
X156600565Y-80587144D01*
X157198817Y-80587144D01*
X157214384Y-80696958D01*
X157243286Y-80698269D01*
X157263497Y-80584952D01*
X157249970Y-80535991D01*
X157212375Y-80503921D01*
X157198817Y-80587144D01*
X156600565Y-80587144D01*
X156595246Y-80451565D01*
X158666723Y-80451565D01*
X158674370Y-80468123D01*
X158778955Y-80503869D01*
X158892708Y-80489838D01*
X159004034Y-80436693D01*
X158963801Y-80378620D01*
X158828431Y-80345540D01*
X158705594Y-80377219D01*
X158666723Y-80451565D01*
X156595246Y-80451565D01*
X156587556Y-80255533D01*
X157446133Y-80255533D01*
X157488466Y-80297866D01*
X157504910Y-80281422D01*
X158646774Y-80281422D01*
X158737300Y-80274029D01*
X158893705Y-80277742D01*
X159054952Y-80352765D01*
X159138551Y-80458867D01*
X159139466Y-80470178D01*
X159068149Y-80535405D01*
X158961074Y-80551866D01*
X158832065Y-80587200D01*
X158834074Y-80685791D01*
X158880739Y-80880219D01*
X158885466Y-80944788D01*
X158918360Y-81033999D01*
X158948966Y-81030726D01*
X158993055Y-81080355D01*
X159028507Y-81251490D01*
X159037022Y-81340327D01*
X159075525Y-81574658D01*
X159141486Y-81732085D01*
X159164022Y-81754167D01*
X159221308Y-81809703D01*
X159160633Y-81820570D01*
X159062273Y-81878427D01*
X159054800Y-81911530D01*
X159106535Y-81962387D01*
X159138490Y-81949469D01*
X159258933Y-81950913D01*
X159471053Y-82012777D01*
X159599659Y-82064722D01*
X159953532Y-82177473D01*
X160207614Y-82160272D01*
X160357231Y-82013685D01*
X160373585Y-81970871D01*
X160430274Y-81860955D01*
X160494837Y-81907722D01*
X160497383Y-81911791D01*
X160497234Y-82046546D01*
X160377588Y-82185243D01*
X160183446Y-82291646D01*
X159978175Y-82329866D01*
X159787758Y-82357014D01*
X159690399Y-82413563D01*
X159704027Y-82461675D01*
X159770069Y-82446838D01*
X159854956Y-82446673D01*
X159893764Y-82554825D01*
X159901466Y-82744141D01*
X159878808Y-82980335D01*
X159817097Y-83088459D01*
X159800617Y-83091866D01*
X159779834Y-83132348D01*
X159864117Y-83216173D01*
X159972470Y-83308488D01*
X159945310Y-83339708D01*
X159880300Y-83343173D01*
X159748506Y-83379801D01*
X159747276Y-83450379D01*
X159858932Y-83507015D01*
X159943800Y-83515200D01*
X160105606Y-83550843D01*
X160154866Y-83687879D01*
X160155466Y-83717808D01*
X160108176Y-83893393D01*
X160028466Y-83969151D01*
X159912442Y-84071867D01*
X159941021Y-84192498D01*
X160021920Y-84244070D01*
X160162230Y-84222949D01*
X160321341Y-84111324D01*
X160477668Y-84002326D01*
X160598884Y-83993279D01*
X160651382Y-84056911D01*
X160595796Y-84088090D01*
X160502813Y-84190670D01*
X160494133Y-84241922D01*
X160438299Y-84349863D01*
X160395355Y-84361866D01*
X160336282Y-84393884D01*
X160348700Y-84413989D01*
X160455525Y-84423833D01*
X160648522Y-84379364D01*
X160678378Y-84369355D01*
X160837514Y-84324885D01*
X160883491Y-84336134D01*
X160873200Y-84348010D01*
X160702632Y-84444392D01*
X160441078Y-84536530D01*
X160165743Y-84600556D01*
X160006774Y-84615866D01*
X159855583Y-84647621D01*
X159844728Y-84735859D01*
X159830932Y-84857173D01*
X159721948Y-84907342D01*
X159586296Y-84858501D01*
X159573117Y-84846317D01*
X159495225Y-84805729D01*
X159478133Y-84889058D01*
X159407842Y-85024455D01*
X159329966Y-85065503D01*
X159254596Y-85096094D01*
X159340969Y-85112211D01*
X159372300Y-85114045D01*
X159521191Y-85152720D01*
X159562800Y-85205876D01*
X159500738Y-85252460D01*
X159435800Y-85239151D01*
X159327063Y-85242876D01*
X159308800Y-85284141D01*
X159385646Y-85343310D01*
X159586415Y-85375222D01*
X159679925Y-85377866D01*
X159927702Y-85361012D01*
X160053285Y-85298964D01*
X160092525Y-85219266D01*
X160093273Y-85104820D01*
X159980509Y-85097873D01*
X159954233Y-85103784D01*
X159835003Y-85118304D01*
X159856940Y-85059033D01*
X159873975Y-85040109D01*
X159995024Y-84988895D01*
X160179648Y-84980010D01*
X160369676Y-85005624D01*
X160506941Y-85057907D01*
X160533380Y-85128860D01*
X160562052Y-85216017D01*
X160679193Y-85288549D01*
X160811984Y-85346225D01*
X160788908Y-85367140D01*
X160651358Y-85372499D01*
X160452107Y-85325541D01*
X160373416Y-85236708D01*
X160300851Y-85147207D01*
X160227483Y-85187316D01*
X160196781Y-85298941D01*
X160304723Y-85460427D01*
X160311997Y-85468296D01*
X160437446Y-85637584D01*
X160417938Y-85731744D01*
X160246815Y-85760420D01*
X160114630Y-85754220D01*
X159912736Y-85757866D01*
X159866535Y-85811806D01*
X159871381Y-85821017D01*
X159858273Y-85935855D01*
X159783529Y-86016709D01*
X159687492Y-86175129D01*
X159703409Y-86372582D01*
X159814501Y-86538094D01*
X159919634Y-86592482D01*
X160045395Y-86676929D01*
X160045296Y-86761538D01*
X160033786Y-86908638D01*
X160120453Y-86943830D01*
X160203548Y-86897095D01*
X160315673Y-86870869D01*
X160436457Y-86990321D01*
X160531854Y-87111218D01*
X160579046Y-87095973D01*
X160604443Y-87015524D01*
X160641094Y-86914913D01*
X160679175Y-86966971D01*
X160704112Y-87040137D01*
X160835553Y-87188314D01*
X161091083Y-87274642D01*
X161433875Y-87289990D01*
X161624881Y-87268453D01*
X161827282Y-87254591D01*
X161924141Y-87315424D01*
X161953074Y-87391038D01*
X162023655Y-87509417D01*
X162178654Y-87523716D01*
X162233189Y-87514607D01*
X162395215Y-87498388D01*
X162431335Y-87554007D01*
X162412036Y-87618439D01*
X162396855Y-87724638D01*
X162494767Y-87713707D01*
X162663346Y-87690141D01*
X162821722Y-87723658D01*
X162907681Y-87794506D01*
X162901237Y-87842739D01*
X162791141Y-87885406D01*
X162671123Y-87867807D01*
X162548436Y-87836811D01*
X162568013Y-87885192D01*
X162629867Y-87949029D01*
X162775522Y-88058854D01*
X162858752Y-88087200D01*
X162945796Y-88148070D01*
X162949466Y-88171866D01*
X162884378Y-88253279D01*
X162859803Y-88256533D01*
X162811854Y-88309545D01*
X162828053Y-88350239D01*
X162904885Y-88388943D01*
X162960050Y-88329072D01*
X163047337Y-88270680D01*
X163118254Y-88341875D01*
X163150272Y-88503023D01*
X163138475Y-88643006D01*
X163134885Y-88794675D01*
X163236382Y-88845875D01*
X163320596Y-88849200D01*
X163484754Y-88814470D01*
X163543429Y-88743366D01*
X163567915Y-88692536D01*
X163620263Y-88756855D01*
X163662808Y-88941550D01*
X163557757Y-89077989D01*
X163429141Y-89120180D01*
X163308524Y-89147795D01*
X163346384Y-89186879D01*
X163391516Y-89206200D01*
X163568606Y-89206072D01*
X163645516Y-89160044D01*
X163796743Y-89073723D01*
X163972534Y-89043859D01*
X164105142Y-89074652D01*
X164136096Y-89129628D01*
X164171081Y-89164138D01*
X164227208Y-89103200D01*
X164311702Y-89026538D01*
X164359967Y-89082033D01*
X164450719Y-89182785D01*
X164535992Y-89139358D01*
X164558133Y-89036676D01*
X164625649Y-88909388D01*
X164729562Y-88885485D01*
X164855217Y-88926900D01*
X164855121Y-89005025D01*
X164855255Y-89067351D01*
X164956402Y-89026172D01*
X165031409Y-88979000D01*
X165221360Y-88888342D01*
X165342693Y-88922647D01*
X165346117Y-88925984D01*
X165485909Y-89013742D01*
X165563417Y-88948166D01*
X165574133Y-88857126D01*
X165615653Y-88738838D01*
X165742514Y-88739752D01*
X165858837Y-88803662D01*
X165866051Y-88856343D01*
X165902176Y-88926766D01*
X166036337Y-88982896D01*
X166196843Y-89063098D01*
X166251466Y-89155712D01*
X166294586Y-89228520D01*
X166446341Y-89245018D01*
X166611300Y-89229805D01*
X166815379Y-89211127D01*
X166864070Y-89227357D01*
X166801800Y-89265187D01*
X166700163Y-89330091D01*
X166755813Y-89360801D01*
X166759466Y-89361275D01*
X166919381Y-89368284D01*
X166957852Y-89364597D01*
X167138461Y-89383943D01*
X167349206Y-89470276D01*
X167526275Y-89589313D01*
X167605852Y-89706771D01*
X167606133Y-89712875D01*
X167630957Y-89844454D01*
X167713238Y-89830604D01*
X167720549Y-89822866D01*
X168029466Y-89822866D01*
X168071800Y-89865200D01*
X168114133Y-89822866D01*
X168071800Y-89780533D01*
X168029466Y-89822866D01*
X167720549Y-89822866D01*
X167860536Y-89674700D01*
X168015081Y-89484200D01*
X168233940Y-89689458D01*
X168392191Y-89805898D01*
X168466920Y-89775617D01*
X168462871Y-89596404D01*
X168460728Y-89583740D01*
X168502893Y-89553467D01*
X168541140Y-89571137D01*
X168602620Y-89688506D01*
X168594874Y-89729447D01*
X168630780Y-89816918D01*
X168716102Y-89842621D01*
X168855188Y-89791502D01*
X168884572Y-89711771D01*
X168908165Y-89663080D01*
X168958492Y-89773392D01*
X168960800Y-89780533D01*
X169011709Y-89899696D01*
X169037027Y-89886366D01*
X169111482Y-89803753D01*
X169265220Y-89783962D01*
X169421274Y-89824553D01*
X169496895Y-89900961D01*
X169597122Y-89984819D01*
X169745853Y-89960655D01*
X169881946Y-89849489D01*
X169931572Y-89751538D01*
X169978395Y-89622835D01*
X170021298Y-89652371D01*
X170060449Y-89738200D01*
X170117045Y-89847630D01*
X170137644Y-89803792D01*
X170138973Y-89780533D01*
X170315466Y-89780533D01*
X170346444Y-89850223D01*
X170371911Y-89836977D01*
X170382044Y-89736498D01*
X170371911Y-89724088D01*
X170321576Y-89735711D01*
X170315466Y-89780533D01*
X170138973Y-89780533D01*
X170140182Y-89759366D01*
X170185320Y-89633554D01*
X170230800Y-89611200D01*
X170293967Y-89538038D01*
X170320833Y-89378366D01*
X170328872Y-89222036D01*
X170355069Y-89224870D01*
X170402771Y-89336033D01*
X170542943Y-89486993D01*
X170767196Y-89538347D01*
X171023898Y-89491756D01*
X171106835Y-89441866D01*
X171585466Y-89441866D01*
X171649895Y-89524073D01*
X171670133Y-89526533D01*
X171752339Y-89462104D01*
X171754800Y-89441866D01*
X171690370Y-89359660D01*
X171670133Y-89357200D01*
X171587926Y-89421629D01*
X171585466Y-89441866D01*
X171106835Y-89441866D01*
X171261416Y-89348880D01*
X171303801Y-89307040D01*
X171469719Y-89172175D01*
X171610114Y-89128961D01*
X171624820Y-89132674D01*
X171769479Y-89113168D01*
X171849293Y-89049025D01*
X172016877Y-88958918D01*
X172151817Y-88957650D01*
X172303564Y-88939168D01*
X172352182Y-88849845D01*
X172272936Y-88750737D01*
X172241633Y-88735939D01*
X172222595Y-88699415D01*
X172305133Y-88684467D01*
X172389025Y-88637533D01*
X173194133Y-88637533D01*
X173236466Y-88679866D01*
X173278800Y-88637533D01*
X173236466Y-88595200D01*
X173194133Y-88637533D01*
X172389025Y-88637533D01*
X172443962Y-88606798D01*
X172593085Y-88425328D01*
X172615467Y-88383533D01*
X173702133Y-88383533D01*
X173744466Y-88425866D01*
X173786800Y-88383533D01*
X173744466Y-88341200D01*
X173702133Y-88383533D01*
X172615467Y-88383533D01*
X172714521Y-88198563D01*
X172765718Y-88002533D01*
X173024800Y-88002533D01*
X173055778Y-88072223D01*
X173081244Y-88058977D01*
X173091205Y-87960200D01*
X173871466Y-87960200D01*
X173913800Y-88002533D01*
X173956133Y-87960200D01*
X173913800Y-87917866D01*
X173871466Y-87960200D01*
X173091205Y-87960200D01*
X173091377Y-87958498D01*
X173081244Y-87946088D01*
X173030910Y-87957711D01*
X173024800Y-88002533D01*
X172765718Y-88002533D01*
X172770295Y-87985009D01*
X172770800Y-87967087D01*
X172817221Y-87826601D01*
X172919014Y-87732720D01*
X173019972Y-87725576D01*
X173052215Y-87766166D01*
X173090458Y-87806945D01*
X173102782Y-87732363D01*
X173151368Y-87568968D01*
X173248708Y-87551514D01*
X173355215Y-87681479D01*
X173372949Y-87722271D01*
X173442076Y-87876785D01*
X173487355Y-87885134D01*
X173491646Y-87875533D01*
X173702133Y-87875533D01*
X173744466Y-87917866D01*
X173786800Y-87875533D01*
X173744466Y-87833200D01*
X173702133Y-87875533D01*
X173491646Y-87875533D01*
X173529490Y-87790866D01*
X173612579Y-87654578D01*
X173672086Y-87621533D01*
X173768009Y-87564918D01*
X173940640Y-87416933D01*
X174077966Y-87282866D01*
X174464133Y-87282866D01*
X174506466Y-87325200D01*
X174548800Y-87282866D01*
X174506466Y-87240533D01*
X174464133Y-87282866D01*
X174077966Y-87282866D01*
X174139602Y-87222693D01*
X174342036Y-87026506D01*
X174497123Y-86898628D01*
X174570180Y-86866802D01*
X174618661Y-86829123D01*
X174653163Y-86732533D01*
X174718133Y-86732533D01*
X174749111Y-86802223D01*
X174774577Y-86788977D01*
X174784710Y-86688498D01*
X174774577Y-86676088D01*
X174724243Y-86687711D01*
X174718133Y-86732533D01*
X174653163Y-86732533D01*
X174668113Y-86690680D01*
X174733857Y-86547569D01*
X174805282Y-86522400D01*
X174862697Y-86487378D01*
X174887414Y-86328555D01*
X174887466Y-86319193D01*
X174913071Y-86121806D01*
X174972133Y-86012866D01*
X175050152Y-86019579D01*
X175056800Y-86050203D01*
X175105806Y-86134749D01*
X175227359Y-86100829D01*
X175372778Y-85970533D01*
X175421484Y-85928200D01*
X175818800Y-85928200D01*
X175861133Y-85970533D01*
X175903466Y-85928200D01*
X175861133Y-85885866D01*
X175818800Y-85928200D01*
X175421484Y-85928200D01*
X175520359Y-85842262D01*
X175625949Y-85801200D01*
X175713733Y-85730534D01*
X175734133Y-85631866D01*
X175782992Y-85494543D01*
X175851395Y-85462533D01*
X175982944Y-85392675D01*
X176121020Y-85225963D01*
X176220140Y-85026693D01*
X176242133Y-84910182D01*
X176278178Y-84817242D01*
X176317118Y-84821549D01*
X176386016Y-84786853D01*
X176431887Y-84659775D01*
X176441545Y-84518238D01*
X176411466Y-84488866D01*
X176380407Y-84447754D01*
X176391914Y-84313410D01*
X176435841Y-84170699D01*
X176475483Y-84143660D01*
X176588055Y-84163424D01*
X176712902Y-84067869D01*
X176808091Y-83902101D01*
X176834800Y-83757162D01*
X176860737Y-83571810D01*
X176941910Y-83538234D01*
X176945100Y-83539409D01*
X177011230Y-83518328D01*
X177048773Y-83375912D01*
X177061734Y-83134200D01*
X177342800Y-83134200D01*
X177385133Y-83176533D01*
X177427466Y-83134200D01*
X177385133Y-83091866D01*
X177342800Y-83134200D01*
X177061734Y-83134200D01*
X177063975Y-83092416D01*
X177082422Y-82794929D01*
X177120792Y-82548853D01*
X177136670Y-82499200D01*
X177427466Y-82499200D01*
X177456353Y-82581665D01*
X177464803Y-82583866D01*
X177537089Y-82524537D01*
X177554466Y-82499200D01*
X177547753Y-82421181D01*
X177517130Y-82414533D01*
X177430912Y-82475993D01*
X177427466Y-82499200D01*
X177136670Y-82499200D01*
X177153901Y-82445315D01*
X177202827Y-82262200D01*
X177193375Y-82169914D01*
X177199092Y-82094702D01*
X177240741Y-82107451D01*
X177342176Y-82096123D01*
X177366381Y-82055736D01*
X177382918Y-82039863D01*
X177371175Y-82139366D01*
X177383082Y-82289221D01*
X177501708Y-82329866D01*
X177585919Y-82309340D01*
X177642023Y-82225364D01*
X177681176Y-82044341D01*
X177714536Y-81732676D01*
X177719635Y-81673700D01*
X177752144Y-81242563D01*
X177783089Y-80750840D01*
X177805117Y-80319033D01*
X177817731Y-79976933D01*
X177814075Y-79770013D01*
X177785583Y-79664292D01*
X177723690Y-79625793D01*
X177629040Y-79620533D01*
X177434219Y-79553401D01*
X177342800Y-79408866D01*
X177253822Y-79251834D01*
X177173949Y-79197200D01*
X177122583Y-79125755D01*
X177130821Y-78964366D01*
X177153397Y-78822066D01*
X177131165Y-78834364D01*
X177099188Y-78900866D01*
X177034834Y-79016549D01*
X176987579Y-78981009D01*
X176961287Y-78920621D01*
X176928703Y-78720765D01*
X176940458Y-78560787D01*
X176936221Y-78392866D01*
X177258133Y-78392866D01*
X177300466Y-78435200D01*
X177342800Y-78392866D01*
X177300466Y-78350533D01*
X177258133Y-78392866D01*
X176936221Y-78392866D01*
X176936143Y-78389756D01*
X176867005Y-78350533D01*
X176763528Y-78278400D01*
X176700381Y-78139451D01*
X176636725Y-77999161D01*
X176571768Y-77975115D01*
X176500329Y-77962346D01*
X176496133Y-77937193D01*
X176543009Y-77818718D01*
X176638819Y-77824979D01*
X176709434Y-77932351D01*
X176770722Y-78063548D01*
X176809435Y-78051059D01*
X176809276Y-77920414D01*
X176787408Y-77810190D01*
X176733459Y-77715533D01*
X176834800Y-77715533D01*
X176877133Y-77757866D01*
X176919466Y-77715533D01*
X176877133Y-77673200D01*
X176834800Y-77715533D01*
X176733459Y-77715533D01*
X176682470Y-77626071D01*
X176550454Y-77582582D01*
X176422891Y-77572875D01*
X176457964Y-77539414D01*
X176538466Y-77503866D01*
X176640905Y-77445752D01*
X176631177Y-77425150D01*
X176622245Y-77369051D01*
X176702729Y-77255469D01*
X176789743Y-77126638D01*
X176810209Y-76968836D01*
X176771239Y-76718493D01*
X176765731Y-76692394D01*
X176725834Y-76445533D01*
X176834800Y-76445533D01*
X176877133Y-76487866D01*
X176919466Y-76445533D01*
X176877133Y-76403200D01*
X176834800Y-76445533D01*
X176725834Y-76445533D01*
X176723794Y-76432912D01*
X176715095Y-76232920D01*
X176724404Y-76178792D01*
X176699432Y-76081188D01*
X176629212Y-76064533D01*
X176537113Y-76036094D01*
X176566188Y-75923117D01*
X176578380Y-75899720D01*
X176620565Y-75746752D01*
X176553808Y-75666886D01*
X176428546Y-75532354D01*
X176384884Y-75446302D01*
X176370523Y-75341346D01*
X176419429Y-75349788D01*
X176465338Y-75347473D01*
X176430894Y-75250037D01*
X176339763Y-75095976D01*
X176215613Y-74923787D01*
X176082109Y-74771967D01*
X176040367Y-74733185D01*
X175894100Y-74557732D01*
X175872023Y-74415685D01*
X175867151Y-74305764D01*
X175822861Y-74286533D01*
X175761228Y-74334199D01*
X175771997Y-74363968D01*
X175756452Y-74456399D01*
X175726333Y-74472577D01*
X175663371Y-74567857D01*
X175607465Y-74775708D01*
X175586229Y-74917026D01*
X175564468Y-75160701D01*
X175579371Y-75273210D01*
X175642552Y-75290856D01*
X175700390Y-75273876D01*
X175810861Y-75239731D01*
X175783126Y-75276999D01*
X175707059Y-75337145D01*
X175607214Y-75439680D01*
X175646998Y-75512335D01*
X175671110Y-75527853D01*
X175781969Y-75637064D01*
X175850849Y-75774234D01*
X175852949Y-75876545D01*
X175816142Y-75895200D01*
X175743372Y-75826583D01*
X175734133Y-75768200D01*
X175663061Y-75664885D01*
X175559803Y-75641200D01*
X175442733Y-75608606D01*
X175437800Y-75556533D01*
X175411208Y-75490505D01*
X175310800Y-75471866D01*
X175188457Y-75438941D01*
X175187367Y-75381427D01*
X175303023Y-75325720D01*
X175361697Y-75336437D01*
X175466217Y-75339943D01*
X175451239Y-75230096D01*
X175397513Y-75133612D01*
X175322828Y-75059249D01*
X175235125Y-75115054D01*
X175184668Y-75175945D01*
X175092419Y-75281989D01*
X175060851Y-75254201D01*
X175063296Y-75090866D01*
X175066244Y-74831127D01*
X175043428Y-74735496D01*
X174993723Y-74800549D01*
X174979289Y-74835518D01*
X174931007Y-74920351D01*
X174882376Y-74880648D01*
X174812733Y-74697535D01*
X174805997Y-74677221D01*
X174722100Y-74476394D01*
X174653482Y-74436066D01*
X174629374Y-74462487D01*
X174560938Y-74502287D01*
X174478967Y-74392883D01*
X174455806Y-74344401D01*
X174335393Y-74176801D01*
X174206015Y-74160840D01*
X174068341Y-74138092D01*
X173990271Y-74018177D01*
X174007842Y-73871611D01*
X174038024Y-73832108D01*
X174121190Y-73695048D01*
X174061389Y-73617048D01*
X173998466Y-73609200D01*
X173885836Y-73560840D01*
X173871466Y-73519536D01*
X173819596Y-73468970D01*
X173786800Y-73482200D01*
X173712905Y-73464756D01*
X173702133Y-73411588D01*
X173633749Y-73276376D01*
X173575133Y-73239915D01*
X173462809Y-73143988D01*
X173448133Y-73092399D01*
X173389852Y-72975477D01*
X173208702Y-72787031D01*
X172895218Y-72517307D01*
X172870908Y-72497440D01*
X172794665Y-72364649D01*
X172800165Y-72300129D01*
X172773945Y-72226807D01*
X172603463Y-72221450D01*
X172594224Y-72222495D01*
X172420048Y-72218422D01*
X172347466Y-72168312D01*
X172347466Y-72168213D01*
X172411946Y-72087600D01*
X172432133Y-72085200D01*
X172511540Y-72018764D01*
X172516800Y-71983600D01*
X172486183Y-71927648D01*
X172425165Y-71973634D01*
X172290467Y-72005413D01*
X172102561Y-71951759D01*
X171929991Y-71844929D01*
X171841299Y-71717180D01*
X171839466Y-71697998D01*
X171773600Y-71589691D01*
X171721525Y-71577200D01*
X171592772Y-71508555D01*
X171551478Y-71441415D01*
X171444419Y-71347358D01*
X171360306Y-71358995D01*
X171192466Y-71339808D01*
X171053650Y-71232474D01*
X170921776Y-71118032D01*
X170838819Y-71133520D01*
X170813726Y-71166727D01*
X170757604Y-71207733D01*
X170731603Y-71091233D01*
X170730275Y-71069200D01*
X170717273Y-70935537D01*
X170693328Y-70962299D01*
X170675232Y-71026866D01*
X170631308Y-71196200D01*
X170564005Y-71026866D01*
X170512113Y-70914997D01*
X170493541Y-70958228D01*
X170490750Y-71010696D01*
X170449424Y-71113879D01*
X170400133Y-71111533D01*
X170327650Y-71130727D01*
X170315466Y-71191203D01*
X170271262Y-71307045D01*
X170230800Y-71323200D01*
X170152618Y-71266294D01*
X170176020Y-71129063D01*
X170272962Y-70984722D01*
X170344065Y-70890163D01*
X170294561Y-70864937D01*
X170145962Y-70881831D01*
X169961179Y-70938071D01*
X169895815Y-71062146D01*
X169892133Y-71131017D01*
X169869404Y-71281285D01*
X169769924Y-71302775D01*
X169701633Y-71284878D01*
X169354981Y-71192289D01*
X168995392Y-71117514D01*
X168664980Y-71066780D01*
X168405863Y-71046315D01*
X168260154Y-71062347D01*
X168248751Y-71070048D01*
X168242489Y-71136991D01*
X168372366Y-71160307D01*
X168485402Y-71171740D01*
X168460130Y-71204836D01*
X168285066Y-71274411D01*
X168283466Y-71274995D01*
X168056621Y-71335905D01*
X167938248Y-71306025D01*
X167924929Y-71289721D01*
X167870736Y-71250022D01*
X167861429Y-71304761D01*
X167930372Y-71415716D01*
X168043942Y-71481318D01*
X168161175Y-71549156D01*
X168120535Y-71615576D01*
X167973881Y-71627670D01*
X167801216Y-71568324D01*
X167636439Y-71500864D01*
X167531738Y-71542388D01*
X167471497Y-71615657D01*
X167358757Y-71715626D01*
X167289641Y-71712263D01*
X167298213Y-71621441D01*
X167388419Y-71528819D01*
X167493701Y-71419224D01*
X167498151Y-71356328D01*
X167405932Y-71365844D01*
X167307784Y-71440120D01*
X167132406Y-71565079D01*
X167004043Y-71534126D01*
X166968592Y-71488422D01*
X166872387Y-71451596D01*
X166790674Y-71501767D01*
X166654690Y-71558503D01*
X166573574Y-71509841D01*
X166442754Y-71459197D01*
X166306043Y-71508637D01*
X166158634Y-71558652D01*
X166100291Y-71504674D01*
X165999378Y-71417897D01*
X165939019Y-71407866D01*
X167013466Y-71407866D01*
X167077895Y-71490073D01*
X167098133Y-71492533D01*
X167180339Y-71428104D01*
X167182800Y-71407866D01*
X167118370Y-71325660D01*
X167098133Y-71323200D01*
X167015926Y-71387629D01*
X167013466Y-71407866D01*
X165939019Y-71407866D01*
X165850002Y-71460216D01*
X165863328Y-71546794D01*
X165890280Y-71755998D01*
X165823581Y-71917973D01*
X165689596Y-71979757D01*
X165650722Y-71973888D01*
X165495570Y-71974569D01*
X165439679Y-72012593D01*
X165342942Y-72040804D01*
X165280993Y-72003183D01*
X165112708Y-71939768D01*
X164975800Y-72020726D01*
X164901944Y-72221097D01*
X164896800Y-72305925D01*
X164874229Y-72498153D01*
X164818944Y-72591510D01*
X164809476Y-72593200D01*
X164705290Y-72526575D01*
X164660010Y-72388435D01*
X164701511Y-72271383D01*
X164710660Y-72264920D01*
X164756037Y-72157123D01*
X164721448Y-72082965D01*
X164644805Y-72006312D01*
X164570377Y-72076699D01*
X164552377Y-72106366D01*
X164385660Y-72225446D01*
X164162559Y-72254533D01*
X163970844Y-72264497D01*
X163919346Y-72306341D01*
X163963715Y-72379422D01*
X164010998Y-72480736D01*
X163929520Y-72563268D01*
X163839741Y-72608024D01*
X163691117Y-72689259D01*
X163683557Y-72755138D01*
X163748431Y-72811411D01*
X163834369Y-72893439D01*
X163768598Y-72940407D01*
X163713439Y-72955882D01*
X163576567Y-72952338D01*
X163532329Y-72818432D01*
X163532311Y-72818106D01*
X163517891Y-72707557D01*
X163490029Y-72759889D01*
X163484304Y-72780927D01*
X163375244Y-72901339D01*
X163155459Y-72980850D01*
X162936220Y-73046036D01*
X162870138Y-73124411D01*
X162964629Y-73205296D01*
X162991800Y-73216484D01*
X163104194Y-73307595D01*
X163095266Y-73403783D01*
X162991800Y-73439866D01*
X162879278Y-73494498D01*
X162864800Y-73541466D01*
X162839809Y-73600371D01*
X162763199Y-73541466D01*
X162627708Y-73449290D01*
X162548000Y-73467472D01*
X162555710Y-73564155D01*
X162554807Y-73700393D01*
X162522435Y-73738485D01*
X162448038Y-73723802D01*
X162441466Y-73688496D01*
X162412204Y-73615010D01*
X162342796Y-73658836D01*
X162260811Y-73782078D01*
X162193816Y-73946843D01*
X162171194Y-74060005D01*
X162122382Y-74250355D01*
X162037440Y-74307080D01*
X161932488Y-74359925D01*
X161844141Y-74519105D01*
X161796891Y-74721803D01*
X161810015Y-74890382D01*
X161811987Y-75020095D01*
X161764842Y-75048533D01*
X161712896Y-74995364D01*
X161729884Y-74950784D01*
X161741534Y-74894145D01*
X161671381Y-74927505D01*
X161488160Y-74979080D01*
X161395045Y-74976030D01*
X161287486Y-74989480D01*
X161295062Y-75043024D01*
X161391085Y-75102171D01*
X161422445Y-75092734D01*
X161502812Y-75118571D01*
X161567019Y-75257721D01*
X161589546Y-75454421D01*
X161589433Y-75457624D01*
X161563903Y-75511336D01*
X161498036Y-75401176D01*
X161491870Y-75387200D01*
X161421328Y-75254676D01*
X161379078Y-75272032D01*
X161364794Y-75319721D01*
X161262041Y-75463059D01*
X161164795Y-75516317D01*
X161050366Y-75586666D01*
X161043511Y-75639655D01*
X161054370Y-75771065D01*
X161032958Y-75852325D01*
X160965950Y-75933433D01*
X160926002Y-75909011D01*
X160818392Y-75826571D01*
X160651563Y-75768546D01*
X160493213Y-75749793D01*
X160411040Y-75785171D01*
X160409466Y-75795649D01*
X160479814Y-75887676D01*
X160589986Y-75941083D01*
X160703238Y-76005429D01*
X160671372Y-76059647D01*
X160614708Y-76159337D01*
X160660339Y-76352639D01*
X160661020Y-76354432D01*
X160708285Y-76525217D01*
X160659845Y-76604716D01*
X160583397Y-76631465D01*
X160442659Y-76745770D01*
X160318671Y-77016423D01*
X160290066Y-77107965D01*
X160229436Y-77357411D01*
X160209655Y-77534386D01*
X160222803Y-77585907D01*
X160293776Y-77701226D01*
X160308410Y-77751031D01*
X160307251Y-77826979D01*
X160222927Y-77778484D01*
X160202577Y-77761831D01*
X160092080Y-77612113D01*
X160070800Y-77525466D01*
X160044761Y-77444755D01*
X159952033Y-77497033D01*
X159842429Y-77550549D01*
X159789384Y-77486233D01*
X159751058Y-77444010D01*
X159738817Y-77517977D01*
X159778590Y-77656010D01*
X159821645Y-77688926D01*
X159869958Y-77779187D01*
X159852196Y-77872414D01*
X159789852Y-77972304D01*
X159715782Y-77916719D01*
X159713222Y-77913132D01*
X159667657Y-77893429D01*
X159673085Y-78035032D01*
X159682553Y-78096533D01*
X159701145Y-78275875D01*
X159670598Y-78294278D01*
X159653801Y-78271310D01*
X159547620Y-78199156D01*
X159439974Y-78262689D01*
X159357239Y-78430566D01*
X159325733Y-78661144D01*
X159304267Y-78876521D01*
X159251575Y-79009043D01*
X159241362Y-79017637D01*
X159168480Y-79126373D01*
X159087782Y-79335175D01*
X159063275Y-79418980D01*
X158960837Y-79699126D01*
X158827581Y-79945533D01*
X158800512Y-79982668D01*
X158660654Y-80186514D01*
X158646774Y-80281422D01*
X157504910Y-80281422D01*
X157530800Y-80255533D01*
X157488466Y-80213200D01*
X157446133Y-80255533D01*
X156587556Y-80255533D01*
X156580360Y-80072111D01*
X156582664Y-80043866D01*
X158419800Y-80043866D01*
X158426512Y-80121885D01*
X158457136Y-80128533D01*
X158543354Y-80067072D01*
X158546800Y-80043866D01*
X158517913Y-79961401D01*
X158509463Y-79959200D01*
X158437177Y-80018528D01*
X158419800Y-80043866D01*
X156582664Y-80043866D01*
X156686987Y-78764816D01*
X156695172Y-78725383D01*
X158994723Y-78725383D01*
X159012466Y-78773866D01*
X159106076Y-78824184D01*
X159158578Y-78788621D01*
X159199543Y-78653016D01*
X159181800Y-78604533D01*
X159088190Y-78554215D01*
X159035687Y-78589778D01*
X158994723Y-78725383D01*
X156695172Y-78725383D01*
X156904794Y-77715533D01*
X159562800Y-77715533D01*
X159605133Y-77757866D01*
X159647466Y-77715533D01*
X159605133Y-77673200D01*
X159562800Y-77715533D01*
X156904794Y-77715533D01*
X156953235Y-77482169D01*
X157085829Y-77038200D01*
X157561984Y-75824247D01*
X157840806Y-75302533D01*
X160930835Y-75302533D01*
X160944140Y-75422728D01*
X160973539Y-75408366D01*
X160984722Y-75235024D01*
X160980404Y-75220225D01*
X161107384Y-75220225D01*
X161136156Y-75313896D01*
X161201083Y-75378003D01*
X161238120Y-75314238D01*
X161238754Y-75182062D01*
X161222619Y-75156130D01*
X161141192Y-75136402D01*
X161107384Y-75220225D01*
X160980404Y-75220225D01*
X160973539Y-75196700D01*
X160942637Y-75186063D01*
X160930835Y-75302533D01*
X157840806Y-75302533D01*
X158067049Y-74879200D01*
X161086800Y-74879200D01*
X161117778Y-74948890D01*
X161143244Y-74935644D01*
X161153377Y-74835164D01*
X161143244Y-74822755D01*
X161092910Y-74834377D01*
X161086800Y-74879200D01*
X158067049Y-74879200D01*
X158180171Y-74667533D01*
X160663466Y-74667533D01*
X160705800Y-74709866D01*
X161594800Y-74709866D01*
X161625778Y-74779556D01*
X161651244Y-74766311D01*
X161661377Y-74665831D01*
X161651244Y-74653422D01*
X161600910Y-74665044D01*
X161594800Y-74709866D01*
X160705800Y-74709866D01*
X160748133Y-74667533D01*
X160705800Y-74625200D01*
X160663466Y-74667533D01*
X158180171Y-74667533D01*
X158181322Y-74665379D01*
X158925541Y-73591820D01*
X159717031Y-72693098D01*
X160256146Y-72212200D01*
X163457466Y-72212200D01*
X163499800Y-72254533D01*
X163542133Y-72212200D01*
X163499800Y-72169866D01*
X163457466Y-72212200D01*
X160256146Y-72212200D01*
X160706321Y-71810638D01*
X161540149Y-71238533D01*
X167606133Y-71238533D01*
X167637111Y-71308223D01*
X167662577Y-71294977D01*
X167672710Y-71194498D01*
X167662577Y-71182088D01*
X167612243Y-71193711D01*
X167606133Y-71238533D01*
X161540149Y-71238533D01*
X161781537Y-71072912D01*
X162037500Y-70942200D01*
X168960800Y-70942200D01*
X169003133Y-70984533D01*
X169045466Y-70942200D01*
X169003133Y-70899866D01*
X168960800Y-70942200D01*
X162037500Y-70942200D01*
X162944753Y-70478895D01*
X164198041Y-70027559D01*
X165543474Y-69717880D01*
X165816014Y-69674020D01*
X166377934Y-69598592D01*
X166858740Y-69559166D01*
X167318008Y-69555609D01*
X167815316Y-69587784D01*
G37*
%TD*%
M02*
